<?xml version="1.0" encoding="utf-8" standalone="no"?>
<!DOCTYPE svg PUBLIC "-//W3C//DTD SVG 1.1//EN"
  "http://www.w3.org/Graphics/SVG/1.1/DTD/svg11.dtd">
<!-- Created with matplotlib (http://matplotlib.org/) -->
<svg height="314.36825pt" version="1.1" viewBox="0 0 411.60125 314.36825" width="411.60125pt" xmlns="http://www.w3.org/2000/svg" xmlns:xlink="http://www.w3.org/1999/xlink">
 <defs>
  <style type="text/css">
*{stroke-linecap:butt;stroke-linejoin:round;}
  </style>
 </defs>
 <g id="figure_1">
  <g id="patch_1">
   <path d="M 0 314.36825 
L 411.60125 314.36825 
L 411.60125 0 
L 0 0 
z
" style="fill:#ffffff;"/>
  </g>
  <g id="axes_1">
   <g id="patch_2">
    <path d="M 43.78125 276.812 
L 400.90125 276.812 
L 400.90125 10.7 
L 43.78125 10.7 
z
" style="fill:#ffffff;"/>
   </g>
   <g id="matplotlib.axis_1">
    <g id="xtick_1">
     <g id="line2d_1">
      <defs>
       <path d="M 0 0 
L 0 3.5 
" id="mc7bcab9cb0" style="stroke:#000000;stroke-width:0.8;"/>
      </defs>
      <g>
       <use style="stroke:#000000;stroke-width:0.8;" x="43.78125" xlink:href="#mc7bcab9cb0" y="276.812"/>
      </g>
     </g>
     <g id="text_1">
      <!-- 0 -->
      <defs>
       <path d="M 31.78125 66.40625 
Q 24.171875 66.40625 20.328125 58.90625 
Q 16.5 51.421875 16.5 36.375 
Q 16.5 21.390625 20.328125 13.890625 
Q 24.171875 6.390625 31.78125 6.390625 
Q 39.453125 6.390625 43.28125 13.890625 
Q 47.125 21.390625 47.125 36.375 
Q 47.125 51.421875 43.28125 58.90625 
Q 39.453125 66.40625 31.78125 66.40625 
z
M 31.78125 74.21875 
Q 44.046875 74.21875 50.515625 64.515625 
Q 56.984375 54.828125 56.984375 36.375 
Q 56.984375 17.96875 50.515625 8.265625 
Q 44.046875 -1.421875 31.78125 -1.421875 
Q 19.53125 -1.421875 13.0625 8.265625 
Q 6.59375 17.96875 6.59375 36.375 
Q 6.59375 54.828125 13.0625 64.515625 
Q 19.53125 74.21875 31.78125 74.21875 
z
" id="DejaVuSans-30"/>
      </defs>
      <g transform="translate(40.6 291.410438)scale(0.1 -0.1)">
       <use xlink:href="#DejaVuSans-30"/>
      </g>
     </g>
    </g>
    <g id="xtick_2">
     <g id="line2d_2">
      <g>
       <use style="stroke:#000000;stroke-width:0.8;" x="103.30125" xlink:href="#mc7bcab9cb0" y="276.812"/>
      </g>
     </g>
     <g id="text_2">
      <!-- 1 -->
      <defs>
       <path d="M 12.40625 8.296875 
L 28.515625 8.296875 
L 28.515625 63.921875 
L 10.984375 60.40625 
L 10.984375 69.390625 
L 28.421875 72.90625 
L 38.28125 72.90625 
L 38.28125 8.296875 
L 54.390625 8.296875 
L 54.390625 0 
L 12.40625 0 
z
" id="DejaVuSans-31"/>
      </defs>
      <g transform="translate(100.12 291.410438)scale(0.1 -0.1)">
       <use xlink:href="#DejaVuSans-31"/>
      </g>
     </g>
    </g>
    <g id="xtick_3">
     <g id="line2d_3">
      <g>
       <use style="stroke:#000000;stroke-width:0.8;" x="162.82125" xlink:href="#mc7bcab9cb0" y="276.812"/>
      </g>
     </g>
     <g id="text_3">
      <!-- 2 -->
      <defs>
       <path d="M 19.1875 8.296875 
L 53.609375 8.296875 
L 53.609375 0 
L 7.328125 0 
L 7.328125 8.296875 
Q 12.9375 14.109375 22.625 23.890625 
Q 32.328125 33.6875 34.8125 36.53125 
Q 39.546875 41.84375 41.421875 45.53125 
Q 43.3125 49.21875 43.3125 52.78125 
Q 43.3125 58.59375 39.234375 62.25 
Q 35.15625 65.921875 28.609375 65.921875 
Q 23.96875 65.921875 18.8125 64.3125 
Q 13.671875 62.703125 7.8125 59.421875 
L 7.8125 69.390625 
Q 13.765625 71.78125 18.9375 73 
Q 24.125 74.21875 28.421875 74.21875 
Q 39.75 74.21875 46.484375 68.546875 
Q 53.21875 62.890625 53.21875 53.421875 
Q 53.21875 48.921875 51.53125 44.890625 
Q 49.859375 40.875 45.40625 35.40625 
Q 44.1875 33.984375 37.640625 27.21875 
Q 31.109375 20.453125 19.1875 8.296875 
z
" id="DejaVuSans-32"/>
      </defs>
      <g transform="translate(159.64 291.410438)scale(0.1 -0.1)">
       <use xlink:href="#DejaVuSans-32"/>
      </g>
     </g>
    </g>
    <g id="xtick_4">
     <g id="line2d_4">
      <g>
       <use style="stroke:#000000;stroke-width:0.8;" x="222.34125" xlink:href="#mc7bcab9cb0" y="276.812"/>
      </g>
     </g>
     <g id="text_4">
      <!-- 3 -->
      <defs>
       <path d="M 40.578125 39.3125 
Q 47.65625 37.796875 51.625 33 
Q 55.609375 28.21875 55.609375 21.1875 
Q 55.609375 10.40625 48.1875 4.484375 
Q 40.765625 -1.421875 27.09375 -1.421875 
Q 22.515625 -1.421875 17.65625 -0.515625 
Q 12.796875 0.390625 7.625 2.203125 
L 7.625 11.71875 
Q 11.71875 9.328125 16.59375 8.109375 
Q 21.484375 6.890625 26.8125 6.890625 
Q 36.078125 6.890625 40.9375 10.546875 
Q 45.796875 14.203125 45.796875 21.1875 
Q 45.796875 27.640625 41.28125 31.265625 
Q 36.765625 34.90625 28.71875 34.90625 
L 20.21875 34.90625 
L 20.21875 43.015625 
L 29.109375 43.015625 
Q 36.375 43.015625 40.234375 45.921875 
Q 44.09375 48.828125 44.09375 54.296875 
Q 44.09375 59.90625 40.109375 62.90625 
Q 36.140625 65.921875 28.71875 65.921875 
Q 24.65625 65.921875 20.015625 65.03125 
Q 15.375 64.15625 9.8125 62.3125 
L 9.8125 71.09375 
Q 15.4375 72.65625 20.34375 73.4375 
Q 25.25 74.21875 29.59375 74.21875 
Q 40.828125 74.21875 47.359375 69.109375 
Q 53.90625 64.015625 53.90625 55.328125 
Q 53.90625 49.265625 50.4375 45.09375 
Q 46.96875 40.921875 40.578125 39.3125 
z
" id="DejaVuSans-33"/>
      </defs>
      <g transform="translate(219.16 291.410438)scale(0.1 -0.1)">
       <use xlink:href="#DejaVuSans-33"/>
      </g>
     </g>
    </g>
    <g id="xtick_5">
     <g id="line2d_5">
      <g>
       <use style="stroke:#000000;stroke-width:0.8;" x="281.86125" xlink:href="#mc7bcab9cb0" y="276.812"/>
      </g>
     </g>
     <g id="text_5">
      <!-- 4 -->
      <defs>
       <path d="M 37.796875 64.3125 
L 12.890625 25.390625 
L 37.796875 25.390625 
z
M 35.203125 72.90625 
L 47.609375 72.90625 
L 47.609375 25.390625 
L 58.015625 25.390625 
L 58.015625 17.1875 
L 47.609375 17.1875 
L 47.609375 0 
L 37.796875 0 
L 37.796875 17.1875 
L 4.890625 17.1875 
L 4.890625 26.703125 
z
" id="DejaVuSans-34"/>
      </defs>
      <g transform="translate(278.68 291.410438)scale(0.1 -0.1)">
       <use xlink:href="#DejaVuSans-34"/>
      </g>
     </g>
    </g>
    <g id="xtick_6">
     <g id="line2d_6">
      <g>
       <use style="stroke:#000000;stroke-width:0.8;" x="341.38125" xlink:href="#mc7bcab9cb0" y="276.812"/>
      </g>
     </g>
     <g id="text_6">
      <!-- 5 -->
      <defs>
       <path d="M 10.796875 72.90625 
L 49.515625 72.90625 
L 49.515625 64.59375 
L 19.828125 64.59375 
L 19.828125 46.734375 
Q 21.96875 47.46875 24.109375 47.828125 
Q 26.265625 48.1875 28.421875 48.1875 
Q 40.625 48.1875 47.75 41.5 
Q 54.890625 34.8125 54.890625 23.390625 
Q 54.890625 11.625 47.5625 5.09375 
Q 40.234375 -1.421875 26.90625 -1.421875 
Q 22.3125 -1.421875 17.546875 -0.640625 
Q 12.796875 0.140625 7.71875 1.703125 
L 7.71875 11.625 
Q 12.109375 9.234375 16.796875 8.0625 
Q 21.484375 6.890625 26.703125 6.890625 
Q 35.15625 6.890625 40.078125 11.328125 
Q 45.015625 15.765625 45.015625 23.390625 
Q 45.015625 31 40.078125 35.4375 
Q 35.15625 39.890625 26.703125 39.890625 
Q 22.75 39.890625 18.8125 39.015625 
Q 14.890625 38.140625 10.796875 36.28125 
z
" id="DejaVuSans-35"/>
      </defs>
      <g transform="translate(338.2 291.410438)scale(0.1 -0.1)">
       <use xlink:href="#DejaVuSans-35"/>
      </g>
     </g>
    </g>
    <g id="xtick_7">
     <g id="line2d_7">
      <g>
       <use style="stroke:#000000;stroke-width:0.8;" x="400.90125" xlink:href="#mc7bcab9cb0" y="276.812"/>
      </g>
     </g>
     <g id="text_7">
      <!-- 6 -->
      <defs>
       <path d="M 33.015625 40.375 
Q 26.375 40.375 22.484375 35.828125 
Q 18.609375 31.296875 18.609375 23.390625 
Q 18.609375 15.53125 22.484375 10.953125 
Q 26.375 6.390625 33.015625 6.390625 
Q 39.65625 6.390625 43.53125 10.953125 
Q 47.40625 15.53125 47.40625 23.390625 
Q 47.40625 31.296875 43.53125 35.828125 
Q 39.65625 40.375 33.015625 40.375 
z
M 52.59375 71.296875 
L 52.59375 62.3125 
Q 48.875 64.0625 45.09375 64.984375 
Q 41.3125 65.921875 37.59375 65.921875 
Q 27.828125 65.921875 22.671875 59.328125 
Q 17.53125 52.734375 16.796875 39.40625 
Q 19.671875 43.65625 24.015625 45.921875 
Q 28.375 48.1875 33.59375 48.1875 
Q 44.578125 48.1875 50.953125 41.515625 
Q 57.328125 34.859375 57.328125 23.390625 
Q 57.328125 12.15625 50.6875 5.359375 
Q 44.046875 -1.421875 33.015625 -1.421875 
Q 20.359375 -1.421875 13.671875 8.265625 
Q 6.984375 17.96875 6.984375 36.375 
Q 6.984375 53.65625 15.1875 63.9375 
Q 23.390625 74.21875 37.203125 74.21875 
Q 40.921875 74.21875 44.703125 73.484375 
Q 48.484375 72.75 52.59375 71.296875 
z
" id="DejaVuSans-36"/>
      </defs>
      <g transform="translate(397.72 291.410438)scale(0.1 -0.1)">
       <use xlink:href="#DejaVuSans-36"/>
      </g>
     </g>
    </g>
    <g id="text_8">
     <!-- Temperature -->
     <defs>
      <path d="M -0.296875 72.90625 
L 61.375 72.90625 
L 61.375 64.59375 
L 35.5 64.59375 
L 35.5 0 
L 25.59375 0 
L 25.59375 64.59375 
L -0.296875 64.59375 
z
" id="DejaVuSans-54"/>
      <path d="M 56.203125 29.59375 
L 56.203125 25.203125 
L 14.890625 25.203125 
Q 15.484375 15.921875 20.484375 11.0625 
Q 25.484375 6.203125 34.421875 6.203125 
Q 39.59375 6.203125 44.453125 7.46875 
Q 49.3125 8.734375 54.109375 11.28125 
L 54.109375 2.78125 
Q 49.265625 0.734375 44.1875 -0.34375 
Q 39.109375 -1.421875 33.890625 -1.421875 
Q 20.796875 -1.421875 13.15625 6.1875 
Q 5.515625 13.8125 5.515625 26.8125 
Q 5.515625 40.234375 12.765625 48.109375 
Q 20.015625 56 32.328125 56 
Q 43.359375 56 49.78125 48.890625 
Q 56.203125 41.796875 56.203125 29.59375 
z
M 47.21875 32.234375 
Q 47.125 39.59375 43.09375 43.984375 
Q 39.0625 48.390625 32.421875 48.390625 
Q 24.90625 48.390625 20.390625 44.140625 
Q 15.875 39.890625 15.1875 32.171875 
z
" id="DejaVuSans-65"/>
      <path d="M 52 44.1875 
Q 55.375 50.25 60.0625 53.125 
Q 64.75 56 71.09375 56 
Q 79.640625 56 84.28125 50.015625 
Q 88.921875 44.046875 88.921875 33.015625 
L 88.921875 0 
L 79.890625 0 
L 79.890625 32.71875 
Q 79.890625 40.578125 77.09375 44.375 
Q 74.3125 48.1875 68.609375 48.1875 
Q 61.625 48.1875 57.5625 43.546875 
Q 53.515625 38.921875 53.515625 30.90625 
L 53.515625 0 
L 44.484375 0 
L 44.484375 32.71875 
Q 44.484375 40.625 41.703125 44.40625 
Q 38.921875 48.1875 33.109375 48.1875 
Q 26.21875 48.1875 22.15625 43.53125 
Q 18.109375 38.875 18.109375 30.90625 
L 18.109375 0 
L 9.078125 0 
L 9.078125 54.6875 
L 18.109375 54.6875 
L 18.109375 46.1875 
Q 21.1875 51.21875 25.484375 53.609375 
Q 29.78125 56 35.6875 56 
Q 41.65625 56 45.828125 52.96875 
Q 50 49.953125 52 44.1875 
z
" id="DejaVuSans-6d"/>
      <path d="M 18.109375 8.203125 
L 18.109375 -20.796875 
L 9.078125 -20.796875 
L 9.078125 54.6875 
L 18.109375 54.6875 
L 18.109375 46.390625 
Q 20.953125 51.265625 25.265625 53.625 
Q 29.59375 56 35.59375 56 
Q 45.5625 56 51.78125 48.09375 
Q 58.015625 40.1875 58.015625 27.296875 
Q 58.015625 14.40625 51.78125 6.484375 
Q 45.5625 -1.421875 35.59375 -1.421875 
Q 29.59375 -1.421875 25.265625 0.953125 
Q 20.953125 3.328125 18.109375 8.203125 
z
M 48.6875 27.296875 
Q 48.6875 37.203125 44.609375 42.84375 
Q 40.53125 48.484375 33.40625 48.484375 
Q 26.265625 48.484375 22.1875 42.84375 
Q 18.109375 37.203125 18.109375 27.296875 
Q 18.109375 17.390625 22.1875 11.75 
Q 26.265625 6.109375 33.40625 6.109375 
Q 40.53125 6.109375 44.609375 11.75 
Q 48.6875 17.390625 48.6875 27.296875 
z
" id="DejaVuSans-70"/>
      <path d="M 41.109375 46.296875 
Q 39.59375 47.171875 37.8125 47.578125 
Q 36.03125 48 33.890625 48 
Q 26.265625 48 22.1875 43.046875 
Q 18.109375 38.09375 18.109375 28.8125 
L 18.109375 0 
L 9.078125 0 
L 9.078125 54.6875 
L 18.109375 54.6875 
L 18.109375 46.1875 
Q 20.953125 51.171875 25.484375 53.578125 
Q 30.03125 56 36.53125 56 
Q 37.453125 56 38.578125 55.875 
Q 39.703125 55.765625 41.0625 55.515625 
z
" id="DejaVuSans-72"/>
      <path d="M 34.28125 27.484375 
Q 23.390625 27.484375 19.1875 25 
Q 14.984375 22.515625 14.984375 16.5 
Q 14.984375 11.71875 18.140625 8.90625 
Q 21.296875 6.109375 26.703125 6.109375 
Q 34.1875 6.109375 38.703125 11.40625 
Q 43.21875 16.703125 43.21875 25.484375 
L 43.21875 27.484375 
z
M 52.203125 31.203125 
L 52.203125 0 
L 43.21875 0 
L 43.21875 8.296875 
Q 40.140625 3.328125 35.546875 0.953125 
Q 30.953125 -1.421875 24.3125 -1.421875 
Q 15.921875 -1.421875 10.953125 3.296875 
Q 6 8.015625 6 15.921875 
Q 6 25.140625 12.171875 29.828125 
Q 18.359375 34.515625 30.609375 34.515625 
L 43.21875 34.515625 
L 43.21875 35.40625 
Q 43.21875 41.609375 39.140625 45 
Q 35.0625 48.390625 27.6875 48.390625 
Q 23 48.390625 18.546875 47.265625 
Q 14.109375 46.140625 10.015625 43.890625 
L 10.015625 52.203125 
Q 14.9375 54.109375 19.578125 55.046875 
Q 24.21875 56 28.609375 56 
Q 40.484375 56 46.34375 49.84375 
Q 52.203125 43.703125 52.203125 31.203125 
z
" id="DejaVuSans-61"/>
      <path d="M 18.3125 70.21875 
L 18.3125 54.6875 
L 36.8125 54.6875 
L 36.8125 47.703125 
L 18.3125 47.703125 
L 18.3125 18.015625 
Q 18.3125 11.328125 20.140625 9.421875 
Q 21.96875 7.515625 27.59375 7.515625 
L 36.8125 7.515625 
L 36.8125 0 
L 27.59375 0 
Q 17.1875 0 13.234375 3.875 
Q 9.28125 7.765625 9.28125 18.015625 
L 9.28125 47.703125 
L 2.6875 47.703125 
L 2.6875 54.6875 
L 9.28125 54.6875 
L 9.28125 70.21875 
z
" id="DejaVuSans-74"/>
      <path d="M 8.5 21.578125 
L 8.5 54.6875 
L 17.484375 54.6875 
L 17.484375 21.921875 
Q 17.484375 14.15625 20.5 10.265625 
Q 23.53125 6.390625 29.59375 6.390625 
Q 36.859375 6.390625 41.078125 11.03125 
Q 45.3125 15.671875 45.3125 23.6875 
L 45.3125 54.6875 
L 54.296875 54.6875 
L 54.296875 0 
L 45.3125 0 
L 45.3125 8.40625 
Q 42.046875 3.421875 37.71875 1 
Q 33.40625 -1.421875 27.6875 -1.421875 
Q 18.265625 -1.421875 13.375 4.4375 
Q 8.5 10.296875 8.5 21.578125 
z
M 31.109375 56 
z
" id="DejaVuSans-75"/>
     </defs>
     <g transform="translate(189.724063 305.088562)scale(0.1 -0.1)">
      <use xlink:href="#DejaVuSans-54"/>
      <use x="60.818359" xlink:href="#DejaVuSans-65"/>
      <use x="122.341797" xlink:href="#DejaVuSans-6d"/>
      <use x="219.753906" xlink:href="#DejaVuSans-70"/>
      <use x="283.230469" xlink:href="#DejaVuSans-65"/>
      <use x="344.753906" xlink:href="#DejaVuSans-72"/>
      <use x="385.867188" xlink:href="#DejaVuSans-61"/>
      <use x="447.146484" xlink:href="#DejaVuSans-74"/>
      <use x="486.355469" xlink:href="#DejaVuSans-75"/>
      <use x="549.734375" xlink:href="#DejaVuSans-72"/>
      <use x="590.816406" xlink:href="#DejaVuSans-65"/>
     </g>
    </g>
   </g>
   <g id="matplotlib.axis_2">
    <g id="ytick_1">
     <g id="line2d_8">
      <defs>
       <path d="M 0 0 
L -3.5 0 
" id="m5d4307d05f" style="stroke:#000000;stroke-width:0.8;"/>
      </defs>
      <g>
       <use style="stroke:#000000;stroke-width:0.8;" x="43.78125" xlink:href="#m5d4307d05f" y="264.716"/>
      </g>
     </g>
     <g id="text_9">
      <!-- 0.0 -->
      <defs>
       <path d="M 10.6875 12.40625 
L 21 12.40625 
L 21 0 
L 10.6875 0 
z
" id="DejaVuSans-2e"/>
      </defs>
      <g transform="translate(20.878125 268.515219)scale(0.1 -0.1)">
       <use xlink:href="#DejaVuSans-30"/>
       <use x="63.623047" xlink:href="#DejaVuSans-2e"/>
       <use x="95.410156" xlink:href="#DejaVuSans-30"/>
      </g>
     </g>
    </g>
    <g id="ytick_2">
     <g id="line2d_9">
      <g>
       <use style="stroke:#000000;stroke-width:0.8;" x="43.78125" xlink:href="#m5d4307d05f" y="234.062069"/>
      </g>
     </g>
     <g id="text_10">
      <!-- 0.2 -->
      <g transform="translate(20.878125 237.861288)scale(0.1 -0.1)">
       <use xlink:href="#DejaVuSans-30"/>
       <use x="63.623047" xlink:href="#DejaVuSans-2e"/>
       <use x="95.410156" xlink:href="#DejaVuSans-32"/>
      </g>
     </g>
    </g>
    <g id="ytick_3">
     <g id="line2d_10">
      <g>
       <use style="stroke:#000000;stroke-width:0.8;" x="43.78125" xlink:href="#m5d4307d05f" y="203.408139"/>
      </g>
     </g>
     <g id="text_11">
      <!-- 0.4 -->
      <g transform="translate(20.878125 207.207358)scale(0.1 -0.1)">
       <use xlink:href="#DejaVuSans-30"/>
       <use x="63.623047" xlink:href="#DejaVuSans-2e"/>
       <use x="95.410156" xlink:href="#DejaVuSans-34"/>
      </g>
     </g>
    </g>
    <g id="ytick_4">
     <g id="line2d_11">
      <g>
       <use style="stroke:#000000;stroke-width:0.8;" x="43.78125" xlink:href="#m5d4307d05f" y="172.754208"/>
      </g>
     </g>
     <g id="text_12">
      <!-- 0.6 -->
      <g transform="translate(20.878125 176.553427)scale(0.1 -0.1)">
       <use xlink:href="#DejaVuSans-30"/>
       <use x="63.623047" xlink:href="#DejaVuSans-2e"/>
       <use x="95.410156" xlink:href="#DejaVuSans-36"/>
      </g>
     </g>
    </g>
    <g id="ytick_5">
     <g id="line2d_12">
      <g>
       <use style="stroke:#000000;stroke-width:0.8;" x="43.78125" xlink:href="#m5d4307d05f" y="142.100278"/>
      </g>
     </g>
     <g id="text_13">
      <!-- 0.8 -->
      <defs>
       <path d="M 31.78125 34.625 
Q 24.75 34.625 20.71875 30.859375 
Q 16.703125 27.09375 16.703125 20.515625 
Q 16.703125 13.921875 20.71875 10.15625 
Q 24.75 6.390625 31.78125 6.390625 
Q 38.8125 6.390625 42.859375 10.171875 
Q 46.921875 13.96875 46.921875 20.515625 
Q 46.921875 27.09375 42.890625 30.859375 
Q 38.875 34.625 31.78125 34.625 
z
M 21.921875 38.8125 
Q 15.578125 40.375 12.03125 44.71875 
Q 8.5 49.078125 8.5 55.328125 
Q 8.5 64.0625 14.71875 69.140625 
Q 20.953125 74.21875 31.78125 74.21875 
Q 42.671875 74.21875 48.875 69.140625 
Q 55.078125 64.0625 55.078125 55.328125 
Q 55.078125 49.078125 51.53125 44.71875 
Q 48 40.375 41.703125 38.8125 
Q 48.828125 37.15625 52.796875 32.3125 
Q 56.78125 27.484375 56.78125 20.515625 
Q 56.78125 9.90625 50.3125 4.234375 
Q 43.84375 -1.421875 31.78125 -1.421875 
Q 19.734375 -1.421875 13.25 4.234375 
Q 6.78125 9.90625 6.78125 20.515625 
Q 6.78125 27.484375 10.78125 32.3125 
Q 14.796875 37.15625 21.921875 38.8125 
z
M 18.3125 54.390625 
Q 18.3125 48.734375 21.84375 45.5625 
Q 25.390625 42.390625 31.78125 42.390625 
Q 38.140625 42.390625 41.71875 45.5625 
Q 45.3125 48.734375 45.3125 54.390625 
Q 45.3125 60.0625 41.71875 63.234375 
Q 38.140625 66.40625 31.78125 66.40625 
Q 25.390625 66.40625 21.84375 63.234375 
Q 18.3125 60.0625 18.3125 54.390625 
z
" id="DejaVuSans-38"/>
      </defs>
      <g transform="translate(20.878125 145.899496)scale(0.1 -0.1)">
       <use xlink:href="#DejaVuSans-30"/>
       <use x="63.623047" xlink:href="#DejaVuSans-2e"/>
       <use x="95.410156" xlink:href="#DejaVuSans-38"/>
      </g>
     </g>
    </g>
    <g id="ytick_6">
     <g id="line2d_13">
      <g>
       <use style="stroke:#000000;stroke-width:0.8;" x="43.78125" xlink:href="#m5d4307d05f" y="111.446347"/>
      </g>
     </g>
     <g id="text_14">
      <!-- 1.0 -->
      <g transform="translate(20.878125 115.245566)scale(0.1 -0.1)">
       <use xlink:href="#DejaVuSans-31"/>
       <use x="63.623047" xlink:href="#DejaVuSans-2e"/>
       <use x="95.410156" xlink:href="#DejaVuSans-30"/>
      </g>
     </g>
    </g>
    <g id="ytick_7">
     <g id="line2d_14">
      <g>
       <use style="stroke:#000000;stroke-width:0.8;" x="43.78125" xlink:href="#m5d4307d05f" y="80.792417"/>
      </g>
     </g>
     <g id="text_15">
      <!-- 1.2 -->
      <g transform="translate(20.878125 84.591635)scale(0.1 -0.1)">
       <use xlink:href="#DejaVuSans-31"/>
       <use x="63.623047" xlink:href="#DejaVuSans-2e"/>
       <use x="95.410156" xlink:href="#DejaVuSans-32"/>
      </g>
     </g>
    </g>
    <g id="ytick_8">
     <g id="line2d_15">
      <g>
       <use style="stroke:#000000;stroke-width:0.8;" x="43.78125" xlink:href="#m5d4307d05f" y="50.138486"/>
      </g>
     </g>
     <g id="text_16">
      <!-- 1.4 -->
      <g transform="translate(20.878125 53.937705)scale(0.1 -0.1)">
       <use xlink:href="#DejaVuSans-31"/>
       <use x="63.623047" xlink:href="#DejaVuSans-2e"/>
       <use x="95.410156" xlink:href="#DejaVuSans-34"/>
      </g>
     </g>
    </g>
    <g id="ytick_9">
     <g id="line2d_16">
      <g>
       <use style="stroke:#000000;stroke-width:0.8;" x="43.78125" xlink:href="#m5d4307d05f" y="19.484555"/>
      </g>
     </g>
     <g id="text_17">
      <!-- 1.6 -->
      <g transform="translate(20.878125 23.283774)scale(0.1 -0.1)">
       <use xlink:href="#DejaVuSans-31"/>
       <use x="63.623047" xlink:href="#DejaVuSans-2e"/>
       <use x="95.410156" xlink:href="#DejaVuSans-36"/>
      </g>
     </g>
    </g>
    <g id="text_18">
     <!-- Heat capacity -->
     <defs>
      <path d="M 9.8125 72.90625 
L 19.671875 72.90625 
L 19.671875 43.015625 
L 55.515625 43.015625 
L 55.515625 72.90625 
L 65.375 72.90625 
L 65.375 0 
L 55.515625 0 
L 55.515625 34.71875 
L 19.671875 34.71875 
L 19.671875 0 
L 9.8125 0 
z
" id="DejaVuSans-48"/>
      <path id="DejaVuSans-20"/>
      <path d="M 48.78125 52.59375 
L 48.78125 44.1875 
Q 44.96875 46.296875 41.140625 47.34375 
Q 37.3125 48.390625 33.40625 48.390625 
Q 24.65625 48.390625 19.8125 42.84375 
Q 14.984375 37.3125 14.984375 27.296875 
Q 14.984375 17.28125 19.8125 11.734375 
Q 24.65625 6.203125 33.40625 6.203125 
Q 37.3125 6.203125 41.140625 7.25 
Q 44.96875 8.296875 48.78125 10.40625 
L 48.78125 2.09375 
Q 45.015625 0.34375 40.984375 -0.53125 
Q 36.96875 -1.421875 32.421875 -1.421875 
Q 20.0625 -1.421875 12.78125 6.34375 
Q 5.515625 14.109375 5.515625 27.296875 
Q 5.515625 40.671875 12.859375 48.328125 
Q 20.21875 56 33.015625 56 
Q 37.15625 56 41.109375 55.140625 
Q 45.0625 54.296875 48.78125 52.59375 
z
" id="DejaVuSans-63"/>
      <path d="M 9.421875 54.6875 
L 18.40625 54.6875 
L 18.40625 0 
L 9.421875 0 
z
M 9.421875 75.984375 
L 18.40625 75.984375 
L 18.40625 64.59375 
L 9.421875 64.59375 
z
" id="DejaVuSans-69"/>
      <path d="M 32.171875 -5.078125 
Q 28.375 -14.84375 24.75 -17.8125 
Q 21.140625 -20.796875 15.09375 -20.796875 
L 7.90625 -20.796875 
L 7.90625 -13.28125 
L 13.1875 -13.28125 
Q 16.890625 -13.28125 18.9375 -11.515625 
Q 21 -9.765625 23.484375 -3.21875 
L 25.09375 0.875 
L 2.984375 54.6875 
L 12.5 54.6875 
L 29.59375 11.921875 
L 46.6875 54.6875 
L 56.203125 54.6875 
z
" id="DejaVuSans-79"/>
     </defs>
     <g transform="translate(14.798438 178.315375)rotate(-90)scale(0.1 -0.1)">
      <use xlink:href="#DejaVuSans-48"/>
      <use x="75.195312" xlink:href="#DejaVuSans-65"/>
      <use x="136.71875" xlink:href="#DejaVuSans-61"/>
      <use x="197.998047" xlink:href="#DejaVuSans-74"/>
      <use x="237.207031" xlink:href="#DejaVuSans-20"/>
      <use x="268.994141" xlink:href="#DejaVuSans-63"/>
      <use x="323.974609" xlink:href="#DejaVuSans-61"/>
      <use x="385.253906" xlink:href="#DejaVuSans-70"/>
      <use x="448.730469" xlink:href="#DejaVuSans-61"/>
      <use x="510.009766" xlink:href="#DejaVuSans-63"/>
      <use x="564.990234" xlink:href="#DejaVuSans-69"/>
      <use x="592.773438" xlink:href="#DejaVuSans-74"/>
      <use x="631.982422" xlink:href="#DejaVuSans-79"/>
     </g>
    </g>
   </g>
   <g id="line2d_17">
    <path clip-path="url(#p6b3ec76889)" d="M 49.73325 264.716 
L 60.44685 264.716 
M 62.82765 264.716 
L 94.96845 264.634448 
L 99.73005 264.453425 
L 103.30125 264.150772 
L 106.87245 263.591831 
L 109.25325 263.005785 
L 111.63405 262.186714 
L 114.01485 261.072978 
L 116.39565 259.598965 
L 118.77645 257.700735 
L 121.15725 255.324495 
L 123.53805 252.437495 
L 125.91885 249.039563 
L 128.29965 245.171665 
L 130.68045 240.916553 
L 134.25165 234.057109 
L 141.39405 219.758436 
L 144.96525 212.294539 
L 147.34605 206.944409 
L 149.72685 201.106274 
L 152.10765 194.634887 
L 154.48845 187.419176 
L 156.86925 179.376764 
L 159.25005 170.421355 
L 161.63085 160.405052 
L 164.01165 149.050217 
L 166.39245 135.904897 
L 168.77325 120.384216 
L 171.15405 101.996028 
L 173.53485 80.858854 
L 177.10605 47.844655 
L 178.29645 38.34713 
L 179.48685 30.635515 
L 180.67725 25.303799 
L 181.86765 22.796 
L 183.05805 23.325077 
L 184.24845 26.834242 
L 185.43885 33.012388 
L 186.62925 41.357066 
L 187.81965 51.263971 
L 193.77165 105.497775 
L 196.15245 123.560475 
L 197.34285 131.407019 
L 198.53325 138.501587 
L 199.72365 144.901073 
L 200.91405 150.671767 
L 203.29485 160.598716 
L 205.67565 168.789422 
L 208.05645 175.659665 
L 210.43725 181.525053 
L 212.81805 186.615696 
L 215.19885 191.096418 
L 217.57965 195.085221 
L 219.96045 198.667789 
L 222.34125 201.907977 
L 224.72205 204.854965 
L 227.10285 207.547957 
L 230.67405 211.180201 
L 234.24525 214.40043 
L 237.81645 217.278508 
L 241.38765 219.870452 
L 244.95885 222.221279 
L 249.72045 225.042073 
L 254.48205 227.564367 
L 259.24365 229.838261 
L 265.19565 232.388487 
L 271.14765 234.665536 
L 277.09965 236.711185 
L 284.24205 238.905135 
L 291.38445 240.854597 
L 298.52685 242.593196 
L 306.85965 244.391276 
L 315.19245 245.975421 
L 324.71565 247.562462 
L 335.42925 249.107993 
L 347.33325 250.579377 
L 360.42765 251.955693 
L 374.71245 253.226132 
L 391.37805 254.469036 
L 410.42445 255.645644 
L 412.60125 255.766352 
L 412.60125 255.766352 
" style="fill:none;stroke:#d3d3d3;stroke-linecap:square;stroke-width:5;"/>
   </g>
   <g id="line2d_18">
    <path clip-path="url(#p6b3ec76889)" d="M 55.68525 264.716 
L 60.44685 264.716 
M 64.01805 264.716 
L 94.96845 264.634448 
L 99.73005 264.453425 
L 103.30125 264.150772 
L 106.87245 263.591831 
L 109.25325 263.005785 
L 111.63405 262.186714 
L 114.01485 261.072978 
L 116.39565 259.598965 
L 118.77645 257.700735 
L 121.15725 255.324495 
L 123.53805 252.437495 
L 125.91885 249.039563 
L 128.29965 245.171665 
L 130.68045 240.916553 
L 134.25165 234.057109 
L 141.39405 219.758436 
L 144.96525 212.294539 
L 147.34605 206.944409 
L 149.72685 201.106276 
L 152.10765 194.634901 
L 154.48845 187.419289 
L 156.86925 179.377554 
L 159.25005 170.426132 
L 161.63085 160.430071 
L 164.01165 149.16381 
L 166.39245 136.351866 
L 168.77325 121.90458 
L 172.34445 98.895362 
L 173.53485 91.977726 
L 174.72525 86.187377 
L 175.91565 82.052953 
L 177.10605 80.059192 
L 178.29645 80.561262 
L 179.48685 83.713517 
L 180.67725 89.434708 
L 181.86765 97.420666 
L 183.05805 107.199444 
L 185.43885 129.886987 
L 189.01005 164.300377 
L 191.39085 183.941915 
L 192.58125 192.431068 
L 193.77165 200.034127 
L 194.96205 206.796967 
L 196.15245 212.784008 
L 197.34285 218.06825 
L 198.53325 222.724498 
L 199.72365 226.825071 
L 200.91405 230.437325 
L 202.10445 233.622441 
L 203.29485 236.435022 
L 204.48525 238.923209 
L 205.67565 241.129085 
L 206.86605 243.089215 
L 209.24685 246.394519 
L 211.62765 249.043785 
L 214.00845 251.189233 
L 216.38925 252.944285 
L 218.77005 254.393917 
L 221.15085 255.602261 
L 223.53165 256.618142 
L 227.10285 257.860769 
L 230.67405 258.846018 
L 235.43565 259.868653 
L 240.19725 260.651576 
L 246.14925 261.394911 
L 253.29165 262.050651 
L 262.81485 262.665537 
L 274.71885 263.179225 
L 290.19405 263.605366 
L 311.62125 263.957109 
L 343.76205 264.240383 
L 396.13965 264.452709 
L 412.60125 264.490725 
L 412.60125 264.490725 
" style="fill:none;stroke:#1f77b4;stroke-linecap:square;stroke-width:1.5;"/>
   </g>
   <g id="line2d_19">
    <path clip-path="url(#p6b3ec76889)" d="M 55.68525 264.716 
L 60.44685 264.716 
M 64.01805 264.716 
L 94.96845 264.634448 
L 99.73005 264.453425 
L 103.30125 264.150772 
L 106.87245 263.591831 
L 109.25325 263.005785 
L 111.63405 262.186714 
L 114.01485 261.072978 
L 116.39565 259.598965 
L 118.77645 257.700735 
L 121.15725 255.324495 
L 123.53805 252.437495 
L 125.91885 249.039563 
L 128.29965 245.171665 
L 130.68045 240.916553 
L 134.25165 234.057109 
L 141.39405 219.758436 
L 144.96525 212.294539 
L 147.34605 206.944409 
L 149.72685 201.106275 
L 152.10765 194.634887 
L 154.48845 187.419176 
L 156.86925 179.376764 
L 159.25005 170.421354 
L 161.63085 160.405052 
L 164.01165 149.050218 
L 166.39245 135.904902 
L 168.77325 120.384261 
L 171.15405 101.996352 
L 173.53485 80.860763 
L 177.10605 47.863732 
L 178.29645 38.384416 
L 179.48685 30.704921 
L 180.67725 25.42693 
L 181.86765 23.00444 
L 183.05805 23.662398 
L 184.24845 27.357355 
L 185.43885 33.791984 
L 186.62925 42.477055 
L 187.81965 52.819993 
L 191.39085 88.061746 
L 193.77165 110.895075 
L 196.15245 131.253578 
L 198.53325 148.817009 
L 200.91405 163.811025 
L 203.29485 176.624243 
L 205.67565 187.63118 
L 208.05645 197.137568 
L 210.43725 205.379869 
L 212.81805 212.541326 
L 215.19885 218.768426 
L 217.57965 224.182949 
L 219.96045 228.889469 
L 222.34125 232.979578 
L 224.72205 236.534163 
L 227.10285 239.624692 
L 229.48365 242.314059 
L 231.86445 244.657306 
L 234.24525 246.702314 
L 236.62605 248.490515 
L 239.00685 250.057599 
L 242.57805 252.059425 
L 246.14925 253.717089 
L 249.72045 255.098105 
L 253.29165 256.255775 
L 258.05325 257.52342 
L 262.81485 258.544462 
L 268.76685 259.558632 
L 274.71885 260.354464 
L 281.86125 261.098726 
L 291.38445 261.838197 
L 302.09805 262.436523 
L 316.38285 262.989528 
L 334.23885 263.443308 
L 359.23725 263.833736 
L 394.94925 264.144816 
L 412.60125 264.241818 
L 412.60125 264.241818 
" style="fill:none;stroke:#ff7f0e;stroke-linecap:square;stroke-width:1.5;"/>
   </g>
   <g id="line2d_20">
    <path clip-path="url(#p6b3ec76889)" d="M 55.68525 264.716 
L 60.44685 264.716 
M 64.01805 264.716 
L 94.96845 264.634448 
L 99.73005 264.453425 
L 103.30125 264.150772 
L 106.87245 263.591831 
L 109.25325 263.005785 
L 111.63405 262.186714 
L 114.01485 261.072978 
L 116.39565 259.598965 
L 118.77645 257.700735 
L 121.15725 255.324495 
L 123.53805 252.437495 
L 125.91885 249.039563 
L 128.29965 245.171665 
L 130.68045 240.916553 
L 134.25165 234.057109 
L 141.39405 219.758436 
L 144.96525 212.294539 
L 147.34605 206.944409 
L 149.72685 201.106275 
L 152.10765 194.634887 
L 154.48845 187.419176 
L 156.86925 179.376764 
L 159.25005 170.421354 
L 161.63085 160.405052 
L 164.01165 149.050217 
L 166.39245 135.904897 
L 168.77325 120.384216 
L 171.15405 101.996028 
L 173.53485 80.858854 
L 177.10605 47.844655 
L 178.29645 38.34713 
L 179.48685 30.635515 
L 180.67725 25.303799 
L 181.86765 22.796 
L 183.05805 23.325077 
L 184.24845 26.834243 
L 185.43885 33.012388 
L 186.62925 41.357066 
L 187.81965 51.263971 
L 193.77165 105.497782 
L 196.15245 123.560493 
L 197.34285 131.407048 
L 198.53325 138.501634 
L 199.72365 144.901146 
L 200.91405 150.671879 
L 203.29485 160.598967 
L 205.67565 168.789956 
L 208.05645 175.660733 
L 210.43725 181.527088 
L 212.81805 186.619399 
L 215.19885 191.102876 
L 217.57965 195.096052 
L 219.96045 198.685313 
L 222.34125 201.935399 
L 224.72205 204.896574 
L 228.29325 208.883232 
L 231.86445 212.418976 
L 235.43565 215.590662 
L 239.00685 218.468595 
L 242.57805 221.10975 
L 247.33965 224.340382 
L 252.10125 227.311587 
L 258.05325 230.744075 
L 264.00525 233.923475 
L 269.95725 236.881722 
L 275.90925 239.629843 
L 281.86125 242.168734 
L 287.81325 244.496763 
L 293.76525 246.614278 
L 299.71725 248.525573 
L 306.85965 250.559115 
L 314.00205 252.329115 
L 321.14445 253.86098 
L 328.28685 255.181844 
L 336.61965 256.491843 
L 346.14285 257.732474 
L 355.66605 258.748873 
L 366.37965 259.677928 
L 379.47405 260.573836 
L 393.75885 261.325497 
L 411.61485 262.027557 
L 412.60125 262.060261 
L 412.60125 262.060261 
" style="fill:none;stroke:#2ca02c;stroke-linecap:square;stroke-width:1.5;"/>
   </g>
   <g id="line2d_21">
    <path clip-path="url(#p6b3ec76889)" d="M 55.68525 264.716 
L 60.44685 264.716 
M 64.01805 264.716 
L 94.96845 264.634448 
L 99.73005 264.453425 
L 103.30125 264.150772 
L 106.87245 263.591831 
L 109.25325 263.005785 
L 111.63405 262.186714 
L 114.01485 261.072978 
L 116.39565 259.598965 
L 118.77645 257.700735 
L 121.15725 255.324495 
L 123.53805 252.437495 
L 125.91885 249.039563 
L 128.29965 245.171665 
L 130.68045 240.916553 
L 134.25165 234.057109 
L 141.39405 219.758436 
L 144.96525 212.294539 
L 147.34605 206.944409 
L 149.72685 201.106275 
L 152.10765 194.634887 
L 154.48845 187.419176 
L 156.86925 179.376764 
L 159.25005 170.421354 
L 161.63085 160.405052 
L 164.01165 149.050217 
L 166.39245 135.904897 
L 168.77325 120.384216 
L 171.15405 101.996028 
L 173.53485 80.858854 
L 177.10605 47.844655 
L 178.29645 38.34713 
L 179.48685 30.635515 
L 180.67725 25.303799 
L 181.86765 22.796 
L 183.05805 23.325077 
L 184.24845 26.834243 
L 185.43885 33.012388 
L 186.62925 41.357066 
L 187.81965 51.263971 
L 193.77165 105.497775 
L 196.15245 123.560475 
L 197.34285 131.407019 
L 198.53325 138.501587 
L 199.72365 144.901073 
L 200.91405 150.671767 
L 203.29485 160.598716 
L 205.67565 168.789423 
L 208.05645 175.659665 
L 210.43725 181.525053 
L 212.81805 186.615696 
L 215.19885 191.096419 
L 217.57965 195.085221 
L 219.96045 198.66779 
L 222.34125 201.907977 
L 224.72205 204.854965 
L 227.10285 207.547957 
L 230.67405 211.180201 
L 234.24525 214.40043 
L 237.81645 217.278508 
L 241.38765 219.870452 
L 244.95885 222.221278 
L 249.72045 225.042073 
L 254.48205 227.564367 
L 259.24365 229.838262 
L 265.19565 232.388487 
L 271.14765 234.665536 
L 277.09965 236.711185 
L 284.24205 238.905136 
L 291.38445 240.8546 
L 298.52685 242.593203 
L 306.85965 244.391294 
L 315.19245 245.97546 
L 324.71565 247.562549 
L 335.42925 249.108187 
L 347.33325 250.579798 
L 360.42765 251.956577 
L 374.71245 253.227907 
L 391.37805 254.472584 
L 410.42445 255.652523 
L 412.60125 255.773716 
L 412.60125 255.773716 
" style="fill:none;stroke:#d62728;stroke-linecap:square;stroke-width:1.5;"/>
   </g>
   <g id="patch_3">
    <path d="M 43.78125 276.812 
L 43.78125 10.7 
" style="fill:none;stroke:#000000;stroke-linecap:square;stroke-linejoin:miter;stroke-width:0.8;"/>
   </g>
   <g id="patch_4">
    <path d="M 400.90125 276.812 
L 400.90125 10.7 
" style="fill:none;stroke:#000000;stroke-linecap:square;stroke-linejoin:miter;stroke-width:0.8;"/>
   </g>
   <g id="patch_5">
    <path d="M 43.78125 276.812 
L 400.90125 276.812 
" style="fill:none;stroke:#000000;stroke-linecap:square;stroke-linejoin:miter;stroke-width:0.8;"/>
   </g>
   <g id="patch_6">
    <path d="M 43.78125 10.7 
L 400.90125 10.7 
" style="fill:none;stroke:#000000;stroke-linecap:square;stroke-linejoin:miter;stroke-width:0.8;"/>
   </g>
   <g id="legend_1">
    <g id="patch_7">
     <path d="M 313.716875 92.090625 
L 393.90125 92.090625 
Q 395.90125 92.090625 395.90125 90.090625 
L 395.90125 17.7 
Q 395.90125 15.7 393.90125 15.7 
L 313.716875 15.7 
Q 311.716875 15.7 311.716875 17.7 
L 311.716875 90.090625 
Q 311.716875 92.090625 313.716875 92.090625 
z
" style="fill:#ffffff;opacity:0.8;stroke:#cccccc;stroke-linejoin:miter;"/>
    </g>
    <g id="line2d_22">
     <path d="M 315.716875 23.798438 
L 335.716875 23.798438 
" style="fill:none;stroke:#d3d3d3;stroke-linecap:square;stroke-width:5;"/>
    </g>
    <g id="line2d_23"/>
    <g id="text_19">
     <!-- reference -->
     <defs>
      <path d="M 37.109375 75.984375 
L 37.109375 68.5 
L 28.515625 68.5 
Q 23.6875 68.5 21.796875 66.546875 
Q 19.921875 64.59375 19.921875 59.515625 
L 19.921875 54.6875 
L 34.71875 54.6875 
L 34.71875 47.703125 
L 19.921875 47.703125 
L 19.921875 0 
L 10.890625 0 
L 10.890625 47.703125 
L 2.296875 47.703125 
L 2.296875 54.6875 
L 10.890625 54.6875 
L 10.890625 58.5 
Q 10.890625 67.625 15.140625 71.796875 
Q 19.390625 75.984375 28.609375 75.984375 
z
" id="DejaVuSans-66"/>
      <path d="M 54.890625 33.015625 
L 54.890625 0 
L 45.90625 0 
L 45.90625 32.71875 
Q 45.90625 40.484375 42.875 44.328125 
Q 39.84375 48.1875 33.796875 48.1875 
Q 26.515625 48.1875 22.3125 43.546875 
Q 18.109375 38.921875 18.109375 30.90625 
L 18.109375 0 
L 9.078125 0 
L 9.078125 54.6875 
L 18.109375 54.6875 
L 18.109375 46.1875 
Q 21.34375 51.125 25.703125 53.5625 
Q 30.078125 56 35.796875 56 
Q 45.21875 56 50.046875 50.171875 
Q 54.890625 44.34375 54.890625 33.015625 
z
" id="DejaVuSans-6e"/>
     </defs>
     <g transform="translate(343.716875 27.298438)scale(0.1 -0.1)">
      <use xlink:href="#DejaVuSans-72"/>
      <use x="41.082031" xlink:href="#DejaVuSans-65"/>
      <use x="102.605469" xlink:href="#DejaVuSans-66"/>
      <use x="137.810547" xlink:href="#DejaVuSans-65"/>
      <use x="199.333984" xlink:href="#DejaVuSans-72"/>
      <use x="240.416016" xlink:href="#DejaVuSans-65"/>
      <use x="301.939453" xlink:href="#DejaVuSans-6e"/>
      <use x="365.318359" xlink:href="#DejaVuSans-63"/>
      <use x="420.298828" xlink:href="#DejaVuSans-65"/>
     </g>
    </g>
    <g id="line2d_24">
     <path d="M 315.716875 38.476563 
L 335.716875 38.476563 
" style="fill:none;stroke:#1f77b4;stroke-linecap:square;stroke-width:1.5;"/>
    </g>
    <g id="line2d_25"/>
    <g id="text_20">
     <!-- $E_c$ = -300 -->
     <defs>
      <path d="M 16.890625 72.90625 
L 62.984375 72.90625 
L 61.375 64.59375 
L 25.09375 64.59375 
L 20.90625 43.015625 
L 55.71875 43.015625 
L 54.109375 34.71875 
L 19.28125 34.71875 
L 14.203125 8.296875 
L 51.3125 8.296875 
L 49.703125 0 
L 2.6875 0 
z
" id="DejaVuSans-Oblique-45"/>
      <path d="M 53.609375 52.59375 
L 51.8125 43.703125 
Q 48.578125 46.046875 44.9375 47.21875 
Q 41.3125 48.390625 37.40625 48.390625 
Q 33.109375 48.390625 29.21875 46.875 
Q 25.34375 45.359375 22.703125 42.578125 
Q 18.5 38.328125 16.203125 32.609375 
Q 13.921875 26.90625 13.921875 20.796875 
Q 13.921875 13.421875 17.609375 9.8125 
Q 21.296875 6.203125 28.8125 6.203125 
Q 32.515625 6.203125 36.6875 7.328125 
Q 40.875 8.453125 45.40625 10.6875 
L 43.703125 1.8125 
Q 39.796875 0.203125 35.671875 -0.609375 
Q 31.546875 -1.421875 27.203125 -1.421875 
Q 16.3125 -1.421875 10.453125 4.015625 
Q 4.59375 9.46875 4.59375 19.578125 
Q 4.59375 28.078125 7.640625 35.234375 
Q 10.6875 42.390625 16.703125 48.09375 
Q 20.796875 52 26.3125 54 
Q 31.84375 56 38.375 56 
Q 42.1875 56 45.9375 55.140625 
Q 49.703125 54.296875 53.609375 52.59375 
z
" id="DejaVuSans-Oblique-63"/>
      <path d="M 10.59375 45.40625 
L 73.1875 45.40625 
L 73.1875 37.203125 
L 10.59375 37.203125 
z
M 10.59375 25.484375 
L 73.1875 25.484375 
L 73.1875 17.1875 
L 10.59375 17.1875 
z
" id="DejaVuSans-3d"/>
      <path d="M 4.890625 31.390625 
L 31.203125 31.390625 
L 31.203125 23.390625 
L 4.890625 23.390625 
z
" id="DejaVuSans-2d"/>
     </defs>
     <g transform="translate(343.716875 41.976563)scale(0.1 -0.1)">
      <use transform="translate(0 0.78125)" xlink:href="#DejaVuSans-Oblique-45"/>
      <use transform="translate(63.183594 -15.625)scale(0.7)" xlink:href="#DejaVuSans-Oblique-63"/>
      <use transform="translate(104.404297 0.78125)" xlink:href="#DejaVuSans-20"/>
      <use transform="translate(136.191406 0.78125)" xlink:href="#DejaVuSans-3d"/>
      <use transform="translate(219.980469 0.78125)" xlink:href="#DejaVuSans-20"/>
      <use transform="translate(251.767578 0.78125)" xlink:href="#DejaVuSans-2d"/>
      <use transform="translate(287.851562 0.78125)" xlink:href="#DejaVuSans-33"/>
      <use transform="translate(351.474609 0.78125)" xlink:href="#DejaVuSans-30"/>
      <use transform="translate(415.097656 0.78125)" xlink:href="#DejaVuSans-30"/>
     </g>
    </g>
    <g id="line2d_26">
     <path d="M 315.716875 53.154688 
L 335.716875 53.154688 
" style="fill:none;stroke:#ff7f0e;stroke-linecap:square;stroke-width:1.5;"/>
    </g>
    <g id="line2d_27"/>
    <g id="text_21">
     <!-- $E_c$ = -200 -->
     <g transform="translate(343.716875 56.654688)scale(0.1 -0.1)">
      <use transform="translate(0 0.78125)" xlink:href="#DejaVuSans-Oblique-45"/>
      <use transform="translate(63.183594 -15.625)scale(0.7)" xlink:href="#DejaVuSans-Oblique-63"/>
      <use transform="translate(104.404297 0.78125)" xlink:href="#DejaVuSans-20"/>
      <use transform="translate(136.191406 0.78125)" xlink:href="#DejaVuSans-3d"/>
      <use transform="translate(219.980469 0.78125)" xlink:href="#DejaVuSans-20"/>
      <use transform="translate(251.767578 0.78125)" xlink:href="#DejaVuSans-2d"/>
      <use transform="translate(287.851562 0.78125)" xlink:href="#DejaVuSans-32"/>
      <use transform="translate(351.474609 0.78125)" xlink:href="#DejaVuSans-30"/>
      <use transform="translate(415.097656 0.78125)" xlink:href="#DejaVuSans-30"/>
     </g>
    </g>
    <g id="line2d_28">
     <path d="M 315.716875 67.832813 
L 335.716875 67.832813 
" style="fill:none;stroke:#2ca02c;stroke-linecap:square;stroke-width:1.5;"/>
    </g>
    <g id="line2d_29"/>
    <g id="text_22">
     <!-- $E_c$ = -100 -->
     <g transform="translate(343.716875 71.332813)scale(0.1 -0.1)">
      <use transform="translate(0 0.78125)" xlink:href="#DejaVuSans-Oblique-45"/>
      <use transform="translate(63.183594 -15.625)scale(0.7)" xlink:href="#DejaVuSans-Oblique-63"/>
      <use transform="translate(104.404297 0.78125)" xlink:href="#DejaVuSans-20"/>
      <use transform="translate(136.191406 0.78125)" xlink:href="#DejaVuSans-3d"/>
      <use transform="translate(219.980469 0.78125)" xlink:href="#DejaVuSans-20"/>
      <use transform="translate(251.767578 0.78125)" xlink:href="#DejaVuSans-2d"/>
      <use transform="translate(287.851562 0.78125)" xlink:href="#DejaVuSans-31"/>
      <use transform="translate(351.474609 0.78125)" xlink:href="#DejaVuSans-30"/>
      <use transform="translate(415.097656 0.78125)" xlink:href="#DejaVuSans-30"/>
     </g>
    </g>
    <g id="line2d_30">
     <path d="M 315.716875 82.510938 
L 335.716875 82.510938 
" style="fill:none;stroke:#d62728;stroke-linecap:square;stroke-width:1.5;"/>
    </g>
    <g id="line2d_31"/>
    <g id="text_23">
     <!-- $E_c$ = 0 -->
     <g transform="translate(343.716875 86.010938)scale(0.1 -0.1)">
      <use transform="translate(0 0.78125)" xlink:href="#DejaVuSans-Oblique-45"/>
      <use transform="translate(63.183594 -15.625)scale(0.7)" xlink:href="#DejaVuSans-Oblique-63"/>
      <use transform="translate(104.404297 0.78125)" xlink:href="#DejaVuSans-20"/>
      <use transform="translate(136.191406 0.78125)" xlink:href="#DejaVuSans-3d"/>
      <use transform="translate(219.980469 0.78125)" xlink:href="#DejaVuSans-20"/>
      <use transform="translate(251.767578 0.78125)" xlink:href="#DejaVuSans-30"/>
     </g>
    </g>
   </g>
  </g>
 </g>
 <defs>
  <clipPath id="p6b3ec76889">
   <rect height="266.112" width="357.12" x="43.78125" y="10.7"/>
  </clipPath>
 </defs>
</svg>
