<?xml version="1.0" encoding="utf-8" standalone="no"?>
<!DOCTYPE svg PUBLIC "-//W3C//DTD SVG 1.1//EN"
  "http://www.w3.org/Graphics/SVG/1.1/DTD/svg11.dtd">
<svg xmlns:xlink="http://www.w3.org/1999/xlink" width="460.8pt" height="345.6pt" viewBox="0 0 460.8 345.6" xmlns="http://www.w3.org/2000/svg" version="1.1">
 <metadata>
  <rdf:RDF xmlns:dc="http://purl.org/dc/elements/1.1/" xmlns:cc="http://creativecommons.org/ns#" xmlns:rdf="http://www.w3.org/1999/02/22-rdf-syntax-ns#">
   <cc:Work>
    <dc:type rdf:resource="http://purl.org/dc/dcmitype/StillImage"/>
    <dc:date>2023-08-30T17:44:18.406445</dc:date>
    <dc:format>image/svg+xml</dc:format>
    <dc:creator>
     <cc:Agent>
      <dc:title>Matplotlib v3.7.1, https://matplotlib.org/</dc:title>
     </cc:Agent>
    </dc:creator>
   </cc:Work>
  </rdf:RDF>
 </metadata>
 <defs>
  <style type="text/css">*{stroke-linejoin: round; stroke-linecap: butt}</style>
 </defs>
 <g id="figure_1">
  <g id="patch_1">
   <path d="M 0 345.6 
L 460.8 345.6 
L 460.8 0 
L 0 0 
z
" style="fill: #ffffff"/>
  </g>
  <g id="axes_1">
   <g id="patch_2">
    <path d="M 56.09 303.64 
L 442.125 303.64 
L 442.125 10.8 
L 56.09 10.8 
z
" style="fill: #ffffff"/>
   </g>
   <g id="matplotlib.axis_1">
    <g id="xtick_1">
     <g id="line2d_1">
      <defs>
       <path id="m42fe5dfb5f" d="M 0 0 
L 0 3.5 
" style="stroke: #000000; stroke-width: 0.8"/>
      </defs>
      <g>
       <use xlink:href="#m42fe5dfb5f" x="86.566447" y="303.64" style="stroke: #000000; stroke-width: 0.8"/>
      </g>
     </g>
     <g id="text_1">
      <!-- 0.5 -->
      <g transform="translate(78.614885 318.238437) scale(0.1 -0.1)">
       <defs>
        <path id="DejaVuSans-30" d="M 2034 4250 
Q 1547 4250 1301 3770 
Q 1056 3291 1056 2328 
Q 1056 1369 1301 889 
Q 1547 409 2034 409 
Q 2525 409 2770 889 
Q 3016 1369 3016 2328 
Q 3016 3291 2770 3770 
Q 2525 4250 2034 4250 
z
M 2034 4750 
Q 2819 4750 3233 4129 
Q 3647 3509 3647 2328 
Q 3647 1150 3233 529 
Q 2819 -91 2034 -91 
Q 1250 -91 836 529 
Q 422 1150 422 2328 
Q 422 3509 836 4129 
Q 1250 4750 2034 4750 
z
" transform="scale(0.015625)"/>
        <path id="DejaVuSans-2e" d="M 684 794 
L 1344 794 
L 1344 0 
L 684 0 
L 684 794 
z
" transform="scale(0.015625)"/>
        <path id="DejaVuSans-35" d="M 691 4666 
L 3169 4666 
L 3169 4134 
L 1269 4134 
L 1269 2991 
Q 1406 3038 1543 3061 
Q 1681 3084 1819 3084 
Q 2600 3084 3056 2656 
Q 3513 2228 3513 1497 
Q 3513 744 3044 326 
Q 2575 -91 1722 -91 
Q 1428 -91 1123 -41 
Q 819 9 494 109 
L 494 744 
Q 775 591 1075 516 
Q 1375 441 1709 441 
Q 2250 441 2565 725 
Q 2881 1009 2881 1497 
Q 2881 1984 2565 2268 
Q 2250 2553 1709 2553 
Q 1456 2553 1204 2497 
Q 953 2441 691 2322 
L 691 4666 
z
" transform="scale(0.015625)"/>
       </defs>
       <use xlink:href="#DejaVuSans-30"/>
       <use xlink:href="#DejaVuSans-2e" x="63.623047"/>
       <use xlink:href="#DejaVuSans-35" x="95.410156"/>
      </g>
     </g>
    </g>
    <g id="xtick_2">
     <g id="line2d_2">
      <g>
       <use xlink:href="#m42fe5dfb5f" x="137.360526" y="303.64" style="stroke: #000000; stroke-width: 0.8"/>
      </g>
     </g>
     <g id="text_2">
      <!-- 1.0 -->
      <g transform="translate(129.408964 318.238437) scale(0.1 -0.1)">
       <defs>
        <path id="DejaVuSans-31" d="M 794 531 
L 1825 531 
L 1825 4091 
L 703 3866 
L 703 4441 
L 1819 4666 
L 2450 4666 
L 2450 531 
L 3481 531 
L 3481 0 
L 794 0 
L 794 531 
z
" transform="scale(0.015625)"/>
       </defs>
       <use xlink:href="#DejaVuSans-31"/>
       <use xlink:href="#DejaVuSans-2e" x="63.623047"/>
       <use xlink:href="#DejaVuSans-30" x="95.410156"/>
      </g>
     </g>
    </g>
    <g id="xtick_3">
     <g id="line2d_3">
      <g>
       <use xlink:href="#m42fe5dfb5f" x="188.154605" y="303.64" style="stroke: #000000; stroke-width: 0.8"/>
      </g>
     </g>
     <g id="text_3">
      <!-- 1.5 -->
      <g transform="translate(180.203043 318.238437) scale(0.1 -0.1)">
       <use xlink:href="#DejaVuSans-31"/>
       <use xlink:href="#DejaVuSans-2e" x="63.623047"/>
       <use xlink:href="#DejaVuSans-35" x="95.410156"/>
      </g>
     </g>
    </g>
    <g id="xtick_4">
     <g id="line2d_4">
      <g>
       <use xlink:href="#m42fe5dfb5f" x="238.948684" y="303.64" style="stroke: #000000; stroke-width: 0.8"/>
      </g>
     </g>
     <g id="text_4">
      <!-- 2.0 -->
      <g transform="translate(230.997122 318.238437) scale(0.1 -0.1)">
       <defs>
        <path id="DejaVuSans-32" d="M 1228 531 
L 3431 531 
L 3431 0 
L 469 0 
L 469 531 
Q 828 903 1448 1529 
Q 2069 2156 2228 2338 
Q 2531 2678 2651 2914 
Q 2772 3150 2772 3378 
Q 2772 3750 2511 3984 
Q 2250 4219 1831 4219 
Q 1534 4219 1204 4116 
Q 875 4013 500 3803 
L 500 4441 
Q 881 4594 1212 4672 
Q 1544 4750 1819 4750 
Q 2544 4750 2975 4387 
Q 3406 4025 3406 3419 
Q 3406 3131 3298 2873 
Q 3191 2616 2906 2266 
Q 2828 2175 2409 1742 
Q 1991 1309 1228 531 
z
" transform="scale(0.015625)"/>
       </defs>
       <use xlink:href="#DejaVuSans-32"/>
       <use xlink:href="#DejaVuSans-2e" x="63.623047"/>
       <use xlink:href="#DejaVuSans-30" x="95.410156"/>
      </g>
     </g>
    </g>
    <g id="xtick_5">
     <g id="line2d_5">
      <g>
       <use xlink:href="#m42fe5dfb5f" x="289.742763" y="303.64" style="stroke: #000000; stroke-width: 0.8"/>
      </g>
     </g>
     <g id="text_5">
      <!-- 2.5 -->
      <g transform="translate(281.791201 318.238437) scale(0.1 -0.1)">
       <use xlink:href="#DejaVuSans-32"/>
       <use xlink:href="#DejaVuSans-2e" x="63.623047"/>
       <use xlink:href="#DejaVuSans-35" x="95.410156"/>
      </g>
     </g>
    </g>
    <g id="xtick_6">
     <g id="line2d_6">
      <g>
       <use xlink:href="#m42fe5dfb5f" x="340.536842" y="303.64" style="stroke: #000000; stroke-width: 0.8"/>
      </g>
     </g>
     <g id="text_6">
      <!-- 3.0 -->
      <g transform="translate(332.58528 318.238437) scale(0.1 -0.1)">
       <defs>
        <path id="DejaVuSans-33" d="M 2597 2516 
Q 3050 2419 3304 2112 
Q 3559 1806 3559 1356 
Q 3559 666 3084 287 
Q 2609 -91 1734 -91 
Q 1441 -91 1130 -33 
Q 819 25 488 141 
L 488 750 
Q 750 597 1062 519 
Q 1375 441 1716 441 
Q 2309 441 2620 675 
Q 2931 909 2931 1356 
Q 2931 1769 2642 2001 
Q 2353 2234 1838 2234 
L 1294 2234 
L 1294 2753 
L 1863 2753 
Q 2328 2753 2575 2939 
Q 2822 3125 2822 3475 
Q 2822 3834 2567 4026 
Q 2313 4219 1838 4219 
Q 1578 4219 1281 4162 
Q 984 4106 628 3988 
L 628 4550 
Q 988 4650 1302 4700 
Q 1616 4750 1894 4750 
Q 2613 4750 3031 4423 
Q 3450 4097 3450 3541 
Q 3450 3153 3228 2886 
Q 3006 2619 2597 2516 
z
" transform="scale(0.015625)"/>
       </defs>
       <use xlink:href="#DejaVuSans-33"/>
       <use xlink:href="#DejaVuSans-2e" x="63.623047"/>
       <use xlink:href="#DejaVuSans-30" x="95.410156"/>
      </g>
     </g>
    </g>
    <g id="xtick_7">
     <g id="line2d_7">
      <g>
       <use xlink:href="#m42fe5dfb5f" x="391.330921" y="303.64" style="stroke: #000000; stroke-width: 0.8"/>
      </g>
     </g>
     <g id="text_7">
      <!-- 3.5 -->
      <g transform="translate(383.379359 318.238437) scale(0.1 -0.1)">
       <use xlink:href="#DejaVuSans-33"/>
       <use xlink:href="#DejaVuSans-2e" x="63.623047"/>
       <use xlink:href="#DejaVuSans-35" x="95.410156"/>
      </g>
     </g>
    </g>
    <g id="xtick_8">
     <g id="line2d_8">
      <g>
       <use xlink:href="#m42fe5dfb5f" x="442.125" y="303.64" style="stroke: #000000; stroke-width: 0.8"/>
      </g>
     </g>
     <g id="text_8">
      <!-- 4.0 -->
      <g transform="translate(434.173437 318.238437) scale(0.1 -0.1)">
       <defs>
        <path id="DejaVuSans-34" d="M 2419 4116 
L 825 1625 
L 2419 1625 
L 2419 4116 
z
M 2253 4666 
L 3047 4666 
L 3047 1625 
L 3713 1625 
L 3713 1100 
L 3047 1100 
L 3047 0 
L 2419 0 
L 2419 1100 
L 313 1100 
L 313 1709 
L 2253 4666 
z
" transform="scale(0.015625)"/>
       </defs>
       <use xlink:href="#DejaVuSans-34"/>
       <use xlink:href="#DejaVuSans-2e" x="63.623047"/>
       <use xlink:href="#DejaVuSans-30" x="95.410156"/>
      </g>
     </g>
    </g>
    <g id="text_9">
     <!-- Temperature (K) -->
     <g transform="translate(208.668438 331.916562) scale(0.1 -0.1)">
      <defs>
       <path id="DejaVuSans-54" d="M -19 4666 
L 3928 4666 
L 3928 4134 
L 2272 4134 
L 2272 0 
L 1638 0 
L 1638 4134 
L -19 4134 
L -19 4666 
z
" transform="scale(0.015625)"/>
       <path id="DejaVuSans-65" d="M 3597 1894 
L 3597 1613 
L 953 1613 
Q 991 1019 1311 708 
Q 1631 397 2203 397 
Q 2534 397 2845 478 
Q 3156 559 3463 722 
L 3463 178 
Q 3153 47 2828 -22 
Q 2503 -91 2169 -91 
Q 1331 -91 842 396 
Q 353 884 353 1716 
Q 353 2575 817 3079 
Q 1281 3584 2069 3584 
Q 2775 3584 3186 3129 
Q 3597 2675 3597 1894 
z
M 3022 2063 
Q 3016 2534 2758 2815 
Q 2500 3097 2075 3097 
Q 1594 3097 1305 2825 
Q 1016 2553 972 2059 
L 3022 2063 
z
" transform="scale(0.015625)"/>
       <path id="DejaVuSans-6d" d="M 3328 2828 
Q 3544 3216 3844 3400 
Q 4144 3584 4550 3584 
Q 5097 3584 5394 3201 
Q 5691 2819 5691 2113 
L 5691 0 
L 5113 0 
L 5113 2094 
Q 5113 2597 4934 2840 
Q 4756 3084 4391 3084 
Q 3944 3084 3684 2787 
Q 3425 2491 3425 1978 
L 3425 0 
L 2847 0 
L 2847 2094 
Q 2847 2600 2669 2842 
Q 2491 3084 2119 3084 
Q 1678 3084 1418 2786 
Q 1159 2488 1159 1978 
L 1159 0 
L 581 0 
L 581 3500 
L 1159 3500 
L 1159 2956 
Q 1356 3278 1631 3431 
Q 1906 3584 2284 3584 
Q 2666 3584 2933 3390 
Q 3200 3197 3328 2828 
z
" transform="scale(0.015625)"/>
       <path id="DejaVuSans-70" d="M 1159 525 
L 1159 -1331 
L 581 -1331 
L 581 3500 
L 1159 3500 
L 1159 2969 
Q 1341 3281 1617 3432 
Q 1894 3584 2278 3584 
Q 2916 3584 3314 3078 
Q 3713 2572 3713 1747 
Q 3713 922 3314 415 
Q 2916 -91 2278 -91 
Q 1894 -91 1617 61 
Q 1341 213 1159 525 
z
M 3116 1747 
Q 3116 2381 2855 2742 
Q 2594 3103 2138 3103 
Q 1681 3103 1420 2742 
Q 1159 2381 1159 1747 
Q 1159 1113 1420 752 
Q 1681 391 2138 391 
Q 2594 391 2855 752 
Q 3116 1113 3116 1747 
z
" transform="scale(0.015625)"/>
       <path id="DejaVuSans-72" d="M 2631 2963 
Q 2534 3019 2420 3045 
Q 2306 3072 2169 3072 
Q 1681 3072 1420 2755 
Q 1159 2438 1159 1844 
L 1159 0 
L 581 0 
L 581 3500 
L 1159 3500 
L 1159 2956 
Q 1341 3275 1631 3429 
Q 1922 3584 2338 3584 
Q 2397 3584 2469 3576 
Q 2541 3569 2628 3553 
L 2631 2963 
z
" transform="scale(0.015625)"/>
       <path id="DejaVuSans-61" d="M 2194 1759 
Q 1497 1759 1228 1600 
Q 959 1441 959 1056 
Q 959 750 1161 570 
Q 1363 391 1709 391 
Q 2188 391 2477 730 
Q 2766 1069 2766 1631 
L 2766 1759 
L 2194 1759 
z
M 3341 1997 
L 3341 0 
L 2766 0 
L 2766 531 
Q 2569 213 2275 61 
Q 1981 -91 1556 -91 
Q 1019 -91 701 211 
Q 384 513 384 1019 
Q 384 1609 779 1909 
Q 1175 2209 1959 2209 
L 2766 2209 
L 2766 2266 
Q 2766 2663 2505 2880 
Q 2244 3097 1772 3097 
Q 1472 3097 1187 3025 
Q 903 2953 641 2809 
L 641 3341 
Q 956 3463 1253 3523 
Q 1550 3584 1831 3584 
Q 2591 3584 2966 3190 
Q 3341 2797 3341 1997 
z
" transform="scale(0.015625)"/>
       <path id="DejaVuSans-74" d="M 1172 4494 
L 1172 3500 
L 2356 3500 
L 2356 3053 
L 1172 3053 
L 1172 1153 
Q 1172 725 1289 603 
Q 1406 481 1766 481 
L 2356 481 
L 2356 0 
L 1766 0 
Q 1100 0 847 248 
Q 594 497 594 1153 
L 594 3053 
L 172 3053 
L 172 3500 
L 594 3500 
L 594 4494 
L 1172 4494 
z
" transform="scale(0.015625)"/>
       <path id="DejaVuSans-75" d="M 544 1381 
L 544 3500 
L 1119 3500 
L 1119 1403 
Q 1119 906 1312 657 
Q 1506 409 1894 409 
Q 2359 409 2629 706 
Q 2900 1003 2900 1516 
L 2900 3500 
L 3475 3500 
L 3475 0 
L 2900 0 
L 2900 538 
Q 2691 219 2414 64 
Q 2138 -91 1772 -91 
Q 1169 -91 856 284 
Q 544 659 544 1381 
z
M 1991 3584 
L 1991 3584 
z
" transform="scale(0.015625)"/>
       <path id="DejaVuSans-20" transform="scale(0.015625)"/>
       <path id="DejaVuSans-28" d="M 1984 4856 
Q 1566 4138 1362 3434 
Q 1159 2731 1159 2009 
Q 1159 1288 1364 580 
Q 1569 -128 1984 -844 
L 1484 -844 
Q 1016 -109 783 600 
Q 550 1309 550 2009 
Q 550 2706 781 3412 
Q 1013 4119 1484 4856 
L 1984 4856 
z
" transform="scale(0.015625)"/>
       <path id="DejaVuSans-4b" d="M 628 4666 
L 1259 4666 
L 1259 2694 
L 3353 4666 
L 4166 4666 
L 1850 2491 
L 4331 0 
L 3500 0 
L 1259 2247 
L 1259 0 
L 628 0 
L 628 4666 
z
" transform="scale(0.015625)"/>
       <path id="DejaVuSans-29" d="M 513 4856 
L 1013 4856 
Q 1481 4119 1714 3412 
Q 1947 2706 1947 2009 
Q 1947 1309 1714 600 
Q 1481 -109 1013 -844 
L 513 -844 
Q 928 -128 1133 580 
Q 1338 1288 1338 2009 
Q 1338 2731 1133 3434 
Q 928 4138 513 4856 
z
" transform="scale(0.015625)"/>
      </defs>
      <use xlink:href="#DejaVuSans-54"/>
      <use xlink:href="#DejaVuSans-65" x="44.083984"/>
      <use xlink:href="#DejaVuSans-6d" x="105.607422"/>
      <use xlink:href="#DejaVuSans-70" x="203.019531"/>
      <use xlink:href="#DejaVuSans-65" x="266.496094"/>
      <use xlink:href="#DejaVuSans-72" x="328.019531"/>
      <use xlink:href="#DejaVuSans-61" x="369.132812"/>
      <use xlink:href="#DejaVuSans-74" x="430.412109"/>
      <use xlink:href="#DejaVuSans-75" x="469.621094"/>
      <use xlink:href="#DejaVuSans-72" x="533"/>
      <use xlink:href="#DejaVuSans-65" x="571.863281"/>
      <use xlink:href="#DejaVuSans-20" x="633.386719"/>
      <use xlink:href="#DejaVuSans-28" x="665.173828"/>
      <use xlink:href="#DejaVuSans-4b" x="704.1875"/>
      <use xlink:href="#DejaVuSans-29" x="769.763672"/>
     </g>
    </g>
   </g>
   <g id="matplotlib.axis_2">
    <g id="ytick_1">
     <g id="line2d_9">
      <defs>
       <path id="m1ca3b04349" d="M 0 0 
L -3.5 0 
" style="stroke: #000000; stroke-width: 0.8"/>
      </defs>
      <g>
       <use xlink:href="#m1ca3b04349" x="56.09" y="299.735467" style="stroke: #000000; stroke-width: 0.8"/>
      </g>
     </g>
     <g id="text_10">
      <!-- −2.8 -->
      <g transform="translate(24.807188 303.534685) scale(0.1 -0.1)">
       <defs>
        <path id="DejaVuSans-2212" d="M 678 2272 
L 4684 2272 
L 4684 1741 
L 678 1741 
L 678 2272 
z
" transform="scale(0.015625)"/>
        <path id="DejaVuSans-38" d="M 2034 2216 
Q 1584 2216 1326 1975 
Q 1069 1734 1069 1313 
Q 1069 891 1326 650 
Q 1584 409 2034 409 
Q 2484 409 2743 651 
Q 3003 894 3003 1313 
Q 3003 1734 2745 1975 
Q 2488 2216 2034 2216 
z
M 1403 2484 
Q 997 2584 770 2862 
Q 544 3141 544 3541 
Q 544 4100 942 4425 
Q 1341 4750 2034 4750 
Q 2731 4750 3128 4425 
Q 3525 4100 3525 3541 
Q 3525 3141 3298 2862 
Q 3072 2584 2669 2484 
Q 3125 2378 3379 2068 
Q 3634 1759 3634 1313 
Q 3634 634 3220 271 
Q 2806 -91 2034 -91 
Q 1263 -91 848 271 
Q 434 634 434 1313 
Q 434 1759 690 2068 
Q 947 2378 1403 2484 
z
M 1172 3481 
Q 1172 3119 1398 2916 
Q 1625 2713 2034 2713 
Q 2441 2713 2670 2916 
Q 2900 3119 2900 3481 
Q 2900 3844 2670 4047 
Q 2441 4250 2034 4250 
Q 1625 4250 1398 4047 
Q 1172 3844 1172 3481 
z
" transform="scale(0.015625)"/>
       </defs>
       <use xlink:href="#DejaVuSans-2212"/>
       <use xlink:href="#DejaVuSans-32" x="83.789062"/>
       <use xlink:href="#DejaVuSans-2e" x="147.412109"/>
       <use xlink:href="#DejaVuSans-38" x="179.199219"/>
      </g>
     </g>
    </g>
    <g id="ytick_2">
     <g id="line2d_10">
      <g>
       <use xlink:href="#m1ca3b04349" x="56.09" y="237.262933" style="stroke: #000000; stroke-width: 0.8"/>
      </g>
     </g>
     <g id="text_11">
      <!-- −2.6 -->
      <g transform="translate(24.807188 241.062152) scale(0.1 -0.1)">
       <defs>
        <path id="DejaVuSans-36" d="M 2113 2584 
Q 1688 2584 1439 2293 
Q 1191 2003 1191 1497 
Q 1191 994 1439 701 
Q 1688 409 2113 409 
Q 2538 409 2786 701 
Q 3034 994 3034 1497 
Q 3034 2003 2786 2293 
Q 2538 2584 2113 2584 
z
M 3366 4563 
L 3366 3988 
Q 3128 4100 2886 4159 
Q 2644 4219 2406 4219 
Q 1781 4219 1451 3797 
Q 1122 3375 1075 2522 
Q 1259 2794 1537 2939 
Q 1816 3084 2150 3084 
Q 2853 3084 3261 2657 
Q 3669 2231 3669 1497 
Q 3669 778 3244 343 
Q 2819 -91 2113 -91 
Q 1303 -91 875 529 
Q 447 1150 447 2328 
Q 447 3434 972 4092 
Q 1497 4750 2381 4750 
Q 2619 4750 2861 4703 
Q 3103 4656 3366 4563 
z
" transform="scale(0.015625)"/>
       </defs>
       <use xlink:href="#DejaVuSans-2212"/>
       <use xlink:href="#DejaVuSans-32" x="83.789062"/>
       <use xlink:href="#DejaVuSans-2e" x="147.412109"/>
       <use xlink:href="#DejaVuSans-36" x="179.199219"/>
      </g>
     </g>
    </g>
    <g id="ytick_3">
     <g id="line2d_11">
      <g>
       <use xlink:href="#m1ca3b04349" x="56.09" y="174.7904" style="stroke: #000000; stroke-width: 0.8"/>
      </g>
     </g>
     <g id="text_12">
      <!-- −2.4 -->
      <g transform="translate(24.807188 178.589619) scale(0.1 -0.1)">
       <use xlink:href="#DejaVuSans-2212"/>
       <use xlink:href="#DejaVuSans-32" x="83.789062"/>
       <use xlink:href="#DejaVuSans-2e" x="147.412109"/>
       <use xlink:href="#DejaVuSans-34" x="179.199219"/>
      </g>
     </g>
    </g>
    <g id="ytick_4">
     <g id="line2d_12">
      <g>
       <use xlink:href="#m1ca3b04349" x="56.09" y="112.317867" style="stroke: #000000; stroke-width: 0.8"/>
      </g>
     </g>
     <g id="text_13">
      <!-- −2.2 -->
      <g transform="translate(24.807188 116.117085) scale(0.1 -0.1)">
       <use xlink:href="#DejaVuSans-2212"/>
       <use xlink:href="#DejaVuSans-32" x="83.789062"/>
       <use xlink:href="#DejaVuSans-2e" x="147.412109"/>
       <use xlink:href="#DejaVuSans-32" x="179.199219"/>
      </g>
     </g>
    </g>
    <g id="ytick_5">
     <g id="line2d_13">
      <g>
       <use xlink:href="#m1ca3b04349" x="56.09" y="49.845333" style="stroke: #000000; stroke-width: 0.8"/>
      </g>
     </g>
     <g id="text_14">
      <!-- −2.0 -->
      <g transform="translate(24.807188 53.644552) scale(0.1 -0.1)">
       <use xlink:href="#DejaVuSans-2212"/>
       <use xlink:href="#DejaVuSans-32" x="83.789062"/>
       <use xlink:href="#DejaVuSans-2e" x="147.412109"/>
       <use xlink:href="#DejaVuSans-30" x="179.199219"/>
      </g>
     </g>
    </g>
    <g id="text_15">
     <!-- free energy / atoms (eV) -->
     <g transform="translate(18.7275 218.497344) rotate(-90) scale(0.1 -0.1)">
      <defs>
       <path id="DejaVuSans-66" d="M 2375 4863 
L 2375 4384 
L 1825 4384 
Q 1516 4384 1395 4259 
Q 1275 4134 1275 3809 
L 1275 3500 
L 2222 3500 
L 2222 3053 
L 1275 3053 
L 1275 0 
L 697 0 
L 697 3053 
L 147 3053 
L 147 3500 
L 697 3500 
L 697 3744 
Q 697 4328 969 4595 
Q 1241 4863 1831 4863 
L 2375 4863 
z
" transform="scale(0.015625)"/>
       <path id="DejaVuSans-6e" d="M 3513 2113 
L 3513 0 
L 2938 0 
L 2938 2094 
Q 2938 2591 2744 2837 
Q 2550 3084 2163 3084 
Q 1697 3084 1428 2787 
Q 1159 2491 1159 1978 
L 1159 0 
L 581 0 
L 581 3500 
L 1159 3500 
L 1159 2956 
Q 1366 3272 1645 3428 
Q 1925 3584 2291 3584 
Q 2894 3584 3203 3211 
Q 3513 2838 3513 2113 
z
" transform="scale(0.015625)"/>
       <path id="DejaVuSans-67" d="M 2906 1791 
Q 2906 2416 2648 2759 
Q 2391 3103 1925 3103 
Q 1463 3103 1205 2759 
Q 947 2416 947 1791 
Q 947 1169 1205 825 
Q 1463 481 1925 481 
Q 2391 481 2648 825 
Q 2906 1169 2906 1791 
z
M 3481 434 
Q 3481 -459 3084 -895 
Q 2688 -1331 1869 -1331 
Q 1566 -1331 1297 -1286 
Q 1028 -1241 775 -1147 
L 775 -588 
Q 1028 -725 1275 -790 
Q 1522 -856 1778 -856 
Q 2344 -856 2625 -561 
Q 2906 -266 2906 331 
L 2906 616 
Q 2728 306 2450 153 
Q 2172 0 1784 0 
Q 1141 0 747 490 
Q 353 981 353 1791 
Q 353 2603 747 3093 
Q 1141 3584 1784 3584 
Q 2172 3584 2450 3431 
Q 2728 3278 2906 2969 
L 2906 3500 
L 3481 3500 
L 3481 434 
z
" transform="scale(0.015625)"/>
       <path id="DejaVuSans-79" d="M 2059 -325 
Q 1816 -950 1584 -1140 
Q 1353 -1331 966 -1331 
L 506 -1331 
L 506 -850 
L 844 -850 
Q 1081 -850 1212 -737 
Q 1344 -625 1503 -206 
L 1606 56 
L 191 3500 
L 800 3500 
L 1894 763 
L 2988 3500 
L 3597 3500 
L 2059 -325 
z
" transform="scale(0.015625)"/>
       <path id="DejaVuSans-2f" d="M 1625 4666 
L 2156 4666 
L 531 -594 
L 0 -594 
L 1625 4666 
z
" transform="scale(0.015625)"/>
       <path id="DejaVuSans-6f" d="M 1959 3097 
Q 1497 3097 1228 2736 
Q 959 2375 959 1747 
Q 959 1119 1226 758 
Q 1494 397 1959 397 
Q 2419 397 2687 759 
Q 2956 1122 2956 1747 
Q 2956 2369 2687 2733 
Q 2419 3097 1959 3097 
z
M 1959 3584 
Q 2709 3584 3137 3096 
Q 3566 2609 3566 1747 
Q 3566 888 3137 398 
Q 2709 -91 1959 -91 
Q 1206 -91 779 398 
Q 353 888 353 1747 
Q 353 2609 779 3096 
Q 1206 3584 1959 3584 
z
" transform="scale(0.015625)"/>
       <path id="DejaVuSans-73" d="M 2834 3397 
L 2834 2853 
Q 2591 2978 2328 3040 
Q 2066 3103 1784 3103 
Q 1356 3103 1142 2972 
Q 928 2841 928 2578 
Q 928 2378 1081 2264 
Q 1234 2150 1697 2047 
L 1894 2003 
Q 2506 1872 2764 1633 
Q 3022 1394 3022 966 
Q 3022 478 2636 193 
Q 2250 -91 1575 -91 
Q 1294 -91 989 -36 
Q 684 19 347 128 
L 347 722 
Q 666 556 975 473 
Q 1284 391 1588 391 
Q 1994 391 2212 530 
Q 2431 669 2431 922 
Q 2431 1156 2273 1281 
Q 2116 1406 1581 1522 
L 1381 1569 
Q 847 1681 609 1914 
Q 372 2147 372 2553 
Q 372 3047 722 3315 
Q 1072 3584 1716 3584 
Q 2034 3584 2315 3537 
Q 2597 3491 2834 3397 
z
" transform="scale(0.015625)"/>
       <path id="DejaVuSans-56" d="M 1831 0 
L 50 4666 
L 709 4666 
L 2188 738 
L 3669 4666 
L 4325 4666 
L 2547 0 
L 1831 0 
z
" transform="scale(0.015625)"/>
      </defs>
      <use xlink:href="#DejaVuSans-66"/>
      <use xlink:href="#DejaVuSans-72" x="35.205078"/>
      <use xlink:href="#DejaVuSans-65" x="74.068359"/>
      <use xlink:href="#DejaVuSans-65" x="135.591797"/>
      <use xlink:href="#DejaVuSans-20" x="197.115234"/>
      <use xlink:href="#DejaVuSans-65" x="228.902344"/>
      <use xlink:href="#DejaVuSans-6e" x="290.425781"/>
      <use xlink:href="#DejaVuSans-65" x="353.804688"/>
      <use xlink:href="#DejaVuSans-72" x="415.328125"/>
      <use xlink:href="#DejaVuSans-67" x="454.691406"/>
      <use xlink:href="#DejaVuSans-79" x="518.167969"/>
      <use xlink:href="#DejaVuSans-20" x="577.347656"/>
      <use xlink:href="#DejaVuSans-2f" x="609.134766"/>
      <use xlink:href="#DejaVuSans-20" x="642.826172"/>
      <use xlink:href="#DejaVuSans-61" x="674.613281"/>
      <use xlink:href="#DejaVuSans-74" x="735.892578"/>
      <use xlink:href="#DejaVuSans-6f" x="775.101562"/>
      <use xlink:href="#DejaVuSans-6d" x="836.283203"/>
      <use xlink:href="#DejaVuSans-73" x="933.695312"/>
      <use xlink:href="#DejaVuSans-20" x="985.794922"/>
      <use xlink:href="#DejaVuSans-28" x="1017.582031"/>
      <use xlink:href="#DejaVuSans-65" x="1056.595703"/>
      <use xlink:href="#DejaVuSans-56" x="1118.119141"/>
      <use xlink:href="#DejaVuSans-29" x="1186.527344"/>
     </g>
    </g>
   </g>
   <g id="line2d_14">
    <path d="M 56.09 49.845333 
L 442.125 49.845333 
" clip-path="url(#p906cc184d3)" style="fill: none; stroke-dasharray: 5.55,2.4; stroke-dashoffset: 0; stroke: #000000; stroke-width: 1.5"/>
   </g>
   <g id="line2d_15">
    <path d="M 56.09 52.55175 
L 170.857162 67.951042 
L 188.246126 70.528278 
L 200.998033 72.637848 
L 211.431411 74.588401 
L 220.319104 76.472317 
L 228.433954 78.422145 
L 235.775961 80.416724 
L 242.731547 82.543923 
L 249.300711 84.795662 
L 255.483453 87.15568 
L 261.279775 89.600422 
L 267.076096 92.287361 
L 272.872417 95.231847 
L 278.282317 98.224084 
L 283.692217 101.460967 
L 289.102117 104.949171 
L 294.512017 108.693169 
L 299.921917 112.695203 
L 305.718238 117.269462 
L 311.51456 122.137432 
L 317.310881 127.294109 
L 323.493624 133.104698 
L 329.676366 139.224723 
L 336.245531 146.052073 
L 342.814695 153.197569 
L 349.77028 161.090292 
L 357.112287 169.762619 
L 364.840716 179.242155 
L 372.955566 189.55144 
L 381.456837 200.707926 
L 390.730951 213.254268 
L 400.391486 226.696866 
L 410.824865 241.59511 
L 422.031086 257.98462 
L 434.396572 276.476464 
L 442.125 288.225438 
L 442.125 288.225438 
" clip-path="url(#p906cc184d3)" style="fill: none; stroke: #d62728; stroke-width: 2; stroke-linecap: square"/>
   </g>
   <g id="line2d_16">
    <path d="M 442.109767 286.591327 
L 441.228233 285.318426 
L 439.47279 282.586876 
L 438.408521 280.678202 
L 437.71163 279.805611 
L 437.190016 279.097964 
L 436.574724 278.224068 
L 435.285125 276.098856 
L 434.626739 274.982198 
L 433.704303 273.519585 
L 432.862528 272.566061 
L 430.830282 269.247176 
L 429.549845 267.204054 
L 427.310902 263.52339 
L 425.179883 260.92625 
L 423.591759 258.227991 
L 422.522778 256.578991 
L 420.949084 254.867579 
L 419.919592 253.477984 
L 419.131315 252.50224 
L 418.1231 251.189409 
L 417.856812 250.932087 
L 416.234863 248.462666 
L 415.691365 247.676921 
L 415.03175 246.974926 
L 414.286034 245.959549 
L 409.665805 238.602855 
L 409.306909 238.073883 
L 405.856476 233.637888 
L 402.630525 228.835762 
L 401.693803 227.560312 
L 400.760277 226.402981 
L 400.065691 225.41452 
L 399.262185 224.14156 
L 397.538536 221.575491 
L 397.071597 220.888392 
L 395.921436 219.301 
L 394.830596 218.670124 
L 392.743153 215.92973 
L 390.752326 212.608346 
L 388.909393 210.808673 
L 388.284655 210.17775 
L 386.340221 207.27342 
L 383.861303 203.339218 
L 382.520248 201.4453 
L 381.806988 200.809342 
L 381.367047 200.49839 
L 379.306783 197.188013 
L 378.871101 196.589019 
L 376.805358 194.495876 
L 375.867301 193.28809 
L 375.424832 192.630527 
L 374.831874 191.886637 
L 374.227733 190.91028 
L 373.612497 189.969438 
L 373.086347 189.320498 
L 371.328014 187.421887 
L 369.77949 185.185131 
L 369.150451 184.536602 
L 367.419608 181.442104 
L 366.930789 180.830207 
L 366.491679 180.186227 
L 365.931734 179.37278 
L 365.360931 178.657626 
L 364.900401 178.171149 
L 364.561617 177.922786 
L 364.09052 177.56573 
L 363.668513 177.28396 
L 362.035625 175.554912 
L 359.938676 173.599571 
L 359.488308 173.047929 
L 358.071611 171.320836 
L 356.944257 169.484842 
L 356.476094 168.806026 
L 355.927175 168.165918 
L 355.367883 167.466784 
L 354.670617 166.524459 
L 354.218492 165.997049 
L 353.48996 165.041642 
L 353.097717 164.6201 
L 352.706125 164.241104 
L 352.234778 163.692813 
L 351.363557 162.628953 
L 350.872061 162.102607 
L 347.235393 158.487802 
L 346.8423 158.012753 
L 346.270705 156.97344 
L 345.443848 155.580296 
L 344.531068 154.323471 
L 344.031694 153.837997 
L 343.32335 152.755805 
L 339.423027 147.190345 
L 338.577394 146.344102 
L 337.584065 144.839408 
L 335.973927 142.261827 
L 335.279805 141.157217 
L 334.768615 140.598753 
L 332.356505 138.439302 
L 331.3697 138.029724 
L 330.972039 137.797764 
L 328.60121 136.978075 
L 327.90942 136.361876 
L 327.600381 135.997763 
L 326.542707 134.82549 
L 325.02184 133.215579 
L 324.706773 133.012927 
L 324.36175 132.693533 
L 323.572332 131.958143 
L 323.188803 131.654999 
L 321.32149 131.010917 
L 320.782448 130.769694 
L 319.708495 130.351571 
L 318.462474 129.135626 
L 316.6855 128.034805 
L 314.458934 127.304827 
L 312.792713 125.825193 
L 312.361521 125.595469 
L 311.159022 124.569049 
L 310.921276 124.393964 
L 309.954155 123.225278 
L 309.595036 122.784614 
L 309.189435 122.224672 
L 307.481718 120.357122 
L 305.78847 119.053018 
L 304.818119 118.128163 
L 303.669115 117.727037 
L 302.61792 116.703768 
L 301.817316 115.805812 
L 300.126858 115.275795 
L 299.578589 114.673455 
L 299.049769 114.239723 
L 298.058777 113.266325 
L 297.134886 112.383757 
L 295.704562 111.266976 
L 295.309145 110.753825 
L 294.826969 110.289815 
L 292.451618 107.926781 
L 291.502914 107.279298 
L 289.330478 106.677719 
L 285.376601 103.496527 
L 284.886228 103.285769 
L 284.2565 102.642925 
L 283.835139 102.187274 
L 282.962489 101.038611 
L 282.626081 100.677307 
L 282.118554 100.224534 
L 281.95514 99.98261 
L 280.839734 98.374639 
L 280.523474 98.25518 
L 278.798005 97.803723 
L 278.269212 97.577771 
L 277.734018 97.362413 
L 276.272527 96.49946 
L 275.06646 96.155294 
L 274.81526 96.08363 
L 274.282657 95.872456 
L 273.455664 95.191779 
L 272.841875 94.638133 
L 272.160717 94.106565 
L 270.50778 92.843828 
L 270.140919 92.577067 
L 269.607323 92.370517 
L 268.303265 91.40557 
L 267.835646 91.209875 
L 267.309241 90.982607 
L 265.620859 90.572265 
L 264.686889 89.772154 
L 263.875779 89.080991 
L 262.966168 88.30429 
L 262.571606 87.900314 
L 262.010619 87.399796 
L 260.952159 87.111983 
L 260.685002 87.062137 
L 259.384368 86.736348 
L 259.119767 86.687078 
L 258.848465 86.533713 
L 258.271675 86.006992 
L 257.640284 85.43809 
L 256.990202 84.816538 
L 256.560616 84.638587 
L 255.823853 83.99938 
L 255.33456 83.57127 
L 254.749386 83.371066 
L 253.096149 82.080991 
L 252.122039 81.827304 
L 251.664515 81.378244 
L 251.255925 81.105545 
L 250.780585 80.925176 
L 250.326972 80.539963 
L 248.907037 79.294067 
L 248.218607 78.615567 
L 247.918801 78.541306 
L 247.340833 78.351188 
L 246.917049 78.193307 
L 234.816882 76.460614 
L 233.996663 75.929758 
L 232.94039 75.680638 
L 232.694052 75.635871 
L 225.436072 74.573565 
L 223.260212 73.08453 
L 221.566668 72.765288 
L 221.108 72.473011 
L 218.221536 72.011488 
L 217.184088 71.357042 
L 207.200311 70.061449 
L 206.475527 69.620725 
L 203.144824 69.125034 
L 202.629564 68.847067 
L 197.356501 68.136115 
L 196.52696 67.582909 
L 56.09 52.08717 
L 56.09 52.08717 
" clip-path="url(#p906cc184d3)" style="fill: none; stroke: #1f77b4; stroke-width: 2; stroke-linecap: square"/>
   </g>
   <g id="line2d_17">
    <path d="M 442.119616 280.560537 
L 441.408194 279.379645 
L 440.817865 278.605151 
L 439.93994 277.275182 
L 439.644776 276.879113 
L 433.794466 267.732543 
L 432.613809 265.914265 
L 430.49468 263.125941 
L 429.669733 261.994361 
L 429.132383 261.220577 
L 426.990549 257.939176 
L 426.392652 257.298159 
L 423.335051 252.522623 
L 422.850679 251.725227 
L 421.753273 249.793201 
L 419.838488 246.789241 
L 419.278433 245.89837 
L 418.521601 244.774498 
L 417.931272 244.021894 
L 417.431763 243.295556 
L 415.804575 241.008184 
L 415.509411 240.591032 
L 414.956923 239.608862 
L 414.260638 238.49913 
L 411.172764 233.666627 
L 410.885168 233.258928 
L 408.077323 229.1627 
L 407.093441 228.126971 
L 406.813413 227.803157 
L 406.382019 227.318653 
L 405.572209 226.278112 
L 403.86177 224.214338 
L 402.423789 222.066784 
L 401.87887 221.366241 
L 400.940399 219.990795 
L 400.077611 218.920164 
L 398.427717 216.171669 
L 397.496814 215.197585 
L 396.989737 214.62023 
L 396.34643 213.747024 
L 395.271729 211.980489 
L 392.350358 207.942424 
L 389.860382 204.182465 
L 389.043003 203.368954 
L 388.740271 202.998566 
L 387.756389 201.46107 
L 387.340132 200.916242 
L 386.091359 199.38415 
L 385.659965 198.960439 
L 384.002504 196.78521 
L 383.139715 195.52618 
L 381.974195 194.01746 
L 379.908044 191.252891 
L 379.098234 190.104022 
L 377.039651 187.349122 
L 375.616808 185.635673 
L 374.269647 183.82616 
L 374.088007 183.487115 
L 373.641477 182.7788 
L 371.938605 180.066359 
L 370.826062 178.488821 
L 370.485488 178.208973 
L 369.872454 177.463379 
L 369.372945 176.658429 
L 368.873437 176.127812 
L 367.382478 173.854909 
L 366.875401 173.343172 
L 366.580236 172.952768 
L 365.603923 171.483784 
L 363.931325 169.650632 
L 363.537772 169.391622 
L 362.96258 168.805297 
L 362.493345 168.100452 
L 360.079051 164.735813 
L 359.746045 164.361413 
L 358.951372 163.657365 
L 358.527546 163.069581 
L 357.922081 162.196398 
L 357.256069 161.84836 
L 355.575902 159.809044 
L 355.04612 159.513572 
L 353.33568 157.621918 
L 352.472892 156.332728 
L 351.171141 154.6424 
L 350.527834 153.877581 
L 350.073735 153.322976 
L 349.702888 152.928694 
L 348.734143 151.607764 
L 347.144796 150.346847 
L 346.683129 150.082427 
L 345.593291 148.896276 
L 345.086214 148.195451 
L 344.087196 147.768586 
L 343.171429 146.471837 
L 342.611374 145.626152 
L 341.0523 143.261693 
L 339.296451 142.611009 
L 338.675849 141.99943 
L 337.404371 140.989875 
L 335.981528 138.926301 
L 334.08188 136.588305 
L 332.401713 134.31422 
L 331.51622 133.32854 
L 330.683705 132.152338 
L 330.320426 131.741887 
L 329.465206 130.909114 
L 327.580695 129.048051 
L 326.88441 128.44643 
L 326.369764 127.996405 
L 325.961075 127.589469 
L 324.515526 125.667186 
L 324.068995 125.037206 
L 323.319732 124.209788 
L 322.767245 123.953353 
L 322.290441 123.504263 
L 321.66227 122.99158 
L 321.0341 122.706448 
L 319.959399 122.318199 
L 319.331228 121.914336 
L 318.983086 121.717396 
L 318.400325 121.216353 
L 318.052183 120.85135 
L 317.408876 120.395403 
L 316.788274 119.851075 
L 316.349311 119.537871 
L 314.336139 118.928087 
L 314.086384 118.519215 
L 313.730673 118.033914 
L 313.132776 117.413471 
L 312.088348 116.035096 
L 310.673073 115.587555 
L 309.621077 114.465746 
L 308.61449 113.927936 
L 304.686534 112.892513 
L 304.368664 112.737271 
L 302.605246 112.213699 
L 301.674343 111.015475 
L 301.250517 110.537412 
L 299.97904 109.817099 
L 299.683876 109.637667 
L 298.215622 108.784946 
L 297.882616 108.599754 
L 296.368952 106.741663 
L 295.816465 106.150654 
L 295.422913 105.996189 
L 294.325507 105.647539 
L 291.843098 104.120214 
L 289.670991 103.548785 
L 289.201755 103.10036 
L 288.285989 102.356495 
L 287.884868 102.218724 
L 286.923692 101.906202 
L 285.932242 100.941556 
L 285.652214 100.601514 
L 285.258662 100.206331 
L 284.335327 98.984729 
L 283.96448 98.250923 
L 283.116828 96.85957 
L 282.70057 96.495663 
L 273.505064 94.648346 
L 270.992383 92.808455 
L 269.74361 91.026886 
L 268.411587 90.258536 
L 263.643546 89.322967 
L 263.249994 89.023347 
L 262.689938 88.728997 
L 262.152588 88.528015 
L 261.615237 88.289532 
L 259.299332 87.785004 
L 258.784686 87.562306 
L 254.031783 86.649508 
L 253.72905 86.525415 
L 249.54377 85.711277 
L 249.286448 85.661891 
L 239.477908 83.906972 
L 239.19788 83.561988 
L 238.834601 83.212846 
L 222.721652 80.45348 
L 222.441624 80.092244 
L 221.132305 78.422897 
L 219.5808 78.072026 
L 219.020745 77.564941 
L 218.566646 77.344039 
L 215.728527 76.806332 
L 214.18459 75.710659 
L 209.128953 74.867872 
L 208.795948 74.735528 
L 198.540877 73.148744 
L 198.215439 73.012395 
L 56.09 52.742977 
L 56.09 52.742977 
" clip-path="url(#p906cc184d3)" style="fill: none; stroke: #7f7f7f; stroke-width: 2; stroke-linecap: square"/>
   </g>
   <g id="patch_3">
    <path d="M 56.09 303.64 
L 56.09 10.8 
" style="fill: none; stroke: #000000; stroke-width: 0.8; stroke-linejoin: miter; stroke-linecap: square"/>
   </g>
   <g id="patch_4">
    <path d="M 442.125 303.64 
L 442.125 10.8 
" style="fill: none; stroke: #000000; stroke-width: 0.8; stroke-linejoin: miter; stroke-linecap: square"/>
   </g>
   <g id="patch_5">
    <path d="M 56.09 303.64 
L 442.125 303.64 
" style="fill: none; stroke: #000000; stroke-width: 0.8; stroke-linejoin: miter; stroke-linecap: square"/>
   </g>
   <g id="patch_6">
    <path d="M 56.09 10.8 
L 442.125 10.8 
" style="fill: none; stroke: #000000; stroke-width: 0.8; stroke-linejoin: miter; stroke-linecap: square"/>
   </g>
   <g id="legend_1">
    <g id="patch_7">
     <path d="M 63.09 298.64 
L 232.155625 298.64 
Q 234.155625 298.64 234.155625 296.64 
L 234.155625 238.9275 
Q 234.155625 236.9275 232.155625 236.9275 
L 63.09 236.9275 
Q 61.09 236.9275 61.09 238.9275 
L 61.09 296.64 
Q 61.09 298.64 63.09 298.64 
z
" style="fill: #ffffff; opacity: 0.8; stroke: #cccccc; stroke-linejoin: miter"/>
    </g>
    <g id="line2d_18">
     <path d="M 65.09 245.025937 
L 75.09 245.025937 
L 85.09 245.025937 
" style="fill: none; stroke-dasharray: 5.55,2.4; stroke-dashoffset: 0; stroke: #000000; stroke-width: 1.5"/>
    </g>
    <g id="text_16">
     <!-- Ground state energy -->
     <g transform="translate(93.09 248.525937) scale(0.1 -0.1)">
      <defs>
       <path id="DejaVuSans-47" d="M 3809 666 
L 3809 1919 
L 2778 1919 
L 2778 2438 
L 4434 2438 
L 4434 434 
Q 4069 175 3628 42 
Q 3188 -91 2688 -91 
Q 1594 -91 976 548 
Q 359 1188 359 2328 
Q 359 3472 976 4111 
Q 1594 4750 2688 4750 
Q 3144 4750 3555 4637 
Q 3966 4525 4313 4306 
L 4313 3634 
Q 3963 3931 3569 4081 
Q 3175 4231 2741 4231 
Q 1884 4231 1454 3753 
Q 1025 3275 1025 2328 
Q 1025 1384 1454 906 
Q 1884 428 2741 428 
Q 3075 428 3337 486 
Q 3600 544 3809 666 
z
" transform="scale(0.015625)"/>
       <path id="DejaVuSans-64" d="M 2906 2969 
L 2906 4863 
L 3481 4863 
L 3481 0 
L 2906 0 
L 2906 525 
Q 2725 213 2448 61 
Q 2172 -91 1784 -91 
Q 1150 -91 751 415 
Q 353 922 353 1747 
Q 353 2572 751 3078 
Q 1150 3584 1784 3584 
Q 2172 3584 2448 3432 
Q 2725 3281 2906 2969 
z
M 947 1747 
Q 947 1113 1208 752 
Q 1469 391 1925 391 
Q 2381 391 2643 752 
Q 2906 1113 2906 1747 
Q 2906 2381 2643 2742 
Q 2381 3103 1925 3103 
Q 1469 3103 1208 2742 
Q 947 2381 947 1747 
z
" transform="scale(0.015625)"/>
      </defs>
      <use xlink:href="#DejaVuSans-47"/>
      <use xlink:href="#DejaVuSans-72" x="77.490234"/>
      <use xlink:href="#DejaVuSans-6f" x="116.353516"/>
      <use xlink:href="#DejaVuSans-75" x="177.535156"/>
      <use xlink:href="#DejaVuSans-6e" x="240.914062"/>
      <use xlink:href="#DejaVuSans-64" x="304.292969"/>
      <use xlink:href="#DejaVuSans-20" x="367.769531"/>
      <use xlink:href="#DejaVuSans-73" x="399.556641"/>
      <use xlink:href="#DejaVuSans-74" x="451.65625"/>
      <use xlink:href="#DejaVuSans-61" x="490.865234"/>
      <use xlink:href="#DejaVuSans-74" x="552.144531"/>
      <use xlink:href="#DejaVuSans-65" x="591.353516"/>
      <use xlink:href="#DejaVuSans-20" x="652.876953"/>
      <use xlink:href="#DejaVuSans-65" x="684.664062"/>
      <use xlink:href="#DejaVuSans-6e" x="746.1875"/>
      <use xlink:href="#DejaVuSans-65" x="809.566406"/>
      <use xlink:href="#DejaVuSans-72" x="871.089844"/>
      <use xlink:href="#DejaVuSans-67" x="910.453125"/>
      <use xlink:href="#DejaVuSans-79" x="973.929688"/>
     </g>
    </g>
    <g id="line2d_19">
     <path d="M 65.09 259.704062 
L 75.09 259.704062 
L 85.09 259.704062 
" style="fill: none; stroke: #d62728; stroke-width: 2; stroke-linecap: square"/>
    </g>
    <g id="text_17">
     <!-- enumeration -->
     <g transform="translate(93.09 263.204062) scale(0.1 -0.1)">
      <defs>
       <path id="DejaVuSans-69" d="M 603 3500 
L 1178 3500 
L 1178 0 
L 603 0 
L 603 3500 
z
M 603 4863 
L 1178 4863 
L 1178 4134 
L 603 4134 
L 603 4863 
z
" transform="scale(0.015625)"/>
      </defs>
      <use xlink:href="#DejaVuSans-65"/>
      <use xlink:href="#DejaVuSans-6e" x="61.523438"/>
      <use xlink:href="#DejaVuSans-75" x="124.902344"/>
      <use xlink:href="#DejaVuSans-6d" x="188.28125"/>
      <use xlink:href="#DejaVuSans-65" x="285.693359"/>
      <use xlink:href="#DejaVuSans-72" x="347.216797"/>
      <use xlink:href="#DejaVuSans-61" x="388.330078"/>
      <use xlink:href="#DejaVuSans-74" x="449.609375"/>
      <use xlink:href="#DejaVuSans-69" x="488.818359"/>
      <use xlink:href="#DejaVuSans-6f" x="516.601562"/>
      <use xlink:href="#DejaVuSans-6e" x="577.783203"/>
     </g>
    </g>
    <g id="line2d_20">
     <path d="M 65.09 274.382187 
L 75.09 274.382187 
L 85.09 274.382187 
" style="fill: none; stroke: #1f77b4; stroke-width: 2; stroke-linecap: square"/>
    </g>
    <g id="text_18">
     <!-- thermodynamic integration -->
     <g transform="translate(93.09 277.882187) scale(0.1 -0.1)">
      <defs>
       <path id="DejaVuSans-68" d="M 3513 2113 
L 3513 0 
L 2938 0 
L 2938 2094 
Q 2938 2591 2744 2837 
Q 2550 3084 2163 3084 
Q 1697 3084 1428 2787 
Q 1159 2491 1159 1978 
L 1159 0 
L 581 0 
L 581 4863 
L 1159 4863 
L 1159 2956 
Q 1366 3272 1645 3428 
Q 1925 3584 2291 3584 
Q 2894 3584 3203 3211 
Q 3513 2838 3513 2113 
z
" transform="scale(0.015625)"/>
       <path id="DejaVuSans-63" d="M 3122 3366 
L 3122 2828 
Q 2878 2963 2633 3030 
Q 2388 3097 2138 3097 
Q 1578 3097 1268 2742 
Q 959 2388 959 1747 
Q 959 1106 1268 751 
Q 1578 397 2138 397 
Q 2388 397 2633 464 
Q 2878 531 3122 666 
L 3122 134 
Q 2881 22 2623 -34 
Q 2366 -91 2075 -91 
Q 1284 -91 818 406 
Q 353 903 353 1747 
Q 353 2603 823 3093 
Q 1294 3584 2113 3584 
Q 2378 3584 2631 3529 
Q 2884 3475 3122 3366 
z
" transform="scale(0.015625)"/>
      </defs>
      <use xlink:href="#DejaVuSans-74"/>
      <use xlink:href="#DejaVuSans-68" x="39.208984"/>
      <use xlink:href="#DejaVuSans-65" x="102.587891"/>
      <use xlink:href="#DejaVuSans-72" x="164.111328"/>
      <use xlink:href="#DejaVuSans-6d" x="203.474609"/>
      <use xlink:href="#DejaVuSans-6f" x="300.886719"/>
      <use xlink:href="#DejaVuSans-64" x="362.068359"/>
      <use xlink:href="#DejaVuSans-79" x="425.544922"/>
      <use xlink:href="#DejaVuSans-6e" x="484.724609"/>
      <use xlink:href="#DejaVuSans-61" x="548.103516"/>
      <use xlink:href="#DejaVuSans-6d" x="609.382812"/>
      <use xlink:href="#DejaVuSans-69" x="706.794922"/>
      <use xlink:href="#DejaVuSans-63" x="734.578125"/>
      <use xlink:href="#DejaVuSans-20" x="789.558594"/>
      <use xlink:href="#DejaVuSans-69" x="821.345703"/>
      <use xlink:href="#DejaVuSans-6e" x="849.128906"/>
      <use xlink:href="#DejaVuSans-74" x="912.507812"/>
      <use xlink:href="#DejaVuSans-65" x="951.716797"/>
      <use xlink:href="#DejaVuSans-67" x="1013.240234"/>
      <use xlink:href="#DejaVuSans-72" x="1076.716797"/>
      <use xlink:href="#DejaVuSans-61" x="1117.830078"/>
      <use xlink:href="#DejaVuSans-74" x="1179.109375"/>
      <use xlink:href="#DejaVuSans-69" x="1218.318359"/>
      <use xlink:href="#DejaVuSans-6f" x="1246.101562"/>
      <use xlink:href="#DejaVuSans-6e" x="1307.283203"/>
     </g>
    </g>
    <g id="line2d_21">
     <path d="M 65.09 289.060312 
L 75.09 289.060312 
L 85.09 289.060312 
" style="fill: none; stroke: #7f7f7f; stroke-width: 2; stroke-linecap: square"/>
    </g>
    <g id="text_19">
     <!-- temperature integration -->
     <g transform="translate(93.09 292.560312) scale(0.1 -0.1)">
      <use xlink:href="#DejaVuSans-74"/>
      <use xlink:href="#DejaVuSans-65" x="39.208984"/>
      <use xlink:href="#DejaVuSans-6d" x="100.732422"/>
      <use xlink:href="#DejaVuSans-70" x="198.144531"/>
      <use xlink:href="#DejaVuSans-65" x="261.621094"/>
      <use xlink:href="#DejaVuSans-72" x="323.144531"/>
      <use xlink:href="#DejaVuSans-61" x="364.257812"/>
      <use xlink:href="#DejaVuSans-74" x="425.537109"/>
      <use xlink:href="#DejaVuSans-75" x="464.746094"/>
      <use xlink:href="#DejaVuSans-72" x="528.125"/>
      <use xlink:href="#DejaVuSans-65" x="566.988281"/>
      <use xlink:href="#DejaVuSans-20" x="628.511719"/>
      <use xlink:href="#DejaVuSans-69" x="660.298828"/>
      <use xlink:href="#DejaVuSans-6e" x="688.082031"/>
      <use xlink:href="#DejaVuSans-74" x="751.460938"/>
      <use xlink:href="#DejaVuSans-65" x="790.669922"/>
      <use xlink:href="#DejaVuSans-67" x="852.193359"/>
      <use xlink:href="#DejaVuSans-72" x="915.669922"/>
      <use xlink:href="#DejaVuSans-61" x="956.783203"/>
      <use xlink:href="#DejaVuSans-74" x="1018.0625"/>
      <use xlink:href="#DejaVuSans-69" x="1057.271484"/>
      <use xlink:href="#DejaVuSans-6f" x="1085.054688"/>
      <use xlink:href="#DejaVuSans-6e" x="1146.236328"/>
     </g>
    </g>
   </g>
  </g>
 </g>
 <defs>
  <clipPath id="p906cc184d3">
   <rect x="56.09" y="10.8" width="386.035" height="292.84"/>
  </clipPath>
 </defs>
</svg>
