<?xml version="1.0" encoding="utf-8" standalone="no"?>
<!DOCTYPE svg PUBLIC "-//W3C//DTD SVG 1.1//EN"
  "http://www.w3.org/Graphics/SVG/1.1/DTD/svg11.dtd">
<svg xmlns:xlink="http://www.w3.org/1999/xlink" width="460.8pt" height="345.6pt" viewBox="0 0 460.8 345.6" xmlns="http://www.w3.org/2000/svg" version="1.1">
 <metadata>
  <rdf:RDF xmlns:dc="http://purl.org/dc/elements/1.1/" xmlns:cc="http://creativecommons.org/ns#" xmlns:rdf="http://www.w3.org/1999/02/22-rdf-syntax-ns#">
   <cc:Work>
    <dc:type rdf:resource="http://purl.org/dc/dcmitype/StillImage"/>
    <dc:date>2023-08-30T17:44:18.223934</dc:date>
    <dc:format>image/svg+xml</dc:format>
    <dc:creator>
     <cc:Agent>
      <dc:title>Matplotlib v3.7.1, https://matplotlib.org/</dc:title>
     </cc:Agent>
    </dc:creator>
   </cc:Work>
  </rdf:RDF>
 </metadata>
 <defs>
  <style type="text/css">*{stroke-linejoin: round; stroke-linecap: butt}</style>
 </defs>
 <g id="figure_1">
  <g id="patch_1">
   <path d="M 0 345.6 
L 460.8 345.6 
L 460.8 0 
L 0 0 
z
" style="fill: #ffffff"/>
  </g>
  <g id="axes_1">
   <g id="patch_2">
    <path d="M 56.09 303.64 
L 442.125 303.64 
L 442.125 10.8 
L 56.09 10.8 
z
" style="fill: #ffffff"/>
   </g>
   <g id="matplotlib.axis_1">
    <g id="xtick_1">
     <g id="line2d_1">
      <defs>
       <path id="mcb56665bb2" d="M 0 0 
L 0 3.5 
" style="stroke: #000000; stroke-width: 0.8"/>
      </defs>
      <g>
       <use xlink:href="#mcb56665bb2" x="86.566447" y="303.64" style="stroke: #000000; stroke-width: 0.8"/>
      </g>
     </g>
     <g id="text_1">
      <!-- 0.5 -->
      <g transform="translate(78.614885 318.238437) scale(0.1 -0.1)">
       <defs>
        <path id="DejaVuSans-30" d="M 2034 4250 
Q 1547 4250 1301 3770 
Q 1056 3291 1056 2328 
Q 1056 1369 1301 889 
Q 1547 409 2034 409 
Q 2525 409 2770 889 
Q 3016 1369 3016 2328 
Q 3016 3291 2770 3770 
Q 2525 4250 2034 4250 
z
M 2034 4750 
Q 2819 4750 3233 4129 
Q 3647 3509 3647 2328 
Q 3647 1150 3233 529 
Q 2819 -91 2034 -91 
Q 1250 -91 836 529 
Q 422 1150 422 2328 
Q 422 3509 836 4129 
Q 1250 4750 2034 4750 
z
" transform="scale(0.015625)"/>
        <path id="DejaVuSans-2e" d="M 684 794 
L 1344 794 
L 1344 0 
L 684 0 
L 684 794 
z
" transform="scale(0.015625)"/>
        <path id="DejaVuSans-35" d="M 691 4666 
L 3169 4666 
L 3169 4134 
L 1269 4134 
L 1269 2991 
Q 1406 3038 1543 3061 
Q 1681 3084 1819 3084 
Q 2600 3084 3056 2656 
Q 3513 2228 3513 1497 
Q 3513 744 3044 326 
Q 2575 -91 1722 -91 
Q 1428 -91 1123 -41 
Q 819 9 494 109 
L 494 744 
Q 775 591 1075 516 
Q 1375 441 1709 441 
Q 2250 441 2565 725 
Q 2881 1009 2881 1497 
Q 2881 1984 2565 2268 
Q 2250 2553 1709 2553 
Q 1456 2553 1204 2497 
Q 953 2441 691 2322 
L 691 4666 
z
" transform="scale(0.015625)"/>
       </defs>
       <use xlink:href="#DejaVuSans-30"/>
       <use xlink:href="#DejaVuSans-2e" x="63.623047"/>
       <use xlink:href="#DejaVuSans-35" x="95.410156"/>
      </g>
     </g>
    </g>
    <g id="xtick_2">
     <g id="line2d_2">
      <g>
       <use xlink:href="#mcb56665bb2" x="137.360526" y="303.64" style="stroke: #000000; stroke-width: 0.8"/>
      </g>
     </g>
     <g id="text_2">
      <!-- 1.0 -->
      <g transform="translate(129.408964 318.238437) scale(0.1 -0.1)">
       <defs>
        <path id="DejaVuSans-31" d="M 794 531 
L 1825 531 
L 1825 4091 
L 703 3866 
L 703 4441 
L 1819 4666 
L 2450 4666 
L 2450 531 
L 3481 531 
L 3481 0 
L 794 0 
L 794 531 
z
" transform="scale(0.015625)"/>
       </defs>
       <use xlink:href="#DejaVuSans-31"/>
       <use xlink:href="#DejaVuSans-2e" x="63.623047"/>
       <use xlink:href="#DejaVuSans-30" x="95.410156"/>
      </g>
     </g>
    </g>
    <g id="xtick_3">
     <g id="line2d_3">
      <g>
       <use xlink:href="#mcb56665bb2" x="188.154605" y="303.64" style="stroke: #000000; stroke-width: 0.8"/>
      </g>
     </g>
     <g id="text_3">
      <!-- 1.5 -->
      <g transform="translate(180.203043 318.238437) scale(0.1 -0.1)">
       <use xlink:href="#DejaVuSans-31"/>
       <use xlink:href="#DejaVuSans-2e" x="63.623047"/>
       <use xlink:href="#DejaVuSans-35" x="95.410156"/>
      </g>
     </g>
    </g>
    <g id="xtick_4">
     <g id="line2d_4">
      <g>
       <use xlink:href="#mcb56665bb2" x="238.948684" y="303.64" style="stroke: #000000; stroke-width: 0.8"/>
      </g>
     </g>
     <g id="text_4">
      <!-- 2.0 -->
      <g transform="translate(230.997122 318.238437) scale(0.1 -0.1)">
       <defs>
        <path id="DejaVuSans-32" d="M 1228 531 
L 3431 531 
L 3431 0 
L 469 0 
L 469 531 
Q 828 903 1448 1529 
Q 2069 2156 2228 2338 
Q 2531 2678 2651 2914 
Q 2772 3150 2772 3378 
Q 2772 3750 2511 3984 
Q 2250 4219 1831 4219 
Q 1534 4219 1204 4116 
Q 875 4013 500 3803 
L 500 4441 
Q 881 4594 1212 4672 
Q 1544 4750 1819 4750 
Q 2544 4750 2975 4387 
Q 3406 4025 3406 3419 
Q 3406 3131 3298 2873 
Q 3191 2616 2906 2266 
Q 2828 2175 2409 1742 
Q 1991 1309 1228 531 
z
" transform="scale(0.015625)"/>
       </defs>
       <use xlink:href="#DejaVuSans-32"/>
       <use xlink:href="#DejaVuSans-2e" x="63.623047"/>
       <use xlink:href="#DejaVuSans-30" x="95.410156"/>
      </g>
     </g>
    </g>
    <g id="xtick_5">
     <g id="line2d_5">
      <g>
       <use xlink:href="#mcb56665bb2" x="289.742763" y="303.64" style="stroke: #000000; stroke-width: 0.8"/>
      </g>
     </g>
     <g id="text_5">
      <!-- 2.5 -->
      <g transform="translate(281.791201 318.238437) scale(0.1 -0.1)">
       <use xlink:href="#DejaVuSans-32"/>
       <use xlink:href="#DejaVuSans-2e" x="63.623047"/>
       <use xlink:href="#DejaVuSans-35" x="95.410156"/>
      </g>
     </g>
    </g>
    <g id="xtick_6">
     <g id="line2d_6">
      <g>
       <use xlink:href="#mcb56665bb2" x="340.536842" y="303.64" style="stroke: #000000; stroke-width: 0.8"/>
      </g>
     </g>
     <g id="text_6">
      <!-- 3.0 -->
      <g transform="translate(332.58528 318.238437) scale(0.1 -0.1)">
       <defs>
        <path id="DejaVuSans-33" d="M 2597 2516 
Q 3050 2419 3304 2112 
Q 3559 1806 3559 1356 
Q 3559 666 3084 287 
Q 2609 -91 1734 -91 
Q 1441 -91 1130 -33 
Q 819 25 488 141 
L 488 750 
Q 750 597 1062 519 
Q 1375 441 1716 441 
Q 2309 441 2620 675 
Q 2931 909 2931 1356 
Q 2931 1769 2642 2001 
Q 2353 2234 1838 2234 
L 1294 2234 
L 1294 2753 
L 1863 2753 
Q 2328 2753 2575 2939 
Q 2822 3125 2822 3475 
Q 2822 3834 2567 4026 
Q 2313 4219 1838 4219 
Q 1578 4219 1281 4162 
Q 984 4106 628 3988 
L 628 4550 
Q 988 4650 1302 4700 
Q 1616 4750 1894 4750 
Q 2613 4750 3031 4423 
Q 3450 4097 3450 3541 
Q 3450 3153 3228 2886 
Q 3006 2619 2597 2516 
z
" transform="scale(0.015625)"/>
       </defs>
       <use xlink:href="#DejaVuSans-33"/>
       <use xlink:href="#DejaVuSans-2e" x="63.623047"/>
       <use xlink:href="#DejaVuSans-30" x="95.410156"/>
      </g>
     </g>
    </g>
    <g id="xtick_7">
     <g id="line2d_7">
      <g>
       <use xlink:href="#mcb56665bb2" x="391.330921" y="303.64" style="stroke: #000000; stroke-width: 0.8"/>
      </g>
     </g>
     <g id="text_7">
      <!-- 3.5 -->
      <g transform="translate(383.379359 318.238437) scale(0.1 -0.1)">
       <use xlink:href="#DejaVuSans-33"/>
       <use xlink:href="#DejaVuSans-2e" x="63.623047"/>
       <use xlink:href="#DejaVuSans-35" x="95.410156"/>
      </g>
     </g>
    </g>
    <g id="xtick_8">
     <g id="line2d_8">
      <g>
       <use xlink:href="#mcb56665bb2" x="442.125" y="303.64" style="stroke: #000000; stroke-width: 0.8"/>
      </g>
     </g>
     <g id="text_8">
      <!-- 4.0 -->
      <g transform="translate(434.173437 318.238437) scale(0.1 -0.1)">
       <defs>
        <path id="DejaVuSans-34" d="M 2419 4116 
L 825 1625 
L 2419 1625 
L 2419 4116 
z
M 2253 4666 
L 3047 4666 
L 3047 1625 
L 3713 1625 
L 3713 1100 
L 3047 1100 
L 3047 0 
L 2419 0 
L 2419 1100 
L 313 1100 
L 313 1709 
L 2253 4666 
z
" transform="scale(0.015625)"/>
       </defs>
       <use xlink:href="#DejaVuSans-34"/>
       <use xlink:href="#DejaVuSans-2e" x="63.623047"/>
       <use xlink:href="#DejaVuSans-30" x="95.410156"/>
      </g>
     </g>
    </g>
    <g id="text_9">
     <!-- Temperature (K) -->
     <g transform="translate(208.668438 331.916562) scale(0.1 -0.1)">
      <defs>
       <path id="DejaVuSans-54" d="M -19 4666 
L 3928 4666 
L 3928 4134 
L 2272 4134 
L 2272 0 
L 1638 0 
L 1638 4134 
L -19 4134 
L -19 4666 
z
" transform="scale(0.015625)"/>
       <path id="DejaVuSans-65" d="M 3597 1894 
L 3597 1613 
L 953 1613 
Q 991 1019 1311 708 
Q 1631 397 2203 397 
Q 2534 397 2845 478 
Q 3156 559 3463 722 
L 3463 178 
Q 3153 47 2828 -22 
Q 2503 -91 2169 -91 
Q 1331 -91 842 396 
Q 353 884 353 1716 
Q 353 2575 817 3079 
Q 1281 3584 2069 3584 
Q 2775 3584 3186 3129 
Q 3597 2675 3597 1894 
z
M 3022 2063 
Q 3016 2534 2758 2815 
Q 2500 3097 2075 3097 
Q 1594 3097 1305 2825 
Q 1016 2553 972 2059 
L 3022 2063 
z
" transform="scale(0.015625)"/>
       <path id="DejaVuSans-6d" d="M 3328 2828 
Q 3544 3216 3844 3400 
Q 4144 3584 4550 3584 
Q 5097 3584 5394 3201 
Q 5691 2819 5691 2113 
L 5691 0 
L 5113 0 
L 5113 2094 
Q 5113 2597 4934 2840 
Q 4756 3084 4391 3084 
Q 3944 3084 3684 2787 
Q 3425 2491 3425 1978 
L 3425 0 
L 2847 0 
L 2847 2094 
Q 2847 2600 2669 2842 
Q 2491 3084 2119 3084 
Q 1678 3084 1418 2786 
Q 1159 2488 1159 1978 
L 1159 0 
L 581 0 
L 581 3500 
L 1159 3500 
L 1159 2956 
Q 1356 3278 1631 3431 
Q 1906 3584 2284 3584 
Q 2666 3584 2933 3390 
Q 3200 3197 3328 2828 
z
" transform="scale(0.015625)"/>
       <path id="DejaVuSans-70" d="M 1159 525 
L 1159 -1331 
L 581 -1331 
L 581 3500 
L 1159 3500 
L 1159 2969 
Q 1341 3281 1617 3432 
Q 1894 3584 2278 3584 
Q 2916 3584 3314 3078 
Q 3713 2572 3713 1747 
Q 3713 922 3314 415 
Q 2916 -91 2278 -91 
Q 1894 -91 1617 61 
Q 1341 213 1159 525 
z
M 3116 1747 
Q 3116 2381 2855 2742 
Q 2594 3103 2138 3103 
Q 1681 3103 1420 2742 
Q 1159 2381 1159 1747 
Q 1159 1113 1420 752 
Q 1681 391 2138 391 
Q 2594 391 2855 752 
Q 3116 1113 3116 1747 
z
" transform="scale(0.015625)"/>
       <path id="DejaVuSans-72" d="M 2631 2963 
Q 2534 3019 2420 3045 
Q 2306 3072 2169 3072 
Q 1681 3072 1420 2755 
Q 1159 2438 1159 1844 
L 1159 0 
L 581 0 
L 581 3500 
L 1159 3500 
L 1159 2956 
Q 1341 3275 1631 3429 
Q 1922 3584 2338 3584 
Q 2397 3584 2469 3576 
Q 2541 3569 2628 3553 
L 2631 2963 
z
" transform="scale(0.015625)"/>
       <path id="DejaVuSans-61" d="M 2194 1759 
Q 1497 1759 1228 1600 
Q 959 1441 959 1056 
Q 959 750 1161 570 
Q 1363 391 1709 391 
Q 2188 391 2477 730 
Q 2766 1069 2766 1631 
L 2766 1759 
L 2194 1759 
z
M 3341 1997 
L 3341 0 
L 2766 0 
L 2766 531 
Q 2569 213 2275 61 
Q 1981 -91 1556 -91 
Q 1019 -91 701 211 
Q 384 513 384 1019 
Q 384 1609 779 1909 
Q 1175 2209 1959 2209 
L 2766 2209 
L 2766 2266 
Q 2766 2663 2505 2880 
Q 2244 3097 1772 3097 
Q 1472 3097 1187 3025 
Q 903 2953 641 2809 
L 641 3341 
Q 956 3463 1253 3523 
Q 1550 3584 1831 3584 
Q 2591 3584 2966 3190 
Q 3341 2797 3341 1997 
z
" transform="scale(0.015625)"/>
       <path id="DejaVuSans-74" d="M 1172 4494 
L 1172 3500 
L 2356 3500 
L 2356 3053 
L 1172 3053 
L 1172 1153 
Q 1172 725 1289 603 
Q 1406 481 1766 481 
L 2356 481 
L 2356 0 
L 1766 0 
Q 1100 0 847 248 
Q 594 497 594 1153 
L 594 3053 
L 172 3053 
L 172 3500 
L 594 3500 
L 594 4494 
L 1172 4494 
z
" transform="scale(0.015625)"/>
       <path id="DejaVuSans-75" d="M 544 1381 
L 544 3500 
L 1119 3500 
L 1119 1403 
Q 1119 906 1312 657 
Q 1506 409 1894 409 
Q 2359 409 2629 706 
Q 2900 1003 2900 1516 
L 2900 3500 
L 3475 3500 
L 3475 0 
L 2900 0 
L 2900 538 
Q 2691 219 2414 64 
Q 2138 -91 1772 -91 
Q 1169 -91 856 284 
Q 544 659 544 1381 
z
M 1991 3584 
L 1991 3584 
z
" transform="scale(0.015625)"/>
       <path id="DejaVuSans-20" transform="scale(0.015625)"/>
       <path id="DejaVuSans-28" d="M 1984 4856 
Q 1566 4138 1362 3434 
Q 1159 2731 1159 2009 
Q 1159 1288 1364 580 
Q 1569 -128 1984 -844 
L 1484 -844 
Q 1016 -109 783 600 
Q 550 1309 550 2009 
Q 550 2706 781 3412 
Q 1013 4119 1484 4856 
L 1984 4856 
z
" transform="scale(0.015625)"/>
       <path id="DejaVuSans-4b" d="M 628 4666 
L 1259 4666 
L 1259 2694 
L 3353 4666 
L 4166 4666 
L 1850 2491 
L 4331 0 
L 3500 0 
L 1259 2247 
L 1259 0 
L 628 0 
L 628 4666 
z
" transform="scale(0.015625)"/>
       <path id="DejaVuSans-29" d="M 513 4856 
L 1013 4856 
Q 1481 4119 1714 3412 
Q 1947 2706 1947 2009 
Q 1947 1309 1714 600 
Q 1481 -109 1013 -844 
L 513 -844 
Q 928 -128 1133 580 
Q 1338 1288 1338 2009 
Q 1338 2731 1133 3434 
Q 928 4138 513 4856 
z
" transform="scale(0.015625)"/>
      </defs>
      <use xlink:href="#DejaVuSans-54"/>
      <use xlink:href="#DejaVuSans-65" x="44.083984"/>
      <use xlink:href="#DejaVuSans-6d" x="105.607422"/>
      <use xlink:href="#DejaVuSans-70" x="203.019531"/>
      <use xlink:href="#DejaVuSans-65" x="266.496094"/>
      <use xlink:href="#DejaVuSans-72" x="328.019531"/>
      <use xlink:href="#DejaVuSans-61" x="369.132812"/>
      <use xlink:href="#DejaVuSans-74" x="430.412109"/>
      <use xlink:href="#DejaVuSans-75" x="469.621094"/>
      <use xlink:href="#DejaVuSans-72" x="533"/>
      <use xlink:href="#DejaVuSans-65" x="571.863281"/>
      <use xlink:href="#DejaVuSans-20" x="633.386719"/>
      <use xlink:href="#DejaVuSans-28" x="665.173828"/>
      <use xlink:href="#DejaVuSans-4b" x="704.1875"/>
      <use xlink:href="#DejaVuSans-29" x="769.763672"/>
     </g>
    </g>
   </g>
   <g id="matplotlib.axis_2">
    <g id="ytick_1">
     <g id="line2d_9">
      <defs>
       <path id="m8645d72abd" d="M 0 0 
L -3.5 0 
" style="stroke: #000000; stroke-width: 0.8"/>
      </defs>
      <g>
       <use xlink:href="#m8645d72abd" x="56.09" y="299.735467" style="stroke: #000000; stroke-width: 0.8"/>
      </g>
     </g>
     <g id="text_10">
      <!-- −2.8 -->
      <g transform="translate(24.807188 303.534685) scale(0.1 -0.1)">
       <defs>
        <path id="DejaVuSans-2212" d="M 678 2272 
L 4684 2272 
L 4684 1741 
L 678 1741 
L 678 2272 
z
" transform="scale(0.015625)"/>
        <path id="DejaVuSans-38" d="M 2034 2216 
Q 1584 2216 1326 1975 
Q 1069 1734 1069 1313 
Q 1069 891 1326 650 
Q 1584 409 2034 409 
Q 2484 409 2743 651 
Q 3003 894 3003 1313 
Q 3003 1734 2745 1975 
Q 2488 2216 2034 2216 
z
M 1403 2484 
Q 997 2584 770 2862 
Q 544 3141 544 3541 
Q 544 4100 942 4425 
Q 1341 4750 2034 4750 
Q 2731 4750 3128 4425 
Q 3525 4100 3525 3541 
Q 3525 3141 3298 2862 
Q 3072 2584 2669 2484 
Q 3125 2378 3379 2068 
Q 3634 1759 3634 1313 
Q 3634 634 3220 271 
Q 2806 -91 2034 -91 
Q 1263 -91 848 271 
Q 434 634 434 1313 
Q 434 1759 690 2068 
Q 947 2378 1403 2484 
z
M 1172 3481 
Q 1172 3119 1398 2916 
Q 1625 2713 2034 2713 
Q 2441 2713 2670 2916 
Q 2900 3119 2900 3481 
Q 2900 3844 2670 4047 
Q 2441 4250 2034 4250 
Q 1625 4250 1398 4047 
Q 1172 3844 1172 3481 
z
" transform="scale(0.015625)"/>
       </defs>
       <use xlink:href="#DejaVuSans-2212"/>
       <use xlink:href="#DejaVuSans-32" x="83.789062"/>
       <use xlink:href="#DejaVuSans-2e" x="147.412109"/>
       <use xlink:href="#DejaVuSans-38" x="179.199219"/>
      </g>
     </g>
    </g>
    <g id="ytick_2">
     <g id="line2d_10">
      <g>
       <use xlink:href="#m8645d72abd" x="56.09" y="237.262933" style="stroke: #000000; stroke-width: 0.8"/>
      </g>
     </g>
     <g id="text_11">
      <!-- −2.6 -->
      <g transform="translate(24.807188 241.062152) scale(0.1 -0.1)">
       <defs>
        <path id="DejaVuSans-36" d="M 2113 2584 
Q 1688 2584 1439 2293 
Q 1191 2003 1191 1497 
Q 1191 994 1439 701 
Q 1688 409 2113 409 
Q 2538 409 2786 701 
Q 3034 994 3034 1497 
Q 3034 2003 2786 2293 
Q 2538 2584 2113 2584 
z
M 3366 4563 
L 3366 3988 
Q 3128 4100 2886 4159 
Q 2644 4219 2406 4219 
Q 1781 4219 1451 3797 
Q 1122 3375 1075 2522 
Q 1259 2794 1537 2939 
Q 1816 3084 2150 3084 
Q 2853 3084 3261 2657 
Q 3669 2231 3669 1497 
Q 3669 778 3244 343 
Q 2819 -91 2113 -91 
Q 1303 -91 875 529 
Q 447 1150 447 2328 
Q 447 3434 972 4092 
Q 1497 4750 2381 4750 
Q 2619 4750 2861 4703 
Q 3103 4656 3366 4563 
z
" transform="scale(0.015625)"/>
       </defs>
       <use xlink:href="#DejaVuSans-2212"/>
       <use xlink:href="#DejaVuSans-32" x="83.789062"/>
       <use xlink:href="#DejaVuSans-2e" x="147.412109"/>
       <use xlink:href="#DejaVuSans-36" x="179.199219"/>
      </g>
     </g>
    </g>
    <g id="ytick_3">
     <g id="line2d_11">
      <g>
       <use xlink:href="#m8645d72abd" x="56.09" y="174.7904" style="stroke: #000000; stroke-width: 0.8"/>
      </g>
     </g>
     <g id="text_12">
      <!-- −2.4 -->
      <g transform="translate(24.807188 178.589619) scale(0.1 -0.1)">
       <use xlink:href="#DejaVuSans-2212"/>
       <use xlink:href="#DejaVuSans-32" x="83.789062"/>
       <use xlink:href="#DejaVuSans-2e" x="147.412109"/>
       <use xlink:href="#DejaVuSans-34" x="179.199219"/>
      </g>
     </g>
    </g>
    <g id="ytick_4">
     <g id="line2d_12">
      <g>
       <use xlink:href="#m8645d72abd" x="56.09" y="112.317867" style="stroke: #000000; stroke-width: 0.8"/>
      </g>
     </g>
     <g id="text_13">
      <!-- −2.2 -->
      <g transform="translate(24.807188 116.117085) scale(0.1 -0.1)">
       <use xlink:href="#DejaVuSans-2212"/>
       <use xlink:href="#DejaVuSans-32" x="83.789062"/>
       <use xlink:href="#DejaVuSans-2e" x="147.412109"/>
       <use xlink:href="#DejaVuSans-32" x="179.199219"/>
      </g>
     </g>
    </g>
    <g id="ytick_5">
     <g id="line2d_13">
      <g>
       <use xlink:href="#m8645d72abd" x="56.09" y="49.845333" style="stroke: #000000; stroke-width: 0.8"/>
      </g>
     </g>
     <g id="text_14">
      <!-- −2.0 -->
      <g transform="translate(24.807188 53.644552) scale(0.1 -0.1)">
       <use xlink:href="#DejaVuSans-2212"/>
       <use xlink:href="#DejaVuSans-32" x="83.789062"/>
       <use xlink:href="#DejaVuSans-2e" x="147.412109"/>
       <use xlink:href="#DejaVuSans-30" x="179.199219"/>
      </g>
     </g>
    </g>
    <g id="text_15">
     <!-- free energy / atoms (eV) -->
     <g transform="translate(18.7275 218.497344) rotate(-90) scale(0.1 -0.1)">
      <defs>
       <path id="DejaVuSans-66" d="M 2375 4863 
L 2375 4384 
L 1825 4384 
Q 1516 4384 1395 4259 
Q 1275 4134 1275 3809 
L 1275 3500 
L 2222 3500 
L 2222 3053 
L 1275 3053 
L 1275 0 
L 697 0 
L 697 3053 
L 147 3053 
L 147 3500 
L 697 3500 
L 697 3744 
Q 697 4328 969 4595 
Q 1241 4863 1831 4863 
L 2375 4863 
z
" transform="scale(0.015625)"/>
       <path id="DejaVuSans-6e" d="M 3513 2113 
L 3513 0 
L 2938 0 
L 2938 2094 
Q 2938 2591 2744 2837 
Q 2550 3084 2163 3084 
Q 1697 3084 1428 2787 
Q 1159 2491 1159 1978 
L 1159 0 
L 581 0 
L 581 3500 
L 1159 3500 
L 1159 2956 
Q 1366 3272 1645 3428 
Q 1925 3584 2291 3584 
Q 2894 3584 3203 3211 
Q 3513 2838 3513 2113 
z
" transform="scale(0.015625)"/>
       <path id="DejaVuSans-67" d="M 2906 1791 
Q 2906 2416 2648 2759 
Q 2391 3103 1925 3103 
Q 1463 3103 1205 2759 
Q 947 2416 947 1791 
Q 947 1169 1205 825 
Q 1463 481 1925 481 
Q 2391 481 2648 825 
Q 2906 1169 2906 1791 
z
M 3481 434 
Q 3481 -459 3084 -895 
Q 2688 -1331 1869 -1331 
Q 1566 -1331 1297 -1286 
Q 1028 -1241 775 -1147 
L 775 -588 
Q 1028 -725 1275 -790 
Q 1522 -856 1778 -856 
Q 2344 -856 2625 -561 
Q 2906 -266 2906 331 
L 2906 616 
Q 2728 306 2450 153 
Q 2172 0 1784 0 
Q 1141 0 747 490 
Q 353 981 353 1791 
Q 353 2603 747 3093 
Q 1141 3584 1784 3584 
Q 2172 3584 2450 3431 
Q 2728 3278 2906 2969 
L 2906 3500 
L 3481 3500 
L 3481 434 
z
" transform="scale(0.015625)"/>
       <path id="DejaVuSans-79" d="M 2059 -325 
Q 1816 -950 1584 -1140 
Q 1353 -1331 966 -1331 
L 506 -1331 
L 506 -850 
L 844 -850 
Q 1081 -850 1212 -737 
Q 1344 -625 1503 -206 
L 1606 56 
L 191 3500 
L 800 3500 
L 1894 763 
L 2988 3500 
L 3597 3500 
L 2059 -325 
z
" transform="scale(0.015625)"/>
       <path id="DejaVuSans-2f" d="M 1625 4666 
L 2156 4666 
L 531 -594 
L 0 -594 
L 1625 4666 
z
" transform="scale(0.015625)"/>
       <path id="DejaVuSans-6f" d="M 1959 3097 
Q 1497 3097 1228 2736 
Q 959 2375 959 1747 
Q 959 1119 1226 758 
Q 1494 397 1959 397 
Q 2419 397 2687 759 
Q 2956 1122 2956 1747 
Q 2956 2369 2687 2733 
Q 2419 3097 1959 3097 
z
M 1959 3584 
Q 2709 3584 3137 3096 
Q 3566 2609 3566 1747 
Q 3566 888 3137 398 
Q 2709 -91 1959 -91 
Q 1206 -91 779 398 
Q 353 888 353 1747 
Q 353 2609 779 3096 
Q 1206 3584 1959 3584 
z
" transform="scale(0.015625)"/>
       <path id="DejaVuSans-73" d="M 2834 3397 
L 2834 2853 
Q 2591 2978 2328 3040 
Q 2066 3103 1784 3103 
Q 1356 3103 1142 2972 
Q 928 2841 928 2578 
Q 928 2378 1081 2264 
Q 1234 2150 1697 2047 
L 1894 2003 
Q 2506 1872 2764 1633 
Q 3022 1394 3022 966 
Q 3022 478 2636 193 
Q 2250 -91 1575 -91 
Q 1294 -91 989 -36 
Q 684 19 347 128 
L 347 722 
Q 666 556 975 473 
Q 1284 391 1588 391 
Q 1994 391 2212 530 
Q 2431 669 2431 922 
Q 2431 1156 2273 1281 
Q 2116 1406 1581 1522 
L 1381 1569 
Q 847 1681 609 1914 
Q 372 2147 372 2553 
Q 372 3047 722 3315 
Q 1072 3584 1716 3584 
Q 2034 3584 2315 3537 
Q 2597 3491 2834 3397 
z
" transform="scale(0.015625)"/>
       <path id="DejaVuSans-56" d="M 1831 0 
L 50 4666 
L 709 4666 
L 2188 738 
L 3669 4666 
L 4325 4666 
L 2547 0 
L 1831 0 
z
" transform="scale(0.015625)"/>
      </defs>
      <use xlink:href="#DejaVuSans-66"/>
      <use xlink:href="#DejaVuSans-72" x="35.205078"/>
      <use xlink:href="#DejaVuSans-65" x="74.068359"/>
      <use xlink:href="#DejaVuSans-65" x="135.591797"/>
      <use xlink:href="#DejaVuSans-20" x="197.115234"/>
      <use xlink:href="#DejaVuSans-65" x="228.902344"/>
      <use xlink:href="#DejaVuSans-6e" x="290.425781"/>
      <use xlink:href="#DejaVuSans-65" x="353.804688"/>
      <use xlink:href="#DejaVuSans-72" x="415.328125"/>
      <use xlink:href="#DejaVuSans-67" x="454.691406"/>
      <use xlink:href="#DejaVuSans-79" x="518.167969"/>
      <use xlink:href="#DejaVuSans-20" x="577.347656"/>
      <use xlink:href="#DejaVuSans-2f" x="609.134766"/>
      <use xlink:href="#DejaVuSans-20" x="642.826172"/>
      <use xlink:href="#DejaVuSans-61" x="674.613281"/>
      <use xlink:href="#DejaVuSans-74" x="735.892578"/>
      <use xlink:href="#DejaVuSans-6f" x="775.101562"/>
      <use xlink:href="#DejaVuSans-6d" x="836.283203"/>
      <use xlink:href="#DejaVuSans-73" x="933.695312"/>
      <use xlink:href="#DejaVuSans-20" x="985.794922"/>
      <use xlink:href="#DejaVuSans-28" x="1017.582031"/>
      <use xlink:href="#DejaVuSans-65" x="1056.595703"/>
      <use xlink:href="#DejaVuSans-56" x="1118.119141"/>
      <use xlink:href="#DejaVuSans-29" x="1186.527344"/>
     </g>
    </g>
   </g>
   <g id="line2d_14">
    <path d="M 442.119616 282.32191 
L 441.521719 281.367528 
L 441.279533 281.170371 
L 440.93139 280.847109 
L 440.492428 280.175243 
L 439.659913 279.100722 
L 438.986332 278.013648 
L 438.259774 276.853593 
L 437.69215 276.034191 
L 436.503924 274.134386 
L 436.095235 273.5554 
L 435.368676 272.39793 
L 433.279821 269.006119 
L 432.091595 267.232301 
L 431.30449 265.954291 
L 430.895801 265.222917 
L 430.22222 264.275682 
L 430.025444 264.049583 
L 429.556208 263.533174 
L 429.306454 263.274538 
L 427.618719 260.571533 
L 418.02966 245.114921 
L 417.651244 244.803265 
L 413.231347 237.824727 
L 412.739406 236.947923 
L 412.345854 236.292386 
L 411.460361 234.808941 
L 411.028966 234.164684 
L 408.849291 230.594205 
L 408.258962 230.103093 
L 407.146419 229.44699 
L 405.700871 227.713852 
L 405.451116 227.473912 
L 403.415239 224.596117 
L 402.930866 223.806443 
L 402.491904 223.262106 
L 401.984827 222.903726 
L 400.925262 221.469582 
L 400.387912 221.094685 
L 399.207254 219.208897 
L 398.624494 218.303256 
L 398.314193 218.122573 
L 397.595202 217.668851 
L 396.195064 215.95113 
L 395.006838 214.082736 
L 394.287848 213.170994 
L 393.788339 212.825463 
L 392.607681 211.354231 
L 391.949237 210.415264 
L 391.30593 209.37855 
L 390.163114 207.466914 
L 389.860382 206.97202 
L 389.209506 205.923874 
L 388.165078 204.606171 
L 387.332564 203.522258 
L 386.394092 202.991548 
L 386.151906 202.562936 
L 385.902151 202.27871 
L 385.175593 201.845133 
L 383.836001 199.881585 
L 382.216381 197.567056 
L 382.034741 197.376991 
L 381.58821 196.808668 
L 379.892907 194.378069 
L 378.863616 193.081867 
L 375.806016 188.530747 
L 375.359485 187.877492 
L 374.943227 187.355986 
L 374.655631 187.126079 
L 373.838253 185.857333 
L 370.644423 181.089074 
L 370.34169 180.595404 
L 369.062644 178.530147 
L 368.737207 178.015209 
L 367.897124 176.737657 
L 367.526276 176.360263 
L 367.253817 176.144963 
L 366.845127 175.597879 
L 366.618078 175.265246 
L 366.322913 174.96229 
L 366.148842 174.779269 
L 365.558513 173.772622 
L 365.187666 173.20936 
L 363.916188 171.287967 
L 363.038264 170.844818 
L 357.800988 162.858567 
L 357.187954 162.530394 
L 356.696013 161.836538 
L 356.03757 160.864794 
L 355.197486 160.459994 
L 354.682841 159.855512 
L 354.425518 159.652737 
L 352.972401 157.922518 
L 351.451169 155.911443 
L 351.277098 155.738741 
L 351.057617 155.631377 
L 350.800294 155.429697 
L 350.05103 154.45494 
L 349.55909 153.763597 
L 348.741711 152.323473 
L 348.47682 152.155585 
L 347.455097 151.708529 
L 347.220479 151.61764 
L 346.773949 151.35965 
L 346.501489 151.086455 
L 346.160915 150.864148 
L 344.783481 149.372681 
L 344.064491 149.035692 
L 343.686075 148.460667 
L 343.088178 147.654013 
L 341.741017 145.401517 
L 341.476126 144.956596 
L 340.991754 144.289887 
L 337.480054 143.088795 
L 337.109207 142.522639 
L 335.012783 139.109815 
L 334.006197 137.862412 
L 333.294775 136.763324 
L 331.894636 136.240312 
L 331.591903 135.748788 
L 326.801158 128.240648 
L 326.059463 127.928919 
L 325.423724 126.985041 
L 323.493803 124.070309 
L 323.054841 123.843946 
L 322.850496 123.692609 
L 322.638583 123.52381 
L 322.403965 123.111217 
L 321.972571 122.436058 
L 321.147625 121.714044 
L 320.103197 121.341939 
L 319.172294 120.502644 
L 318.990654 120.252959 
L 318.430599 119.419948 
L 318.180844 118.989389 
L 317.711608 118.331565 
L 316.969913 117.374409 
L 316.493109 116.59584 
L 314.411822 115.987506 
L 313.639853 114.925902 
L 313.337121 114.744315 
L 312.353239 113.588207 
L 310.567116 113.063703 
L 310.082744 112.697607 
L 302.779317 110.911498 
L 301.084014 109.200821 
L 299.804969 108.80727 
L 298.805951 107.586598 
L 297.981004 107.296231 
L 297.670703 106.792057 
L 297.262014 106.126679 
L 295.88458 103.993095 
L 295.460754 103.688059 
L 289.792084 102.402276 
L 289.383395 101.775494 
L 288.55088 100.542514 
L 287.990825 100.076221 
L 285.992789 99.568519 
L 285.568963 99.147973 
L 284.940793 98.913747 
L 284.244507 97.956894 
L 283.457402 96.467046 
L 282.526499 95.573249 
L 272.513615 93.604817 
L 271.438914 92.507039 
L 271.257274 92.362506 
L 270.273393 90.490213 
L 269.009484 88.788168 
L 268.790002 88.702146 
L 268.517543 88.552635 
L 268.35104 88.502105 
L 264.249012 87.707839 
L 263.984121 87.660066 
L 263.643546 87.505109 
L 263.325677 87.067486 
L 262.705075 86.492429 
L 262.250976 86.310842 
L 261.766604 85.829916 
L 254.773478 84.60607 
L 254.516155 84.561184 
L 253.986373 84.371512 
L 253.789597 84.259178 
L 222.653537 79.237654 
L 221.987525 78.109401 
L 221.684793 77.614445 
L 221.253399 77.192656 
L 215.80421 76.284212 
L 214.827897 74.681717 
L 214.381366 74.228966 
L 198.624128 71.974408 
L 198.275986 71.627953 
L 56.09 52.568802 
L 56.09 52.568802 
" clip-path="url(#pcff032fd24)" style="fill: none; stroke: #d62728; stroke-width: 2; stroke-linecap: square"/>
   </g>
   <g id="line2d_15">
    <path d="M 442.119616 278.799163 
L 441.02221 276.845753 
L 439.122562 273.749029 
L 438.41114 272.687454 
L 438.078134 272.425396 
L 437.843516 272.173631 
L 437.222914 271.164511 
L 435.005397 267.566643 
L 434.816189 267.345007 
L 433.219274 264.82042 
L 431.501266 262.725089 
L 430.979052 262.320886 
L 430.154105 261.222258 
L 429.041563 259.320714 
L 428.269594 258.113755 
L 427.202462 256.494689 
L 426.884592 256.30198 
L 426.422925 255.9403 
L 425.756913 254.781934 
L 424.7806 253.519149 
L 423.615079 251.726692 
L 422.994477 250.861807 
L 421.117534 247.834821 
L 420.716413 247.218413 
L 420.262314 246.434348 
L 418.468623 243.720883 
L 418.317256 243.520641 
L 416.092171 240.101403 
L 415.622935 239.743795 
L 413.465965 236.226086 
L 412.974024 235.516159 
L 411.528475 233.228009 
L 409.961834 231.324985 
L 408.531422 229.06048 
L 407.494562 227.510068 
L 406.896665 226.690231 
L 406.639342 226.448129 
L 405.768986 225.155597 
L 405.39057 224.835816 
L 404.520213 224.308634 
L 403.362261 222.508661 
L 403.021686 221.970831 
L 401.326383 219.066809 
L 400.902557 218.438863 
L 400.274387 217.452017 
L 399.706763 216.381032 
L 398.677472 214.607157 
L 397.542224 212.931277 
L 397.035147 212.220846 
L 396.384272 211.342499 
L 394.318121 208.169308 
L 392.857436 205.733428 
L 392.365495 204.923642 
L 391.6238 203.707008 
L 390.730738 202.354795 
L 390.200956 201.551181 
L 389.936065 201.425302 
L 388.982457 200.898419 
L 387.52934 198.569231 
L 386.931443 197.75776 
L 385.803763 196.001831 
L 384.456603 194.219903 
L 383.563541 192.691892 
L 383.154852 192.338036 
L 382.617502 191.801745 
L 380.392416 188.583211 
L 380.044274 188.324635 
L 378.765228 186.294487 
L 378.553315 186.092135 
L 376.706645 184.25686 
L 376.184431 183.939893 
L 374.829703 181.767018 
L 371.499643 176.840386 
L 371.128795 176.225682 
L 370.727674 175.699244 
L 369.933001 175.289259 
L 369.456197 174.481655 
L 368.81289 173.881442 
L 368.419337 173.069379 
L 367.813872 172.093722 
L 367.488434 171.585815 
L 367.162997 171.201891 
L 366.708898 170.923171 
L 365.354169 168.731868 
L 365.104414 168.62296 
L 364.355151 168.239465 
L 364.082691 168.062199 
L 363.621024 167.777941 
L 363.045832 167.032154 
L 362.682553 166.480416 
L 362.031677 165.805482 
L 361.865174 165.633986 
L 359.844433 163.157322 
L 358.648639 162.62851 
L 357.755578 161.434029 
L 357.316615 161.164306 
L 355.500219 158.953997 
L 354.86448 158.620401 
L 354.410381 158.02765 
L 353.343248 156.71843 
L 352.692373 155.765436 
L 351.973383 154.83574 
L 351.193846 153.65091 
L 350.315921 152.481379 
L 349.460701 151.40258 
L 349.014171 150.992509 
L 348.582777 150.745547 
L 347.810808 149.569992 
L 347.258321 149.136973 
L 346.395533 148.750695 
L 345.668974 147.813209 
L 345.093782 146.923092 
L 344.125037 146.504114 
L 342.240526 143.823313 
L 341.27935 142.283463 
L 340.446835 141.917163 
L 340.257627 141.848353 
L 339.288882 141.445643 
L 338.62287 140.374576 
L 337.351393 138.854587 
L 336.639971 137.612874 
L 336.246419 137.268353 
L 335.088466 136.81601 
L 334.823575 136.371738 
L 332.742288 132.844792 
L 331.811384 131.349993 
L 331.327012 130.786388 
L 330.380972 129.711398 
L 328.874877 129.192519 
L 328.685669 129.117114 
L 326.808726 128.497648 
L 325.181538 126.489423 
L 324.735007 126.261779 
L 323.864651 125.064483 
L 323.55435 124.570037 
L 323.342437 124.40006 
L 314.207477 121.924344 
L 312.020233 118.503637 
L 311.702364 118.318755 
L 310.627663 117.943518 
L 310.27952 117.39603 
L 309.893536 116.673434 
L 309.454574 116.156797 
L 308.728015 115.521998 
L 306.268312 114.822132 
L 306.071536 114.765038 
L 304.618419 114.302859 
L 304.338391 114.15334 
L 302.279809 113.550692 
L 301.954371 113.023807 
L 301.091583 111.659387 
L 300.092565 110.706722 
L 298.578901 110.246918 
L 298.336715 110.140692 
L 296.929008 109.70432 
L 295.892148 108.417825 
L 294.4466 107.979281 
L 293.069166 106.258643 
L 292.683182 105.722717 
L 292.244219 105.389311 
L 287.1129 104.169493 
L 286.575549 103.385388 
L 285.758171 102.160093 
L 285.341913 101.517225 
L 284.819699 100.486901 
L 283.472539 98.329406 
L 283.06385 97.633946 
L 282.70057 97.385819 
L 273.505064 95.504853 
L 272.339543 94.30113 
L 271.870308 94.10661 
L 271.665963 94.034532 
L 270.946973 93.790577 
L 270.462601 93.047693 
L 270.000933 92.29293 
L 259.390152 90.264332 
L 258.966326 89.802018 
L 249.702705 88.035997 
L 249.369699 87.790212 
L 245.441742 86.980191 
L 245.214693 86.839978 
L 239.409793 85.708981 
L 238.713508 84.506466 
L 222.736789 81.6659 
L 221.207989 79.683169 
L 219.633779 79.319003 
L 219.103996 78.385753 
L 218.634761 77.902007 
L 209.212205 76.349009 
L 208.856494 76.013764 
L 56.09 52.917152 
L 56.09 52.917152 
" clip-path="url(#pcff032fd24)" style="fill: none; stroke: #1f77b4; stroke-width: 2; stroke-linecap: square"/>
   </g>
   <g id="line2d_16">
    <path d="M 442.119616 280.560537 
L 441.408194 279.379645 
L 440.817865 278.605151 
L 439.93994 277.275182 
L 439.644776 276.879113 
L 433.794466 267.732543 
L 432.613809 265.914265 
L 430.49468 263.125941 
L 429.669733 261.994361 
L 429.132383 261.220577 
L 426.990549 257.939176 
L 426.392652 257.298159 
L 423.335051 252.522623 
L 422.850679 251.725227 
L 421.753273 249.793201 
L 419.838488 246.789241 
L 419.278433 245.89837 
L 418.521601 244.774498 
L 417.931272 244.021894 
L 417.431763 243.295556 
L 415.804575 241.008184 
L 415.509411 240.591032 
L 414.956923 239.608862 
L 414.260638 238.49913 
L 411.172764 233.666627 
L 410.885168 233.258928 
L 408.077323 229.1627 
L 407.093441 228.126971 
L 406.813413 227.803157 
L 406.382019 227.318653 
L 405.572209 226.278112 
L 403.86177 224.214338 
L 402.423789 222.066784 
L 401.87887 221.366241 
L 400.940399 219.990795 
L 400.077611 218.920164 
L 398.427717 216.171669 
L 397.496814 215.197585 
L 396.989737 214.62023 
L 396.34643 213.747024 
L 395.271729 211.980489 
L 392.350358 207.942424 
L 389.860382 204.182465 
L 389.043003 203.368954 
L 388.740271 202.998566 
L 387.756389 201.46107 
L 387.340132 200.916242 
L 386.091359 199.38415 
L 385.659965 198.960439 
L 384.002504 196.78521 
L 383.139715 195.52618 
L 381.974195 194.01746 
L 379.908044 191.252891 
L 379.098234 190.104022 
L 377.039651 187.349122 
L 375.616808 185.635673 
L 374.269647 183.82616 
L 374.088007 183.487115 
L 373.641477 182.7788 
L 371.938605 180.066359 
L 370.826062 178.488821 
L 370.485488 178.208973 
L 369.872454 177.463379 
L 369.372945 176.658429 
L 368.873437 176.127812 
L 367.382478 173.854909 
L 366.875401 173.343172 
L 366.580236 172.952768 
L 365.603923 171.483784 
L 363.931325 169.650632 
L 363.537772 169.391622 
L 362.96258 168.805297 
L 362.493345 168.100452 
L 360.079051 164.735813 
L 359.746045 164.361413 
L 358.951372 163.657365 
L 358.527546 163.069581 
L 357.922081 162.196398 
L 357.256069 161.84836 
L 355.575902 159.809044 
L 355.04612 159.513572 
L 353.33568 157.621918 
L 352.472892 156.332728 
L 351.171141 154.6424 
L 350.527834 153.877581 
L 350.073735 153.322976 
L 349.702888 152.928694 
L 348.734143 151.607764 
L 347.144796 150.346847 
L 346.683129 150.082427 
L 345.593291 148.896276 
L 345.086214 148.195451 
L 344.087196 147.768586 
L 343.171429 146.471837 
L 342.611374 145.626152 
L 341.0523 143.261693 
L 339.296451 142.611009 
L 338.675849 141.99943 
L 337.404371 140.989875 
L 335.981528 138.926301 
L 334.08188 136.588305 
L 332.401713 134.31422 
L 331.51622 133.32854 
L 330.683705 132.152338 
L 330.320426 131.741887 
L 329.465206 130.909114 
L 327.580695 129.048051 
L 326.88441 128.44643 
L 326.369764 127.996405 
L 325.961075 127.589469 
L 324.515526 125.667186 
L 324.068995 125.037206 
L 323.319732 124.209788 
L 322.767245 123.953353 
L 322.290441 123.504263 
L 321.66227 122.99158 
L 321.0341 122.706448 
L 319.959399 122.318199 
L 319.331228 121.914336 
L 318.983086 121.717396 
L 318.400325 121.216353 
L 318.052183 120.85135 
L 317.408876 120.395403 
L 316.788274 119.851075 
L 316.349311 119.537871 
L 314.336139 118.928087 
L 314.086384 118.519215 
L 313.730673 118.033914 
L 313.132776 117.413471 
L 312.088348 116.035096 
L 310.673073 115.587555 
L 309.621077 114.465746 
L 308.61449 113.927936 
L 304.686534 112.892513 
L 304.368664 112.737271 
L 302.605246 112.213699 
L 301.674343 111.015475 
L 301.250517 110.537412 
L 299.97904 109.817099 
L 299.683876 109.637667 
L 298.215622 108.784946 
L 297.882616 108.599754 
L 296.368952 106.741663 
L 295.816465 106.150654 
L 295.422913 105.996189 
L 294.325507 105.647539 
L 291.843098 104.120214 
L 289.670991 103.548785 
L 289.201755 103.10036 
L 288.285989 102.356495 
L 287.884868 102.218724 
L 286.923692 101.906202 
L 285.932242 100.941556 
L 285.652214 100.601514 
L 285.258662 100.206331 
L 284.335327 98.984729 
L 283.96448 98.250923 
L 283.116828 96.85957 
L 282.70057 96.495663 
L 273.505064 94.648346 
L 270.992383 92.808455 
L 269.74361 91.026886 
L 268.411587 90.258536 
L 263.643546 89.322967 
L 263.249994 89.023347 
L 262.689938 88.728997 
L 262.152588 88.528015 
L 261.615237 88.289532 
L 259.299332 87.785004 
L 258.784686 87.562306 
L 254.031783 86.649508 
L 253.72905 86.525415 
L 249.54377 85.711277 
L 249.286448 85.661891 
L 239.477908 83.906972 
L 239.19788 83.561988 
L 238.834601 83.212846 
L 222.721652 80.45348 
L 222.441624 80.092244 
L 221.132305 78.422897 
L 219.5808 78.072026 
L 219.020745 77.564941 
L 218.566646 77.344039 
L 215.728527 76.806332 
L 214.18459 75.710659 
L 209.128953 74.867872 
L 208.795948 74.735528 
L 198.540877 73.148744 
L 198.215439 73.012395 
L 56.09 52.742977 
L 56.09 52.742977 
" clip-path="url(#pcff032fd24)" style="fill: none; stroke: #7f7f7f; stroke-width: 2; stroke-linecap: square"/>
   </g>
   <g id="patch_3">
    <path d="M 56.09 303.64 
L 56.09 10.8 
" style="fill: none; stroke: #000000; stroke-width: 0.8; stroke-linejoin: miter; stroke-linecap: square"/>
   </g>
   <g id="patch_4">
    <path d="M 442.125 303.64 
L 442.125 10.8 
" style="fill: none; stroke: #000000; stroke-width: 0.8; stroke-linejoin: miter; stroke-linecap: square"/>
   </g>
   <g id="patch_5">
    <path d="M 56.09 303.64 
L 442.125 303.64 
" style="fill: none; stroke: #000000; stroke-width: 0.8; stroke-linejoin: miter; stroke-linecap: square"/>
   </g>
   <g id="patch_6">
    <path d="M 56.09 10.8 
L 442.125 10.8 
" style="fill: none; stroke: #000000; stroke-width: 0.8; stroke-linejoin: miter; stroke-linecap: square"/>
   </g>
   <g id="legend_1">
    <g id="patch_7">
     <path d="M 354.76875 62.834375 
L 435.125 62.834375 
Q 437.125 62.834375 437.125 60.834375 
L 437.125 17.8 
Q 437.125 15.8 435.125 15.8 
L 354.76875 15.8 
Q 352.76875 15.8 352.76875 17.8 
L 352.76875 60.834375 
Q 352.76875 62.834375 354.76875 62.834375 
z
" style="fill: #ffffff; opacity: 0.8; stroke: #cccccc; stroke-linejoin: miter"/>
    </g>
    <g id="line2d_17">
     <path d="M 356.76875 23.898438 
L 366.76875 23.898438 
L 376.76875 23.898438 
" style="fill: none; stroke: #d62728; stroke-width: 2; stroke-linecap: square"/>
    </g>
    <g id="text_16">
     <!-- forward -->
     <g transform="translate(384.76875 27.398438) scale(0.1 -0.1)">
      <defs>
       <path id="DejaVuSans-77" d="M 269 3500 
L 844 3500 
L 1563 769 
L 2278 3500 
L 2956 3500 
L 3675 769 
L 4391 3500 
L 4966 3500 
L 4050 0 
L 3372 0 
L 2619 2869 
L 1863 0 
L 1184 0 
L 269 3500 
z
" transform="scale(0.015625)"/>
       <path id="DejaVuSans-64" d="M 2906 2969 
L 2906 4863 
L 3481 4863 
L 3481 0 
L 2906 0 
L 2906 525 
Q 2725 213 2448 61 
Q 2172 -91 1784 -91 
Q 1150 -91 751 415 
Q 353 922 353 1747 
Q 353 2572 751 3078 
Q 1150 3584 1784 3584 
Q 2172 3584 2448 3432 
Q 2725 3281 2906 2969 
z
M 947 1747 
Q 947 1113 1208 752 
Q 1469 391 1925 391 
Q 2381 391 2643 752 
Q 2906 1113 2906 1747 
Q 2906 2381 2643 2742 
Q 2381 3103 1925 3103 
Q 1469 3103 1208 2742 
Q 947 2381 947 1747 
z
" transform="scale(0.015625)"/>
      </defs>
      <use xlink:href="#DejaVuSans-66"/>
      <use xlink:href="#DejaVuSans-6f" x="35.205078"/>
      <use xlink:href="#DejaVuSans-72" x="96.386719"/>
      <use xlink:href="#DejaVuSans-77" x="137.5"/>
      <use xlink:href="#DejaVuSans-61" x="219.287109"/>
      <use xlink:href="#DejaVuSans-72" x="280.566406"/>
      <use xlink:href="#DejaVuSans-64" x="319.929688"/>
     </g>
    </g>
    <g id="line2d_18">
     <path d="M 356.76875 38.576563 
L 366.76875 38.576563 
L 376.76875 38.576563 
" style="fill: none; stroke: #1f77b4; stroke-width: 2; stroke-linecap: square"/>
    </g>
    <g id="text_17">
     <!-- backward -->
     <g transform="translate(384.76875 42.076563) scale(0.1 -0.1)">
      <defs>
       <path id="DejaVuSans-62" d="M 3116 1747 
Q 3116 2381 2855 2742 
Q 2594 3103 2138 3103 
Q 1681 3103 1420 2742 
Q 1159 2381 1159 1747 
Q 1159 1113 1420 752 
Q 1681 391 2138 391 
Q 2594 391 2855 752 
Q 3116 1113 3116 1747 
z
M 1159 2969 
Q 1341 3281 1617 3432 
Q 1894 3584 2278 3584 
Q 2916 3584 3314 3078 
Q 3713 2572 3713 1747 
Q 3713 922 3314 415 
Q 2916 -91 2278 -91 
Q 1894 -91 1617 61 
Q 1341 213 1159 525 
L 1159 0 
L 581 0 
L 581 4863 
L 1159 4863 
L 1159 2969 
z
" transform="scale(0.015625)"/>
       <path id="DejaVuSans-63" d="M 3122 3366 
L 3122 2828 
Q 2878 2963 2633 3030 
Q 2388 3097 2138 3097 
Q 1578 3097 1268 2742 
Q 959 2388 959 1747 
Q 959 1106 1268 751 
Q 1578 397 2138 397 
Q 2388 397 2633 464 
Q 2878 531 3122 666 
L 3122 134 
Q 2881 22 2623 -34 
Q 2366 -91 2075 -91 
Q 1284 -91 818 406 
Q 353 903 353 1747 
Q 353 2603 823 3093 
Q 1294 3584 2113 3584 
Q 2378 3584 2631 3529 
Q 2884 3475 3122 3366 
z
" transform="scale(0.015625)"/>
       <path id="DejaVuSans-6b" d="M 581 4863 
L 1159 4863 
L 1159 1991 
L 2875 3500 
L 3609 3500 
L 1753 1863 
L 3688 0 
L 2938 0 
L 1159 1709 
L 1159 0 
L 581 0 
L 581 4863 
z
" transform="scale(0.015625)"/>
      </defs>
      <use xlink:href="#DejaVuSans-62"/>
      <use xlink:href="#DejaVuSans-61" x="63.476562"/>
      <use xlink:href="#DejaVuSans-63" x="124.755859"/>
      <use xlink:href="#DejaVuSans-6b" x="179.736328"/>
      <use xlink:href="#DejaVuSans-77" x="237.646484"/>
      <use xlink:href="#DejaVuSans-61" x="319.433594"/>
      <use xlink:href="#DejaVuSans-72" x="380.712891"/>
      <use xlink:href="#DejaVuSans-64" x="420.076172"/>
     </g>
    </g>
    <g id="line2d_19">
     <path d="M 356.76875 53.254688 
L 366.76875 53.254688 
L 376.76875 53.254688 
" style="fill: none; stroke: #7f7f7f; stroke-width: 2; stroke-linecap: square"/>
    </g>
    <g id="text_18">
     <!-- average -->
     <g transform="translate(384.76875 56.754688) scale(0.1 -0.1)">
      <defs>
       <path id="DejaVuSans-76" d="M 191 3500 
L 800 3500 
L 1894 563 
L 2988 3500 
L 3597 3500 
L 2284 0 
L 1503 0 
L 191 3500 
z
" transform="scale(0.015625)"/>
      </defs>
      <use xlink:href="#DejaVuSans-61"/>
      <use xlink:href="#DejaVuSans-76" x="61.279297"/>
      <use xlink:href="#DejaVuSans-65" x="120.458984"/>
      <use xlink:href="#DejaVuSans-72" x="181.982422"/>
      <use xlink:href="#DejaVuSans-61" x="223.095703"/>
      <use xlink:href="#DejaVuSans-67" x="284.375"/>
      <use xlink:href="#DejaVuSans-65" x="347.851562"/>
     </g>
    </g>
   </g>
  </g>
 </g>
 <defs>
  <clipPath id="pcff032fd24">
   <rect x="56.09" y="10.8" width="386.035" height="292.84"/>
  </clipPath>
 </defs>
</svg>
