<?xml version="1.0" encoding="utf-8" standalone="no"?>
<!DOCTYPE svg PUBLIC "-//W3C//DTD SVG 1.1//EN"
  "http://www.w3.org/Graphics/SVG/1.1/DTD/svg11.dtd">
<svg xmlns:xlink="http://www.w3.org/1999/xlink" width="460.8pt" height="345.6pt" viewBox="0 0 460.8 345.6" xmlns="http://www.w3.org/2000/svg" version="1.1">
 <metadata>
  <rdf:RDF xmlns:dc="http://purl.org/dc/elements/1.1/" xmlns:cc="http://creativecommons.org/ns#" xmlns:rdf="http://www.w3.org/1999/02/22-rdf-syntax-ns#">
   <cc:Work>
    <dc:type rdf:resource="http://purl.org/dc/dcmitype/StillImage"/>
    <dc:date>2023-05-19T16:29:29.371849</dc:date>
    <dc:format>image/svg+xml</dc:format>
    <dc:creator>
     <cc:Agent>
      <dc:title>Matplotlib v3.6.3, https://matplotlib.org/</dc:title>
     </cc:Agent>
    </dc:creator>
   </cc:Work>
  </rdf:RDF>
 </metadata>
 <defs>
  <style type="text/css">*{stroke-linejoin: round; stroke-linecap: butt}</style>
 </defs>
 <g id="figure_1">
  <g id="patch_1">
   <path d="M 0 345.6 
L 460.8 345.6 
L 460.8 0 
L 0 0 
z
" style="fill: #ffffff"/>
  </g>
  <g id="axes_1">
   <g id="patch_2">
    <path d="M 50.87 303.64 
L 450 303.64 
L 450 10.8 
L 50.87 10.8 
z
" style="fill: #ffffff"/>
   </g>
   <g id="matplotlib.axis_1">
    <g id="xtick_1">
     <g id="line2d_1">
      <defs>
       <path id="m7eac5cbd01" d="M 0 0 
L 0 3.5 
" style="stroke: #000000; stroke-width: 0.8"/>
      </defs>
      <g>
       <use xlink:href="#m7eac5cbd01" x="69.012273" y="303.64" style="stroke: #000000; stroke-width: 0.8"/>
      </g>
     </g>
     <g id="text_1">
      <!-- 0 -->
      <g transform="translate(65.831023 318.238437) scale(0.1 -0.1)">
       <defs>
        <path id="DejaVuSans-30" d="M 2034 4250 
Q 1547 4250 1301 3770 
Q 1056 3291 1056 2328 
Q 1056 1369 1301 889 
Q 1547 409 2034 409 
Q 2525 409 2770 889 
Q 3016 1369 3016 2328 
Q 3016 3291 2770 3770 
Q 2525 4250 2034 4250 
z
M 2034 4750 
Q 2819 4750 3233 4129 
Q 3647 3509 3647 2328 
Q 3647 1150 3233 529 
Q 2819 -91 2034 -91 
Q 1250 -91 836 529 
Q 422 1150 422 2328 
Q 422 3509 836 4129 
Q 1250 4750 2034 4750 
z
" transform="scale(0.015625)"/>
       </defs>
       <use xlink:href="#DejaVuSans-30"/>
      </g>
     </g>
    </g>
    <g id="xtick_2">
     <g id="line2d_2">
      <g>
       <use xlink:href="#m7eac5cbd01" x="154.66984" y="303.64" style="stroke: #000000; stroke-width: 0.8"/>
      </g>
     </g>
     <g id="text_2">
      <!-- 500 -->
      <g transform="translate(145.12609 318.238437) scale(0.1 -0.1)">
       <defs>
        <path id="DejaVuSans-35" d="M 691 4666 
L 3169 4666 
L 3169 4134 
L 1269 4134 
L 1269 2991 
Q 1406 3038 1543 3061 
Q 1681 3084 1819 3084 
Q 2600 3084 3056 2656 
Q 3513 2228 3513 1497 
Q 3513 744 3044 326 
Q 2575 -91 1722 -91 
Q 1428 -91 1123 -41 
Q 819 9 494 109 
L 494 744 
Q 775 591 1075 516 
Q 1375 441 1709 441 
Q 2250 441 2565 725 
Q 2881 1009 2881 1497 
Q 2881 1984 2565 2268 
Q 2250 2553 1709 2553 
Q 1456 2553 1204 2497 
Q 953 2441 691 2322 
L 691 4666 
z
" transform="scale(0.015625)"/>
       </defs>
       <use xlink:href="#DejaVuSans-35"/>
       <use xlink:href="#DejaVuSans-30" x="63.623047"/>
       <use xlink:href="#DejaVuSans-30" x="127.246094"/>
      </g>
     </g>
    </g>
    <g id="xtick_3">
     <g id="line2d_3">
      <g>
       <use xlink:href="#m7eac5cbd01" x="240.327407" y="303.64" style="stroke: #000000; stroke-width: 0.8"/>
      </g>
     </g>
     <g id="text_3">
      <!-- 1000 -->
      <g transform="translate(227.602407 318.238437) scale(0.1 -0.1)">
       <defs>
        <path id="DejaVuSans-31" d="M 794 531 
L 1825 531 
L 1825 4091 
L 703 3866 
L 703 4441 
L 1819 4666 
L 2450 4666 
L 2450 531 
L 3481 531 
L 3481 0 
L 794 0 
L 794 531 
z
" transform="scale(0.015625)"/>
       </defs>
       <use xlink:href="#DejaVuSans-31"/>
       <use xlink:href="#DejaVuSans-30" x="63.623047"/>
       <use xlink:href="#DejaVuSans-30" x="127.246094"/>
       <use xlink:href="#DejaVuSans-30" x="190.869141"/>
      </g>
     </g>
    </g>
    <g id="xtick_4">
     <g id="line2d_4">
      <g>
       <use xlink:href="#m7eac5cbd01" x="325.984974" y="303.64" style="stroke: #000000; stroke-width: 0.8"/>
      </g>
     </g>
     <g id="text_4">
      <!-- 1500 -->
      <g transform="translate(313.259974 318.238437) scale(0.1 -0.1)">
       <use xlink:href="#DejaVuSans-31"/>
       <use xlink:href="#DejaVuSans-35" x="63.623047"/>
       <use xlink:href="#DejaVuSans-30" x="127.246094"/>
       <use xlink:href="#DejaVuSans-30" x="190.869141"/>
      </g>
     </g>
    </g>
    <g id="xtick_5">
     <g id="line2d_5">
      <g>
       <use xlink:href="#m7eac5cbd01" x="411.642541" y="303.64" style="stroke: #000000; stroke-width: 0.8"/>
      </g>
     </g>
     <g id="text_5">
      <!-- 2000 -->
      <g transform="translate(398.917541 318.238437) scale(0.1 -0.1)">
       <defs>
        <path id="DejaVuSans-32" d="M 1228 531 
L 3431 531 
L 3431 0 
L 469 0 
L 469 531 
Q 828 903 1448 1529 
Q 2069 2156 2228 2338 
Q 2531 2678 2651 2914 
Q 2772 3150 2772 3378 
Q 2772 3750 2511 3984 
Q 2250 4219 1831 4219 
Q 1534 4219 1204 4116 
Q 875 4013 500 3803 
L 500 4441 
Q 881 4594 1212 4672 
Q 1544 4750 1819 4750 
Q 2544 4750 2975 4387 
Q 3406 4025 3406 3419 
Q 3406 3131 3298 2873 
Q 3191 2616 2906 2266 
Q 2828 2175 2409 1742 
Q 1991 1309 1228 531 
z
" transform="scale(0.015625)"/>
       </defs>
       <use xlink:href="#DejaVuSans-32"/>
       <use xlink:href="#DejaVuSans-30" x="63.623047"/>
       <use xlink:href="#DejaVuSans-30" x="127.246094"/>
       <use xlink:href="#DejaVuSans-30" x="190.869141"/>
      </g>
     </g>
    </g>
    <g id="text_6">
     <!-- Accepted trials -->
     <g transform="translate(213.090469 331.916562) scale(0.1 -0.1)">
      <defs>
       <path id="DejaVuSans-41" d="M 2188 4044 
L 1331 1722 
L 3047 1722 
L 2188 4044 
z
M 1831 4666 
L 2547 4666 
L 4325 0 
L 3669 0 
L 3244 1197 
L 1141 1197 
L 716 0 
L 50 0 
L 1831 4666 
z
" transform="scale(0.015625)"/>
       <path id="DejaVuSans-63" d="M 3122 3366 
L 3122 2828 
Q 2878 2963 2633 3030 
Q 2388 3097 2138 3097 
Q 1578 3097 1268 2742 
Q 959 2388 959 1747 
Q 959 1106 1268 751 
Q 1578 397 2138 397 
Q 2388 397 2633 464 
Q 2878 531 3122 666 
L 3122 134 
Q 2881 22 2623 -34 
Q 2366 -91 2075 -91 
Q 1284 -91 818 406 
Q 353 903 353 1747 
Q 353 2603 823 3093 
Q 1294 3584 2113 3584 
Q 2378 3584 2631 3529 
Q 2884 3475 3122 3366 
z
" transform="scale(0.015625)"/>
       <path id="DejaVuSans-65" d="M 3597 1894 
L 3597 1613 
L 953 1613 
Q 991 1019 1311 708 
Q 1631 397 2203 397 
Q 2534 397 2845 478 
Q 3156 559 3463 722 
L 3463 178 
Q 3153 47 2828 -22 
Q 2503 -91 2169 -91 
Q 1331 -91 842 396 
Q 353 884 353 1716 
Q 353 2575 817 3079 
Q 1281 3584 2069 3584 
Q 2775 3584 3186 3129 
Q 3597 2675 3597 1894 
z
M 3022 2063 
Q 3016 2534 2758 2815 
Q 2500 3097 2075 3097 
Q 1594 3097 1305 2825 
Q 1016 2553 972 2059 
L 3022 2063 
z
" transform="scale(0.015625)"/>
       <path id="DejaVuSans-70" d="M 1159 525 
L 1159 -1331 
L 581 -1331 
L 581 3500 
L 1159 3500 
L 1159 2969 
Q 1341 3281 1617 3432 
Q 1894 3584 2278 3584 
Q 2916 3584 3314 3078 
Q 3713 2572 3713 1747 
Q 3713 922 3314 415 
Q 2916 -91 2278 -91 
Q 1894 -91 1617 61 
Q 1341 213 1159 525 
z
M 3116 1747 
Q 3116 2381 2855 2742 
Q 2594 3103 2138 3103 
Q 1681 3103 1420 2742 
Q 1159 2381 1159 1747 
Q 1159 1113 1420 752 
Q 1681 391 2138 391 
Q 2594 391 2855 752 
Q 3116 1113 3116 1747 
z
" transform="scale(0.015625)"/>
       <path id="DejaVuSans-74" d="M 1172 4494 
L 1172 3500 
L 2356 3500 
L 2356 3053 
L 1172 3053 
L 1172 1153 
Q 1172 725 1289 603 
Q 1406 481 1766 481 
L 2356 481 
L 2356 0 
L 1766 0 
Q 1100 0 847 248 
Q 594 497 594 1153 
L 594 3053 
L 172 3053 
L 172 3500 
L 594 3500 
L 594 4494 
L 1172 4494 
z
" transform="scale(0.015625)"/>
       <path id="DejaVuSans-64" d="M 2906 2969 
L 2906 4863 
L 3481 4863 
L 3481 0 
L 2906 0 
L 2906 525 
Q 2725 213 2448 61 
Q 2172 -91 1784 -91 
Q 1150 -91 751 415 
Q 353 922 353 1747 
Q 353 2572 751 3078 
Q 1150 3584 1784 3584 
Q 2172 3584 2448 3432 
Q 2725 3281 2906 2969 
z
M 947 1747 
Q 947 1113 1208 752 
Q 1469 391 1925 391 
Q 2381 391 2643 752 
Q 2906 1113 2906 1747 
Q 2906 2381 2643 2742 
Q 2381 3103 1925 3103 
Q 1469 3103 1208 2742 
Q 947 2381 947 1747 
z
" transform="scale(0.015625)"/>
       <path id="DejaVuSans-20" transform="scale(0.015625)"/>
       <path id="DejaVuSans-72" d="M 2631 2963 
Q 2534 3019 2420 3045 
Q 2306 3072 2169 3072 
Q 1681 3072 1420 2755 
Q 1159 2438 1159 1844 
L 1159 0 
L 581 0 
L 581 3500 
L 1159 3500 
L 1159 2956 
Q 1341 3275 1631 3429 
Q 1922 3584 2338 3584 
Q 2397 3584 2469 3576 
Q 2541 3569 2628 3553 
L 2631 2963 
z
" transform="scale(0.015625)"/>
       <path id="DejaVuSans-69" d="M 603 3500 
L 1178 3500 
L 1178 0 
L 603 0 
L 603 3500 
z
M 603 4863 
L 1178 4863 
L 1178 4134 
L 603 4134 
L 603 4863 
z
" transform="scale(0.015625)"/>
       <path id="DejaVuSans-61" d="M 2194 1759 
Q 1497 1759 1228 1600 
Q 959 1441 959 1056 
Q 959 750 1161 570 
Q 1363 391 1709 391 
Q 2188 391 2477 730 
Q 2766 1069 2766 1631 
L 2766 1759 
L 2194 1759 
z
M 3341 1997 
L 3341 0 
L 2766 0 
L 2766 531 
Q 2569 213 2275 61 
Q 1981 -91 1556 -91 
Q 1019 -91 701 211 
Q 384 513 384 1019 
Q 384 1609 779 1909 
Q 1175 2209 1959 2209 
L 2766 2209 
L 2766 2266 
Q 2766 2663 2505 2880 
Q 2244 3097 1772 3097 
Q 1472 3097 1187 3025 
Q 903 2953 641 2809 
L 641 3341 
Q 956 3463 1253 3523 
Q 1550 3584 1831 3584 
Q 2591 3584 2966 3190 
Q 3341 2797 3341 1997 
z
" transform="scale(0.015625)"/>
       <path id="DejaVuSans-6c" d="M 603 4863 
L 1178 4863 
L 1178 0 
L 603 0 
L 603 4863 
z
" transform="scale(0.015625)"/>
       <path id="DejaVuSans-73" d="M 2834 3397 
L 2834 2853 
Q 2591 2978 2328 3040 
Q 2066 3103 1784 3103 
Q 1356 3103 1142 2972 
Q 928 2841 928 2578 
Q 928 2378 1081 2264 
Q 1234 2150 1697 2047 
L 1894 2003 
Q 2506 1872 2764 1633 
Q 3022 1394 3022 966 
Q 3022 478 2636 193 
Q 2250 -91 1575 -91 
Q 1294 -91 989 -36 
Q 684 19 347 128 
L 347 722 
Q 666 556 975 473 
Q 1284 391 1588 391 
Q 1994 391 2212 530 
Q 2431 669 2431 922 
Q 2431 1156 2273 1281 
Q 2116 1406 1581 1522 
L 1381 1569 
Q 847 1681 609 1914 
Q 372 2147 372 2553 
Q 372 3047 722 3315 
Q 1072 3584 1716 3584 
Q 2034 3584 2315 3537 
Q 2597 3491 2834 3397 
z
" transform="scale(0.015625)"/>
      </defs>
      <use xlink:href="#DejaVuSans-41"/>
      <use xlink:href="#DejaVuSans-63" x="66.658203"/>
      <use xlink:href="#DejaVuSans-63" x="121.638672"/>
      <use xlink:href="#DejaVuSans-65" x="176.619141"/>
      <use xlink:href="#DejaVuSans-70" x="238.142578"/>
      <use xlink:href="#DejaVuSans-74" x="301.619141"/>
      <use xlink:href="#DejaVuSans-65" x="340.828125"/>
      <use xlink:href="#DejaVuSans-64" x="402.351562"/>
      <use xlink:href="#DejaVuSans-20" x="465.828125"/>
      <use xlink:href="#DejaVuSans-74" x="497.615234"/>
      <use xlink:href="#DejaVuSans-72" x="536.824219"/>
      <use xlink:href="#DejaVuSans-69" x="577.9375"/>
      <use xlink:href="#DejaVuSans-61" x="605.720703"/>
      <use xlink:href="#DejaVuSans-6c" x="667"/>
      <use xlink:href="#DejaVuSans-73" x="694.783203"/>
     </g>
    </g>
   </g>
   <g id="matplotlib.axis_2">
    <g id="ytick_1">
     <g id="line2d_6">
      <defs>
       <path id="maf8b0cdf55" d="M 0 0 
L -3.5 0 
" style="stroke: #000000; stroke-width: 0.8"/>
      </defs>
      <g>
       <use xlink:href="#maf8b0cdf55" x="50.87" y="300.128552" style="stroke: #000000; stroke-width: 0.8"/>
      </g>
     </g>
     <g id="text_7">
      <!-- 25 -->
      <g transform="translate(31.145 303.92777) scale(0.1 -0.1)">
       <use xlink:href="#DejaVuSans-32"/>
       <use xlink:href="#DejaVuSans-35" x="63.623047"/>
      </g>
     </g>
    </g>
    <g id="ytick_2">
     <g id="line2d_7">
      <g>
       <use xlink:href="#maf8b0cdf55" x="50.87" y="266.433933" style="stroke: #000000; stroke-width: 0.8"/>
      </g>
     </g>
     <g id="text_8">
      <!-- 50 -->
      <g transform="translate(31.145 270.233152) scale(0.1 -0.1)">
       <use xlink:href="#DejaVuSans-35"/>
       <use xlink:href="#DejaVuSans-30" x="63.623047"/>
      </g>
     </g>
    </g>
    <g id="ytick_3">
     <g id="line2d_8">
      <g>
       <use xlink:href="#maf8b0cdf55" x="50.87" y="232.739315" style="stroke: #000000; stroke-width: 0.8"/>
      </g>
     </g>
     <g id="text_9">
      <!-- 75 -->
      <g transform="translate(31.145 236.538534) scale(0.1 -0.1)">
       <defs>
        <path id="DejaVuSans-37" d="M 525 4666 
L 3525 4666 
L 3525 4397 
L 1831 0 
L 1172 0 
L 2766 4134 
L 525 4134 
L 525 4666 
z
" transform="scale(0.015625)"/>
       </defs>
       <use xlink:href="#DejaVuSans-37"/>
       <use xlink:href="#DejaVuSans-35" x="63.623047"/>
      </g>
     </g>
    </g>
    <g id="ytick_4">
     <g id="line2d_9">
      <g>
       <use xlink:href="#maf8b0cdf55" x="50.87" y="199.044697" style="stroke: #000000; stroke-width: 0.8"/>
      </g>
     </g>
     <g id="text_10">
      <!-- 100 -->
      <g transform="translate(24.7825 202.843916) scale(0.1 -0.1)">
       <use xlink:href="#DejaVuSans-31"/>
       <use xlink:href="#DejaVuSans-30" x="63.623047"/>
       <use xlink:href="#DejaVuSans-30" x="127.246094"/>
      </g>
     </g>
    </g>
    <g id="ytick_5">
     <g id="line2d_10">
      <g>
       <use xlink:href="#maf8b0cdf55" x="50.87" y="165.350079" style="stroke: #000000; stroke-width: 0.8"/>
      </g>
     </g>
     <g id="text_11">
      <!-- 125 -->
      <g transform="translate(24.7825 169.149298) scale(0.1 -0.1)">
       <use xlink:href="#DejaVuSans-31"/>
       <use xlink:href="#DejaVuSans-32" x="63.623047"/>
       <use xlink:href="#DejaVuSans-35" x="127.246094"/>
      </g>
     </g>
    </g>
    <g id="ytick_6">
     <g id="line2d_11">
      <g>
       <use xlink:href="#maf8b0cdf55" x="50.87" y="131.655461" style="stroke: #000000; stroke-width: 0.8"/>
      </g>
     </g>
     <g id="text_12">
      <!-- 150 -->
      <g transform="translate(24.7825 135.454679) scale(0.1 -0.1)">
       <use xlink:href="#DejaVuSans-31"/>
       <use xlink:href="#DejaVuSans-35" x="63.623047"/>
       <use xlink:href="#DejaVuSans-30" x="127.246094"/>
      </g>
     </g>
    </g>
    <g id="ytick_7">
     <g id="line2d_12">
      <g>
       <use xlink:href="#maf8b0cdf55" x="50.87" y="97.960842" style="stroke: #000000; stroke-width: 0.8"/>
      </g>
     </g>
     <g id="text_13">
      <!-- 175 -->
      <g transform="translate(24.7825 101.760061) scale(0.1 -0.1)">
       <use xlink:href="#DejaVuSans-31"/>
       <use xlink:href="#DejaVuSans-37" x="63.623047"/>
       <use xlink:href="#DejaVuSans-35" x="127.246094"/>
      </g>
     </g>
    </g>
    <g id="ytick_8">
     <g id="line2d_13">
      <g>
       <use xlink:href="#maf8b0cdf55" x="50.87" y="64.266224" style="stroke: #000000; stroke-width: 0.8"/>
      </g>
     </g>
     <g id="text_14">
      <!-- 200 -->
      <g transform="translate(24.7825 68.065443) scale(0.1 -0.1)">
       <use xlink:href="#DejaVuSans-32"/>
       <use xlink:href="#DejaVuSans-30" x="63.623047"/>
       <use xlink:href="#DejaVuSans-30" x="127.246094"/>
      </g>
     </g>
    </g>
    <g id="ytick_9">
     <g id="line2d_14">
      <g>
       <use xlink:href="#maf8b0cdf55" x="50.87" y="30.571606" style="stroke: #000000; stroke-width: 0.8"/>
      </g>
     </g>
     <g id="text_15">
      <!-- 225 -->
      <g transform="translate(24.7825 34.370825) scale(0.1 -0.1)">
       <use xlink:href="#DejaVuSans-32"/>
       <use xlink:href="#DejaVuSans-32" x="63.623047"/>
       <use xlink:href="#DejaVuSans-35" x="127.246094"/>
      </g>
     </g>
    </g>
    <g id="text_16">
     <!-- Condition number -->
     <g transform="translate(18.702813 202.183281) rotate(-90) scale(0.1 -0.1)">
      <defs>
       <path id="DejaVuSans-43" d="M 4122 4306 
L 4122 3641 
Q 3803 3938 3442 4084 
Q 3081 4231 2675 4231 
Q 1875 4231 1450 3742 
Q 1025 3253 1025 2328 
Q 1025 1406 1450 917 
Q 1875 428 2675 428 
Q 3081 428 3442 575 
Q 3803 722 4122 1019 
L 4122 359 
Q 3791 134 3420 21 
Q 3050 -91 2638 -91 
Q 1578 -91 968 557 
Q 359 1206 359 2328 
Q 359 3453 968 4101 
Q 1578 4750 2638 4750 
Q 3056 4750 3426 4639 
Q 3797 4528 4122 4306 
z
" transform="scale(0.015625)"/>
       <path id="DejaVuSans-6f" d="M 1959 3097 
Q 1497 3097 1228 2736 
Q 959 2375 959 1747 
Q 959 1119 1226 758 
Q 1494 397 1959 397 
Q 2419 397 2687 759 
Q 2956 1122 2956 1747 
Q 2956 2369 2687 2733 
Q 2419 3097 1959 3097 
z
M 1959 3584 
Q 2709 3584 3137 3096 
Q 3566 2609 3566 1747 
Q 3566 888 3137 398 
Q 2709 -91 1959 -91 
Q 1206 -91 779 398 
Q 353 888 353 1747 
Q 353 2609 779 3096 
Q 1206 3584 1959 3584 
z
" transform="scale(0.015625)"/>
       <path id="DejaVuSans-6e" d="M 3513 2113 
L 3513 0 
L 2938 0 
L 2938 2094 
Q 2938 2591 2744 2837 
Q 2550 3084 2163 3084 
Q 1697 3084 1428 2787 
Q 1159 2491 1159 1978 
L 1159 0 
L 581 0 
L 581 3500 
L 1159 3500 
L 1159 2956 
Q 1366 3272 1645 3428 
Q 1925 3584 2291 3584 
Q 2894 3584 3203 3211 
Q 3513 2838 3513 2113 
z
" transform="scale(0.015625)"/>
       <path id="DejaVuSans-75" d="M 544 1381 
L 544 3500 
L 1119 3500 
L 1119 1403 
Q 1119 906 1312 657 
Q 1506 409 1894 409 
Q 2359 409 2629 706 
Q 2900 1003 2900 1516 
L 2900 3500 
L 3475 3500 
L 3475 0 
L 2900 0 
L 2900 538 
Q 2691 219 2414 64 
Q 2138 -91 1772 -91 
Q 1169 -91 856 284 
Q 544 659 544 1381 
z
M 1991 3584 
L 1991 3584 
z
" transform="scale(0.015625)"/>
       <path id="DejaVuSans-6d" d="M 3328 2828 
Q 3544 3216 3844 3400 
Q 4144 3584 4550 3584 
Q 5097 3584 5394 3201 
Q 5691 2819 5691 2113 
L 5691 0 
L 5113 0 
L 5113 2094 
Q 5113 2597 4934 2840 
Q 4756 3084 4391 3084 
Q 3944 3084 3684 2787 
Q 3425 2491 3425 1978 
L 3425 0 
L 2847 0 
L 2847 2094 
Q 2847 2600 2669 2842 
Q 2491 3084 2119 3084 
Q 1678 3084 1418 2786 
Q 1159 2488 1159 1978 
L 1159 0 
L 581 0 
L 581 3500 
L 1159 3500 
L 1159 2956 
Q 1356 3278 1631 3431 
Q 1906 3584 2284 3584 
Q 2666 3584 2933 3390 
Q 3200 3197 3328 2828 
z
" transform="scale(0.015625)"/>
       <path id="DejaVuSans-62" d="M 3116 1747 
Q 3116 2381 2855 2742 
Q 2594 3103 2138 3103 
Q 1681 3103 1420 2742 
Q 1159 2381 1159 1747 
Q 1159 1113 1420 752 
Q 1681 391 2138 391 
Q 2594 391 2855 752 
Q 3116 1113 3116 1747 
z
M 1159 2969 
Q 1341 3281 1617 3432 
Q 1894 3584 2278 3584 
Q 2916 3584 3314 3078 
Q 3713 2572 3713 1747 
Q 3713 922 3314 415 
Q 2916 -91 2278 -91 
Q 1894 -91 1617 61 
Q 1341 213 1159 525 
L 1159 0 
L 581 0 
L 581 4863 
L 1159 4863 
L 1159 2969 
z
" transform="scale(0.015625)"/>
      </defs>
      <use xlink:href="#DejaVuSans-43"/>
      <use xlink:href="#DejaVuSans-6f" x="69.824219"/>
      <use xlink:href="#DejaVuSans-6e" x="131.005859"/>
      <use xlink:href="#DejaVuSans-64" x="194.384766"/>
      <use xlink:href="#DejaVuSans-69" x="257.861328"/>
      <use xlink:href="#DejaVuSans-74" x="285.644531"/>
      <use xlink:href="#DejaVuSans-69" x="324.853516"/>
      <use xlink:href="#DejaVuSans-6f" x="352.636719"/>
      <use xlink:href="#DejaVuSans-6e" x="413.818359"/>
      <use xlink:href="#DejaVuSans-20" x="477.197266"/>
      <use xlink:href="#DejaVuSans-6e" x="508.984375"/>
      <use xlink:href="#DejaVuSans-75" x="572.363281"/>
      <use xlink:href="#DejaVuSans-6d" x="635.742188"/>
      <use xlink:href="#DejaVuSans-62" x="733.154297"/>
      <use xlink:href="#DejaVuSans-65" x="796.630859"/>
      <use xlink:href="#DejaVuSans-72" x="858.154297"/>
     </g>
    </g>
   </g>
   <g id="line2d_15">
    <path d="M 69.012273 27.487904 
L 69.183588 24.110909 
L 69.354903 27.400838 
L 69.526218 47.450765 
L 69.697533 48.100631 
L 69.868848 55.552117 
L 70.040164 52.404594 
L 70.211479 55.739293 
L 70.382794 67.890605 
L 70.725424 67.320977 
L 70.896739 66.70101 
L 71.068054 76.356298 
L 71.239369 69.406158 
L 71.410685 70.548393 
L 71.582 74.621613 
L 71.92463 70.780665 
L 72.26726 81.38604 
L 72.438575 85.13034 
L 72.609891 86.176125 
L 72.952521 96.298609 
L 73.295151 87.793707 
L 73.466466 80.240087 
L 73.637781 79.790755 
L 73.809096 88.032527 
L 73.980412 88.319899 
L 74.151727 110.253457 
L 74.323042 108.400638 
L 74.665672 103.757303 
L 74.836987 108.910295 
L 75.008302 122.014787 
L 75.350933 122.375477 
L 75.522248 122.110217 
L 75.693563 127.142693 
L 75.864878 128.500462 
L 76.036193 135.479929 
L 76.207508 136.137598 
L 76.378824 136.044237 
L 76.550139 144.256347 
L 76.721454 146.323189 
L 77.064084 167.591214 
L 77.235399 167.566606 
L 77.406714 156.573537 
L 77.578029 162.712094 
L 77.749345 163.256857 
L 77.92066 164.583399 
L 78.091975 167.525225 
L 78.26329 162.858332 
L 78.434605 162.558753 
L 78.60592 163.286827 
L 78.777235 168.664215 
L 78.948551 166.125213 
L 79.119866 166.40583 
L 79.291181 164.851174 
L 79.462496 166.23481 
L 79.633811 165.345437 
L 79.805126 166.300019 
L 79.976441 161.620848 
L 80.147756 162.34345 
L 80.661702 172.227051 
L 80.833017 174.770216 
L 81.004332 183.575854 
L 81.175647 183.134742 
L 81.346962 184.180329 
L 81.518278 184.388264 
L 81.689593 183.434426 
L 81.860908 183.188075 
L 82.032223 192.694145 
L 82.203538 193.320954 
L 82.374853 197.404048 
L 82.888799 200.168271 
L 83.060114 198.845576 
L 83.231429 193.162461 
L 83.402744 195.208986 
L 83.574059 191.912208 
L 83.745374 194.320422 
L 84.088005 195.474162 
L 84.25932 207.453638 
L 84.430635 207.941805 
L 84.60195 209.064211 
L 84.773265 212.37668 
L 84.94458 209.908432 
L 85.115895 209.919541 
L 85.28721 206.415666 
L 85.458526 217.340867 
L 85.629841 218.325391 
L 85.972471 225.424819 
L 86.143786 226.896131 
L 86.315101 225.968549 
L 86.486416 226.046655 
L 86.657732 224.440111 
L 86.829047 218.94678 
L 87.171677 231.25127 
L 87.342992 233.641087 
L 87.514307 232.838605 
L 87.685622 234.772731 
L 87.856938 234.954097 
L 88.028253 234.401984 
L 88.370883 238.564218 
L 88.542198 238.447155 
L 88.713513 238.842534 
L 89.056143 237.340917 
L 89.227459 239.635123 
L 89.398774 239.881913 
L 89.570089 239.754221 
L 89.741404 240.376986 
L 89.912719 239.354007 
L 90.255349 238.948867 
L 90.426665 239.039803 
L 90.769295 249.829538 
L 90.94061 249.625537 
L 91.111925 250.027231 
L 91.28324 250.083643 
L 91.454555 242.558865 
L 91.62587 242.445693 
L 91.968501 240.448905 
L 92.139816 239.217556 
L 92.311131 239.256391 
L 92.653761 235.70062 
L 92.825076 236.012327 
L 92.996392 236.650221 
L 93.167707 237.787863 
L 93.510337 232.777918 
L 93.852967 233.696692 
L 94.195597 235.738453 
L 94.366913 235.488615 
L 94.538228 236.026614 
L 94.709543 235.943862 
L 94.880858 236.599939 
L 95.052173 235.805778 
L 95.394803 238.710549 
L 95.737434 236.689216 
L 96.251379 239.49216 
L 96.422694 241.136923 
L 96.765324 236.470381 
L 96.93664 235.48047 
L 97.107955 236.093799 
L 97.450585 233.873336 
L 97.6219 232.96229 
L 97.96453 237.231607 
L 98.135846 236.673642 
L 98.307161 236.907934 
L 98.478476 234.289965 
L 98.649791 233.936224 
L 98.821106 234.547055 
L 98.992421 238.269081 
L 99.163736 235.184457 
L 99.335052 235.519181 
L 99.506367 235.411783 
L 100.020312 234.54793 
L 100.191627 231.280736 
L 100.362942 231.536015 
L 100.534257 232.256803 
L 100.705573 231.465058 
L 100.876888 231.408412 
L 101.048203 240.115371 
L 101.219518 237.570671 
L 101.390833 239.928395 
L 101.733463 238.010363 
L 101.904779 238.023462 
L 102.076094 239.046899 
L 102.247409 238.521245 
L 102.418724 239.380789 
L 102.761354 232.949765 
L 102.932669 232.328548 
L 103.2753 230.000171 
L 103.446615 231.928709 
L 103.61793 232.178852 
L 103.789245 228.571516 
L 104.131875 229.675454 
L 104.30319 231.740017 
L 104.474506 232.394353 
L 104.817136 237.550462 
L 104.988451 237.278783 
L 105.159766 235.167456 
L 105.331081 237.604045 
L 105.673711 230.675878 
L 105.845027 231.852165 
L 106.016342 231.188637 
L 106.187657 231.779397 
L 106.701602 229.923506 
L 107.044233 226.046172 
L 107.215548 226.99438 
L 107.386863 226.550077 
L 107.558178 226.90917 
L 107.729493 233.494928 
L 108.072123 227.577983 
L 108.243438 228.432544 
L 108.414754 231.333705 
L 108.586069 225.594853 
L 108.757384 223.58697 
L 108.928699 223.449346 
L 109.100014 225.155423 
L 109.271329 229.751497 
L 109.442644 230.584924 
L 109.61396 230.785281 
L 109.785275 228.663246 
L 109.95659 229.600915 
L 110.127905 229.709944 
L 110.64185 218.026881 
L 110.813166 218.326736 
L 110.984481 218.3203 
L 111.155796 213.718327 
L 111.327111 214.956947 
L 111.498426 219.346408 
L 111.669741 219.202992 
L 112.012371 217.987201 
L 112.183687 218.366449 
L 112.355002 219.02706 
L 112.526317 216.915369 
L 112.697632 210.887533 
L 112.868947 210.277971 
L 113.040262 208.889923 
L 113.211577 215.280894 
L 113.382893 216.022556 
L 113.554208 215.42639 
L 113.725523 219.222443 
L 113.896838 218.868602 
L 114.068153 219.056876 
L 114.239468 217.435832 
L 114.410783 213.518606 
L 114.582098 214.027381 
L 114.753414 214.030941 
L 114.924729 219.256284 
L 115.267359 214.689259 
L 115.438674 218.319804 
L 115.609989 219.128158 
L 115.781304 217.063725 
L 115.95262 217.939251 
L 116.123935 220.714642 
L 116.29525 221.418008 
L 116.466565 221.503444 
L 116.63788 222.656955 
L 116.809195 222.933334 
L 116.98051 225.170384 
L 117.323141 220.022491 
L 117.494456 221.592948 
L 117.837086 217.370596 
L 118.008401 217.180304 
L 118.179716 215.218706 
L 118.351031 214.999834 
L 118.522347 215.807142 
L 118.693662 215.424798 
L 118.864977 215.648749 
L 119.036292 214.914478 
L 119.207607 211.529152 
L 119.378922 213.317529 
L 119.550237 212.604601 
L 119.721552 212.635035 
L 120.064183 213.534525 
L 120.235498 211.881157 
L 120.406813 206.198107 
L 120.578128 206.545693 
L 120.749443 212.987807 
L 121.434704 219.940113 
L 121.606019 219.811197 
L 122.119964 224.691143 
L 122.29128 222.088922 
L 122.462595 223.897667 
L 122.63391 224.29004 
L 122.805225 226.746324 
L 122.97654 218.459991 
L 123.147855 221.988795 
L 123.31917 221.804045 
L 123.490485 220.139147 
L 123.661801 220.221679 
L 124.004431 227.238937 
L 124.175746 227.508945 
L 124.347061 226.293461 
L 124.518376 222.819634 
L 124.689691 221.630467 
L 125.032322 224.714383 
L 125.203637 223.604209 
L 125.374952 224.385258 
L 125.546267 222.922696 
L 125.717582 225.092608 
L 125.888897 229.858087 
L 126.060212 229.244081 
L 126.231528 231.255747 
L 126.402843 231.361957 
L 126.574158 228.614041 
L 126.745473 229.313651 
L 126.916788 229.356102 
L 127.088103 228.855042 
L 127.259418 228.819862 
L 127.430734 229.323616 
L 127.602049 228.263325 
L 127.773364 229.280504 
L 128.115994 228.451218 
L 128.287309 226.133188 
L 128.458624 226.110953 
L 128.801255 234.168091 
L 128.97257 234.376938 
L 129.143885 231.852272 
L 129.3152 232.117803 
L 129.486515 230.160588 
L 129.65783 230.777147 
L 129.829145 230.187744 
L 130.171776 231.625841 
L 130.514406 230.771883 
L 130.857036 233.649333 
L 131.028351 234.35653 
L 131.199666 231.773775 
L 131.370982 231.034252 
L 132.227557 235.18135 
L 132.398872 234.96403 
L 132.570188 235.414083 
L 132.741503 241.351662 
L 132.912818 240.330615 
L 133.084133 237.734723 
L 133.426763 242.893044 
L 133.598078 241.633297 
L 133.769394 242.506293 
L 133.940709 241.718058 
L 134.112024 241.693337 
L 134.283339 240.550208 
L 134.625969 241.801769 
L 134.968599 240.64903 
L 135.139915 241.823991 
L 135.482545 241.348519 
L 135.65386 241.495104 
L 135.825175 236.85463 
L 135.99649 236.564566 
L 136.339121 237.284522 
L 136.510436 237.178542 
L 136.681751 236.683469 
L 136.853066 239.656117 
L 137.024381 239.971684 
L 137.195696 238.1047 
L 137.367011 237.969944 
L 137.538326 238.051906 
L 137.709642 243.312576 
L 137.880957 244.202336 
L 138.052272 242.825651 
L 138.223587 240.213921 
L 138.394902 241.569698 
L 138.737532 238.775001 
L 138.908848 239.700711 
L 139.080163 239.829278 
L 139.251478 243.46276 
L 139.422793 241.903297 
L 139.594108 241.576264 
L 139.765423 240.910175 
L 140.108053 238.976924 
L 140.621999 239.969552 
L 140.793314 235.919561 
L 140.964629 235.701186 
L 141.478575 242.255907 
L 141.821205 238.122392 
L 141.99252 237.883811 
L 142.163835 237.963281 
L 142.506465 237.833452 
L 142.67778 239.770662 
L 142.849096 238.43111 
L 143.020411 238.338011 
L 143.191726 238.70703 
L 143.363041 238.132017 
L 143.534356 239.986405 
L 143.705671 240.417191 
L 143.876986 240.51233 
L 144.048302 239.501357 
L 144.219617 244.593079 
L 144.390932 240.795601 
L 144.562247 240.842635 
L 144.733562 240.360772 
L 144.904877 240.437387 
L 145.076192 241.253952 
L 145.247508 240.910116 
L 145.418823 241.09781 
L 146.104083 243.956079 
L 146.275398 246.91539 
L 146.618029 244.112703 
L 146.789344 245.205249 
L 146.960659 245.268046 
L 147.131974 241.513147 
L 147.303289 242.890308 
L 147.474604 241.856461 
L 147.645919 241.676456 
L 147.98855 239.219464 
L 148.159865 240.738259 
L 148.502495 239.716088 
L 148.67381 239.361258 
L 148.845125 234.569714 
L 149.01644 235.21452 
L 149.187756 234.844598 
L 149.359071 233.378029 
L 149.530386 234.23394 
L 149.701701 229.160808 
L 149.873016 229.659468 
L 150.044331 230.819171 
L 150.215646 230.46138 
L 150.386962 222.513027 
L 150.558277 221.026312 
L 150.729592 221.518393 
L 151.072222 221.604422 
L 151.414852 225.05691 
L 151.586167 226.5923 
L 151.757483 226.431244 
L 151.928798 227.785026 
L 152.100113 227.704139 
L 152.271428 224.793554 
L 152.614058 225.514968 
L 153.128004 219.965537 
L 153.299319 219.030142 
L 153.470634 219.037771 
L 153.641949 219.260896 
L 153.813264 219.777885 
L 154.155894 223.427566 
L 154.66984 222.404279 
L 155.01247 226.932425 
L 155.183785 228.255264 
L 155.3551 228.128179 
L 155.697731 222.83893 
L 155.869046 222.254177 
L 156.040361 222.150133 
L 156.211676 221.402683 
L 156.554306 225.481032 
L 156.725622 225.320447 
L 157.068252 225.456818 
L 157.239567 225.984626 
L 157.410882 222.17081 
L 157.582197 226.227507 
L 157.753512 225.013901 
L 157.924827 224.629496 
L 158.438773 225.844187 
L 158.610088 225.813166 
L 158.781403 225.511378 
L 158.952718 227.025199 
L 159.124033 226.393163 
L 159.466664 228.707487 
L 159.637979 231.994764 
L 159.809294 232.617881 
L 159.980609 232.766306 
L 160.151924 232.480609 
L 160.323239 232.480609 
L 160.494554 234.942309 
L 160.66587 234.821906 
L 160.837185 234.400679 
L 161.0085 235.665496 
L 161.179815 235.848861 
L 161.35113 236.888873 
L 161.522445 237.18747 
L 161.69376 236.562176 
L 161.865076 237.622801 
L 162.036391 237.438926 
L 162.379021 235.43332 
L 162.550336 228.147462 
L 162.721651 225.848308 
L 162.892966 225.463223 
L 163.406912 233.383833 
L 163.578227 234.22094 
L 163.920857 233.616574 
L 164.263487 235.598829 
L 164.434803 235.561917 
L 164.606118 236.537013 
L 164.777433 236.489754 
L 164.948748 237.008024 
L 165.120063 238.629983 
L 165.291378 238.571048 
L 165.462693 238.634516 
L 165.634008 238.203674 
L 165.805324 241.779036 
L 165.976639 241.868977 
L 166.147954 241.35111 
L 166.319269 239.152895 
L 166.490584 239.696583 
L 166.661899 239.292037 
L 166.833214 239.595367 
L 167.00453 238.068619 
L 167.175845 239.715516 
L 167.34716 238.382725 
L 167.518475 240.78078 
L 167.68979 240.608194 
L 167.861105 239.772055 
L 168.203736 241.810719 
L 168.375051 241.888167 
L 168.546366 243.358226 
L 168.717681 243.582548 
L 168.888996 246.3259 
L 169.060311 251.167654 
L 169.231626 249.676077 
L 169.402941 249.44912 
L 169.574257 251.500639 
L 169.745572 250.743879 
L 169.916887 251.270814 
L 170.088202 249.939714 
L 170.259517 250.486211 
L 170.430832 249.967293 
L 170.773463 250.514185 
L 171.116093 248.203778 
L 171.287408 250.177881 
L 171.458723 246.187053 
L 171.630038 245.910087 
L 171.801353 245.868807 
L 171.972668 243.338793 
L 172.143984 236.284944 
L 172.315299 234.516767 
L 172.486614 238.491876 
L 173.171874 240.903566 
L 173.514505 237.947056 
L 173.68582 239.41589 
L 173.857135 238.933952 
L 174.02845 241.790785 
L 174.199765 242.098316 
L 174.37108 244.600375 
L 174.542395 243.751296 
L 174.713711 244.211249 
L 174.885026 242.578653 
L 175.227656 244.301011 
L 175.570286 245.742084 
L 175.912917 241.336777 
L 176.084232 241.62689 
L 176.255547 241.090585 
L 176.598177 245.002781 
L 176.769492 245.293251 
L 176.940807 243.049665 
L 177.112122 244.554497 
L 177.283438 244.448164 
L 177.454753 246.27097 
L 177.626068 246.339529 
L 177.797383 245.451057 
L 177.968698 245.415967 
L 178.140013 241.338843 
L 178.311328 242.096544 
L 178.482644 241.536316 
L 178.825274 243.324843 
L 178.996589 243.32195 
L 179.167904 243.882916 
L 179.339219 243.819685 
L 179.510534 243.948252 
L 179.68185 246.423354 
L 179.853165 241.458119 
L 180.02448 241.672379 
L 180.195795 241.643801 
L 180.36711 241.002254 
L 180.538425 240.94427 
L 180.881055 238.091364 
L 181.223686 239.255704 
L 181.395001 239.397272 
L 181.737631 237.919698 
L 181.908946 237.932062 
L 182.080261 238.198214 
L 182.251577 238.928985 
L 182.422892 237.811197 
L 182.594207 235.756695 
L 182.765522 236.42091 
L 182.936837 236.45973 
L 183.108152 236.148379 
L 183.450782 237.53269 
L 184.136043 244.722675 
L 184.307358 244.292488 
L 184.649988 245.817328 
L 184.821304 245.356335 
L 184.992619 243.981241 
L 185.163934 244.183562 
L 185.335249 242.700355 
L 185.506564 242.5925 
L 185.677879 243.838369 
L 185.849194 247.258595 
L 186.020509 248.009647 
L 186.36314 243.818359 
L 186.534455 243.022232 
L 186.70577 243.421201 
L 186.877085 242.474033 
L 187.0484 244.715633 
L 187.219715 244.905847 
L 187.391031 244.891872 
L 187.733661 248.532442 
L 188.076291 250.385572 
L 188.247606 250.677436 
L 188.418921 246.868889 
L 188.590237 247.550357 
L 188.932867 247.024044 
L 189.104182 246.891779 
L 189.275497 246.999498 
L 189.618127 244.170168 
L 189.789442 244.859805 
L 190.132073 244.310063 
L 190.303388 244.341304 
L 190.474703 245.282892 
L 190.817333 249.671229 
L 191.159964 250.283973 
L 191.331279 251.586622 
L 191.502594 251.429611 
L 191.673909 252.99478 
L 191.845224 252.935652 
L 192.187854 253.765443 
L 192.359169 252.430019 
L 192.530485 254.593403 
L 192.873115 254.047505 
L 193.04443 255.272511 
L 193.215745 254.239717 
L 193.38706 254.979054 
L 193.558375 254.609109 
L 193.901006 252.425147 
L 194.243636 252.08872 
L 194.586266 249.084889 
L 194.757581 249.469199 
L 195.271527 251.996286 
L 195.442842 251.258989 
L 195.614157 251.077913 
L 195.785472 251.871357 
L 195.956787 251.884659 
L 196.128102 250.259768 
L 196.642048 251.917362 
L 196.813363 250.885681 
L 197.155993 253.079633 
L 197.327308 252.659108 
L 197.498623 253.5099 
L 197.669939 253.683818 
L 197.841254 254.360692 
L 198.012569 255.750635 
L 198.183884 255.475861 
L 198.355199 254.100873 
L 198.526514 249.952034 
L 198.697829 252.159726 
L 198.869145 252.013181 
L 199.04046 256.908244 
L 199.211775 256.212783 
L 199.38309 256.445583 
L 199.72572 257.497766 
L 200.068351 254.456724 
L 200.239666 256.102611 
L 200.582296 253.927957 
L 200.753611 254.771787 
L 200.924926 252.541836 
L 201.096241 252.361597 
L 201.267556 254.722402 
L 201.438872 255.049815 
L 201.610187 253.847228 
L 201.952817 255.806586 
L 202.124132 257.2987 
L 202.295447 256.901579 
L 202.466762 257.588049 
L 202.638078 256.900738 
L 202.809393 257.077915 
L 202.980708 258.228285 
L 203.152023 257.825702 
L 203.323338 257.95998 
L 203.494653 257.130962 
L 203.665968 254.82645 
L 203.837283 255.377366 
L 204.008599 254.185298 
L 204.179914 254.448855 
L 204.522544 256.957542 
L 204.693859 255.414472 
L 205.036489 255.625529 
L 205.37912 255.98084 
L 205.550435 254.528106 
L 205.72175 254.367425 
L 205.893065 254.950342 
L 206.06438 256.430122 
L 206.235695 256.524045 
L 206.40701 252.678684 
L 206.749641 252.603166 
L 206.920956 251.574382 
L 207.092271 249.825041 
L 207.263586 251.474363 
L 207.434901 251.422911 
L 207.606216 249.604869 
L 207.777532 251.407584 
L 207.948847 251.076003 
L 208.120162 252.111245 
L 208.462792 252.111038 
L 208.805422 249.388862 
L 208.976737 250.594254 
L 209.148053 248.40428 
L 209.319368 247.853461 
L 209.833313 253.5583 
L 210.004628 254.351745 
L 210.175943 254.342555 
L 210.347259 250.792999 
L 210.518574 253.674072 
L 210.689889 254.066647 
L 210.861204 250.412449 
L 211.032519 250.134962 
L 211.203834 248.208764 
L 211.375149 248.202062 
L 211.546465 248.328146 
L 211.71778 247.079709 
L 211.889095 247.025055 
L 212.231725 247.785798 
L 212.40304 246.106239 
L 212.574355 246.366206 
L 212.74567 245.311542 
L 212.916986 245.530725 
L 213.088301 248.357677 
L 213.259616 246.699431 
L 213.430931 247.452986 
L 213.602246 247.478801 
L 213.773561 248.734319 
L 213.944876 247.701267 
L 214.116192 245.467793 
L 214.458822 246.88753 
L 214.630137 247.867817 
L 214.801452 248.044542 
L 215.144082 246.78871 
L 215.315397 243.49716 
L 215.486713 243.997278 
L 216.171973 249.649721 
L 216.343288 250.719932 
L 216.514603 249.959166 
L 216.685919 249.887498 
L 216.857234 248.599757 
L 217.028549 248.703634 
L 217.199864 246.725518 
L 217.371179 246.538449 
L 217.542494 250.21093 
L 217.885124 245.601212 
L 218.05644 244.604266 
L 218.227755 245.338053 
L 218.39907 244.876697 
L 218.570385 243.88727 
L 218.7417 243.603074 
L 219.08433 236.793532 
L 219.255646 235.999797 
L 219.598276 239.586963 
L 219.940906 239.39525 
L 220.283536 244.398624 
L 220.454851 243.974882 
L 220.626167 240.757173 
L 220.797482 240.446503 
L 220.968797 240.534787 
L 221.140112 241.309833 
L 221.311427 237.487539 
L 221.482742 240.688971 
L 221.654057 239.425945 
L 221.825373 243.60754 
L 221.996688 242.690296 
L 222.339318 245.673616 
L 222.510633 242.956763 
L 222.681948 243.06352 
L 222.853263 243.477766 
L 223.024579 246.87292 
L 223.195894 246.060056 
L 223.367209 246.748677 
L 223.709839 252.838271 
L 223.881154 252.248138 
L 224.052469 252.108108 
L 224.3951 254.411712 
L 224.566415 254.647319 
L 224.909045 256.095184 
L 225.42299 252.32047 
L 225.594306 251.671861 
L 225.765621 256.109139 
L 226.108251 255.977397 
L 226.279566 255.423634 
L 226.450881 254.418982 
L 226.622196 258.445205 
L 226.964827 256.511561 
L 227.136142 255.34669 
L 227.478772 256.320771 
L 227.650087 254.65322 
L 227.821402 256.218723 
L 227.992717 256.396393 
L 228.164033 257.357521 
L 228.335348 255.488386 
L 228.506663 257.361032 
L 228.677978 256.447875 
L 228.849293 256.597963 
L 229.020608 256.454498 
L 229.191923 258.968193 
L 229.363238 258.469682 
L 229.534554 259.883417 
L 229.877184 259.754381 
L 230.219814 259.888876 
L 230.391129 259.860216 
L 230.562444 259.703387 
L 230.73376 257.149541 
L 230.905075 256.896972 
L 231.07639 258.174075 
L 231.247705 258.247897 
L 231.41902 256.894181 
L 231.590335 258.802561 
L 231.932965 259.467896 
L 232.104281 259.399716 
L 232.275596 256.677172 
L 232.446911 257.334036 
L 232.789541 257.48412 
L 232.960856 257.520298 
L 233.132171 259.569863 
L 233.303487 259.406369 
L 233.474802 259.782292 
L 233.646117 259.812703 
L 233.817432 259.979552 
L 233.988747 259.156442 
L 234.160062 259.173286 
L 234.331377 258.71697 
L 234.674008 258.615353 
L 234.845323 258.73687 
L 235.016638 258.352144 
L 235.530583 260.184873 
L 235.873214 259.843006 
L 236.044529 259.467412 
L 236.215844 257.766085 
L 236.387159 258.807835 
L 236.558474 258.486217 
L 236.901104 259.135954 
L 237.07242 259.108201 
L 237.243735 255.402489 
L 237.41505 255.795049 
L 237.586365 254.78681 
L 237.75768 255.314323 
L 237.928995 255.441876 
L 238.10031 255.727109 
L 238.271625 257.825214 
L 239.299516 261.07153 
L 239.470831 261.108425 
L 239.642147 261.936818 
L 239.813462 261.073235 
L 240.156092 262.06323 
L 240.498722 258.971861 
L 240.670037 258.122747 
L 240.841352 258.657387 
L 241.012668 256.720038 
L 241.183983 257.661736 
L 241.355298 261.049999 
L 241.526613 261.555865 
L 241.697928 262.607106 
L 241.869243 260.749492 
L 242.040558 260.927335 
L 242.211874 262.284534 
L 242.554504 262.323947 
L 242.725819 265.195127 
L 242.897134 265.410678 
L 243.239764 267.612465 
L 243.411079 267.024327 
L 243.582395 264.511202 
L 243.925025 265.18968 
L 244.09634 265.222608 
L 244.267655 265.456007 
L 244.781601 261.99738 
L 245.124231 263.668757 
L 245.295546 262.991945 
L 245.466861 263.594297 
L 245.638176 262.088468 
L 245.809491 264.018495 
L 245.980807 263.388304 
L 246.323437 266.26135 
L 246.494752 266.388893 
L 246.666067 266.987907 
L 246.837382 266.059806 
L 247.008697 266.169493 
L 247.351328 265.766794 
L 247.522643 264.84913 
L 247.865273 267.47423 
L 248.036588 267.320333 
L 248.207903 266.937126 
L 248.550534 263.920955 
L 248.721849 260.658822 
L 248.893164 265.085743 
L 249.064479 264.96617 
L 249.235794 265.6268 
L 249.407109 262.571701 
L 249.578424 263.505556 
L 249.749739 262.817816 
L 249.921055 262.646626 
L 250.263685 261.681985 
L 250.435 262.149958 
L 250.606315 261.211807 
L 250.77763 261.064305 
L 250.948945 261.335743 
L 251.120261 261.285615 
L 251.291576 262.043373 
L 251.634206 262.123985 
L 251.805521 261.747273 
L 251.976836 261.702416 
L 252.148151 261.482733 
L 252.319466 260.704335 
L 252.490782 259.284614 
L 252.833412 261.414544 
L 253.004727 260.167266 
L 253.176042 261.447982 
L 253.347357 260.720167 
L 253.518672 260.59058 
L 253.689988 260.633229 
L 254.203933 261.981727 
L 254.375248 260.649652 
L 254.546563 260.785992 
L 254.717878 259.765421 
L 254.889193 260.557465 
L 255.060509 259.830644 
L 255.231824 259.757225 
L 255.574454 258.2574 
L 255.745769 258.375982 
L 256.088399 260.094942 
L 256.259715 259.559764 
L 256.43103 260.072284 
L 256.602345 259.516351 
L 256.77366 260.082487 
L 256.944975 260.134361 
L 257.11629 262.424391 
L 257.458921 260.887196 
L 257.630236 261.159358 
L 257.801551 262.399429 
L 257.972866 262.649664 
L 258.144181 263.275553 
L 258.658126 262.311032 
L 258.829442 262.691126 
L 259.000757 262.75097 
L 259.172072 262.053429 
L 259.343387 262.027068 
L 259.686017 263.29793 
L 259.857332 262.814763 
L 260.028648 262.832584 
L 260.199963 263.469974 
L 260.371278 263.598587 
L 260.542593 264.390079 
L 260.713908 264.111737 
L 260.885223 265.07733 
L 261.056538 264.939544 
L 261.227853 264.528347 
L 261.399169 264.947652 
L 261.570484 264.743281 
L 261.741799 264.2186 
L 262.084429 261.934157 
L 262.255744 260.52401 
L 262.427059 261.168522 
L 262.598375 259.67162 
L 262.76969 262.401705 
L 262.941005 262.251122 
L 263.11232 262.687781 
L 263.45495 262.678478 
L 263.79758 262.075305 
L 263.968896 262.450774 
L 264.311526 260.879161 
L 264.482841 257.244583 
L 264.825471 255.829312 
L 264.996786 254.937008 
L 265.168102 255.559061 
L 265.339417 254.541204 
L 265.510732 254.541204 
L 265.682047 254.40797 
L 265.853362 254.618722 
L 266.024677 256.349779 
L 266.195992 256.355573 
L 266.367307 255.427685 
L 266.709938 254.755132 
L 266.881253 255.585213 
L 267.223883 255.837397 
L 267.737829 254.727239 
L 267.909144 254.917146 
L 268.080459 254.930561 
L 268.251774 254.550367 
L 268.423089 255.145744 
L 268.594404 256.448872 
L 268.765719 256.466715 
L 269.279665 255.190146 
L 269.45098 257.461638 
L 269.622295 257.509241 
L 269.79361 257.116677 
L 269.964925 257.306991 
L 270.307556 255.46536 
L 270.821501 256.389104 
L 270.992816 256.123262 
L 271.164131 256.069677 
L 271.335446 255.46961 
L 271.506762 255.579164 
L 271.678077 254.123047 
L 271.849392 254.212863 
L 272.192022 255.106579 
L 272.534652 254.650018 
L 272.705967 255.056228 
L 272.877283 255.983321 
L 273.048598 255.829018 
L 273.219913 256.099363 
L 273.391228 254.64015 
L 273.562543 254.674929 
L 273.733858 257.269364 
L 273.905173 257.725183 
L 274.076489 257.134085 
L 274.247804 257.346559 
L 274.419119 257.092616 
L 274.590434 257.459136 
L 274.761749 257.109884 
L 274.933064 257.391431 
L 275.275694 254.262233 
L 275.44701 254.1509 
L 275.618325 254.54448 
L 275.78964 253.810224 
L 275.960955 252.468112 
L 276.303585 253.571085 
L 276.4749 254.000187 
L 276.646216 253.822558 
L 276.817531 254.825571 
L 276.988846 253.993334 
L 277.160161 254.459435 
L 277.331476 252.44709 
L 277.845421 253.303984 
L 278.359367 254.873862 
L 278.530682 254.972068 
L 278.701997 254.694117 
L 279.044627 253.503276 
L 279.215943 254.111348 
L 279.558573 248.163952 
L 279.729888 247.267103 
L 280.072518 250.028931 
L 280.243833 249.618729 
L 280.586464 251.295217 
L 280.757779 255.940587 
L 280.929094 255.735971 
L 281.271724 258.639683 
L 281.443039 257.735063 
L 281.614354 259.394821 
L 281.78567 259.136675 
L 281.956985 256.528465 
L 282.299615 258.045276 
L 282.47093 258.025282 
L 282.642245 257.596194 
L 282.984876 259.221932 
L 283.156191 261.035175 
L 283.327506 260.390587 
L 283.498821 261.416818 
L 283.670136 261.288743 
L 283.841451 260.214026 
L 284.012766 256.884086 
L 284.184081 256.868548 
L 284.355397 255.893103 
L 284.526712 256.575111 
L 284.869342 256.701658 
L 285.040657 256.311318 
L 285.211972 257.013149 
L 285.383287 258.531966 
L 285.554603 256.546125 
L 285.725918 258.272251 
L 285.897233 257.886926 
L 286.068548 258.217042 
L 286.239863 257.77606 
L 286.753808 262.017826 
L 286.925124 261.397661 
L 287.096439 263.904907 
L 287.267754 264.233939 
L 287.439069 264.937546 
L 287.610384 264.692683 
L 287.781699 263.87299 
L 287.953014 263.941129 
L 288.12433 263.679906 
L 288.46696 264.278766 
L 288.980905 262.815019 
L 289.323535 263.273024 
L 289.494851 263.548343 
L 289.666166 263.522064 
L 289.837481 264.482342 
L 290.008796 264.501698 
L 290.180111 263.84485 
L 290.351426 264.049249 
L 290.522741 264.610232 
L 290.694057 264.218325 
L 290.865372 263.160211 
L 291.379317 265.935456 
L 291.550632 265.619473 
L 291.893263 261.994509 
L 292.235893 261.618535 
L 292.407208 262.312838 
L 292.578523 262.280143 
L 292.749838 262.540791 
L 292.921153 261.347553 
L 293.092468 262.127742 
L 293.435099 261.709104 
L 293.606414 262.80468 
L 293.777729 262.575049 
L 293.949044 262.572563 
L 294.120359 263.429008 
L 294.291674 263.317076 
L 294.46299 263.370755 
L 294.634305 263.274525 
L 294.80562 263.882971 
L 294.976935 263.962203 
L 295.14825 264.378261 
L 295.319565 265.409898 
L 295.49088 265.039131 
L 295.662195 266.32891 
L 295.833511 265.308347 
L 296.004826 265.698036 
L 296.347456 264.310572 
L 296.518771 263.206854 
L 297.032717 263.391893 
L 297.204032 263.022097 
L 297.375347 263.264096 
L 297.546662 263.091513 
L 298.060607 264.66026 
L 298.403238 265.235338 
L 298.574553 263.342152 
L 298.745868 265.209403 
L 298.917183 265.522217 
L 299.259813 265.102966 
L 299.431128 265.180216 
L 299.602444 266.174279 
L 299.945074 265.665896 
L 300.287704 265.924057 
L 300.801649 263.10359 
L 300.972965 264.717891 
L 301.315595 263.123991 
L 301.48691 263.104021 
L 301.658225 263.334315 
L 301.82954 262.663338 
L 302.000855 265.555605 
L 302.172171 265.289041 
L 302.343486 264.751078 
L 302.514801 265.374442 
L 302.686116 268.430694 
L 302.857431 268.165397 
L 303.028746 268.874837 
L 303.200061 267.354841 
L 303.371377 267.831874 
L 303.542692 264.666989 
L 303.714007 265.348586 
L 304.227952 262.22627 
L 304.399267 262.642506 
L 304.570582 263.876072 
L 304.913213 261.679036 
L 305.084528 261.680957 
L 305.255843 263.171197 
L 305.427158 263.481971 
L 305.598473 263.531741 
L 305.769788 263.398846 
L 305.941104 263.866067 
L 306.283734 260.111285 
L 306.455049 259.855567 
L 306.626364 261.43191 
L 306.968994 261.37878 
L 307.140309 261.607086 
L 307.48294 266.887267 
L 307.654255 266.481435 
L 307.82557 266.516258 
L 307.996885 267.013591 
L 308.1682 268.34557 
L 308.339515 267.871971 
L 308.682146 268.105054 
L 308.853461 267.628552 
L 309.024776 267.693854 
L 309.196091 267.578497 
L 309.367406 268.658959 
L 309.538721 269.024201 
L 309.710036 268.813134 
L 309.881352 267.365541 
L 310.052667 267.016293 
L 310.395297 266.937595 
L 310.566612 266.989709 
L 310.737927 268.299094 
L 310.909242 268.19037 
L 311.251873 269.410109 
L 311.423188 268.235777 
L 311.594503 268.357214 
L 311.765818 268.710758 
L 311.937133 267.955363 
L 312.108448 265.758035 
L 312.279763 265.457567 
L 312.622394 262.473228 
L 312.793709 264.469362 
L 312.965024 264.620758 
L 313.307654 263.64008 
L 313.478969 264.065905 
L 313.650285 263.430306 
L 313.8216 263.732786 
L 314.16423 266.574393 
L 314.335545 266.514717 
L 314.50686 267.714974 
L 314.678175 267.338901 
L 314.849491 265.631623 
L 315.020806 265.155576 
L 315.192121 265.101512 
L 315.363436 265.404692 
L 315.534751 264.990486 
L 315.706066 265.809777 
L 315.877381 265.548369 
L 316.220012 266.442217 
L 316.391327 266.434841 
L 316.562642 267.221095 
L 316.733957 267.265003 
L 316.905272 267.040543 
L 317.419218 267.139283 
L 317.590533 267.786524 
L 317.933163 270.91486 
L 318.104478 271.467691 
L 318.275793 271.356931 
L 318.447108 271.010422 
L 318.618423 270.285808 
L 318.789739 270.688175 
L 318.961054 272.22025 
L 319.132369 272.360308 
L 319.303684 273.256625 
L 319.646314 272.162726 
L 319.817629 272.573036 
L 320.16026 270.884145 
L 320.50289 272.5696 
L 320.674205 272.374937 
L 320.84552 272.981852 
L 321.016835 273.101568 
L 321.18815 273.061393 
L 321.359466 272.171831 
L 321.530781 273.049797 
L 321.702096 272.983649 
L 322.044726 272.704423 
L 322.387356 273.829322 
L 322.558672 273.858441 
L 322.729987 274.565587 
L 322.901302 274.433043 
L 323.072617 274.132504 
L 323.415247 274.418227 
L 323.757878 273.993168 
L 324.271823 272.267716 
L 324.614453 272.045747 
L 324.785768 272.441175 
L 324.957083 271.449236 
L 325.128399 271.478372 
L 325.299714 272.039537 
L 325.471029 270.057745 
L 325.642344 269.888422 
L 325.813659 269.523463 
L 325.984974 268.228843 
L 326.156289 268.727911 
L 326.327605 270.35274 
L 326.670235 270.434767 
L 327.012865 269.925253 
L 327.18418 270.012703 
L 327.52681 271.82584 
L 327.698126 271.710274 
L 327.869441 271.148302 
L 328.040756 270.082021 
L 328.212071 269.993476 
L 328.383386 270.309676 
L 328.554701 271.150875 
L 328.897332 270.573035 
L 329.068647 270.59553 
L 329.239962 271.162814 
L 329.411277 269.450003 
L 329.582592 269.197302 
L 329.753907 268.726391 
L 329.925222 267.518568 
L 330.096537 267.373441 
L 330.267853 267.656694 
L 330.439168 268.278022 
L 330.610483 267.742639 
L 330.781798 268.200758 
L 330.953113 268.20297 
L 331.124428 268.384281 
L 331.295743 267.630198 
L 331.467059 267.532462 
L 331.638374 267.782802 
L 331.981004 271.618031 
L 332.152319 271.908735 
L 332.323634 271.668075 
L 332.494949 271.073718 
L 332.666264 272.007548 
L 332.83758 272.170689 
L 333.008895 271.70975 
L 333.18021 271.63496 
L 333.351525 271.774016 
L 333.694155 269.505185 
L 333.86547 269.891633 
L 334.036786 269.345345 
L 334.208101 270.075086 
L 334.550731 269.067037 
L 334.722046 269.06999 
L 335.235992 269.530265 
L 335.407307 268.208543 
L 335.578622 268.610503 
L 335.921252 268.810065 
L 336.092567 268.499474 
L 336.263882 268.568527 
L 336.435197 268.819414 
L 336.606513 268.760379 
L 336.949143 270.889574 
L 337.120458 271.427784 
L 337.291773 271.425621 
L 337.463088 272.639647 
L 337.634403 271.20325 
L 337.805719 272.296496 
L 338.490979 273.242295 
L 338.662294 273.252662 
L 338.833609 272.349487 
L 339.17624 272.915057 
L 339.347555 273.486931 
L 339.690185 273.554678 
L 339.8615 273.791845 
L 340.032815 273.510324 
L 340.20413 273.551359 
L 340.718076 272.625836 
L 340.889391 273.689676 
L 341.232021 273.529956 
L 341.403336 274.489904 
L 341.574651 274.355458 
L 341.745967 274.054623 
L 342.088597 274.016681 
L 342.259912 273.207899 
L 342.431227 273.543446 
L 342.602542 273.622459 
L 342.773857 273.022357 
L 342.945173 272.990553 
L 343.116488 273.308309 
L 343.287803 274.351872 
L 343.459118 274.067039 
L 343.630433 274.393413 
L 343.801748 273.414289 
L 343.973063 273.623088 
L 344.144378 273.594368 
L 344.315694 274.273465 
L 344.829639 273.630069 
L 345.000954 273.806701 
L 345.172269 273.402592 
L 345.343584 271.807062 
L 345.5149 272.576781 
L 345.85753 272.504634 
L 346.028845 272.777158 
L 346.20016 273.291046 
L 346.371475 274.225368 
L 346.714106 273.374021 
L 346.885421 274.238983 
L 347.056736 274.392791 
L 347.399366 272.259959 
L 347.570681 272.281918 
L 347.741996 272.117886 
L 347.913311 272.213845 
L 348.084627 270.846072 
L 348.598572 274.579107 
L 348.769887 274.108734 
L 348.941202 273.299594 
L 349.112517 273.10503 
L 349.283833 272.3909 
L 349.455148 272.461373 
L 349.626463 272.274232 
L 349.797778 272.462084 
L 349.969093 272.427375 
L 350.483038 275.807414 
L 350.654354 275.122199 
L 350.825669 275.084487 
L 350.996984 275.954089 
L 351.339614 275.915297 
L 351.510929 275.795536 
L 351.682244 274.989824 
L 351.85356 275.103247 
L 352.024875 275.011643 
L 352.367505 275.718806 
L 352.53882 275.649177 
L 352.710135 274.899342 
L 352.88145 274.706427 
L 353.052765 274.004919 
L 353.395396 273.791255 
L 353.566711 273.13317 
L 354.080656 273.156401 
L 354.251971 272.824092 
L 354.423287 274.243845 
L 354.594602 274.344667 
L 354.765917 274.158174 
L 354.937232 273.763414 
L 355.108547 273.863996 
L 355.451177 276.023791 
L 355.622492 275.82105 
L 355.793808 276.266664 
L 356.136438 276.195221 
L 356.307753 275.3619 
L 356.650383 275.657231 
L 356.821698 275.461905 
L 356.993014 275.582961 
L 357.335644 275.453762 
L 357.506959 275.524003 
L 357.678274 275.861677 
L 357.849589 275.379225 
L 358.020904 275.269895 
L 358.19222 275.468615 
L 358.363535 275.261623 
L 358.706165 275.557271 
L 359.048795 275.368776 
L 359.391425 276.22845 
L 359.905371 276.64571 
L 360.076686 276.531123 
L 360.419316 277.89033 
L 360.761947 277.804006 
L 361.104577 277.912594 
L 361.275892 277.855331 
L 361.447207 277.605421 
L 361.618522 276.733336 
L 361.789837 277.149919 
L 361.961152 277.192779 
L 362.303783 276.5243 
L 362.475098 276.798409 
L 362.646413 276.690829 
L 362.817728 276.921291 
L 362.989043 275.81286 
L 363.160358 276.557199 
L 363.331674 275.767994 
L 363.502989 277.284537 
L 363.845619 277.534264 
L 364.016934 278.36762 
L 364.188249 278.189622 
L 364.359564 279.545296 
L 364.530879 279.754732 
L 364.702195 279.660092 
L 364.87351 279.978586 
L 365.21614 279.540998 
L 365.387455 278.705506 
L 365.730085 280.04052 
L 366.244031 280.004614 
L 366.415346 279.990041 
L 366.757976 280.576213 
L 366.929291 279.641269 
L 367.100606 279.547995 
L 367.271922 279.127515 
L 367.443237 279.506796 
L 367.614552 279.211101 
L 367.785867 278.615707 
L 368.128497 279.53095 
L 368.299812 278.420065 
L 368.471128 279.105306 
L 368.813758 278.719006 
L 368.985073 277.866434 
L 369.327703 278.071413 
L 369.499018 277.58767 
L 369.670334 277.548338 
L 370.012964 279.958455 
L 370.355594 279.379339 
L 370.526909 279.64343 
L 370.698224 280.265256 
L 371.040855 279.986524 
L 371.21217 280.315998 
L 371.383485 280.296524 
L 371.5548 280.924951 
L 371.726115 281.029252 
L 371.89743 280.091902 
L 372.068745 280.055218 
L 372.240061 279.80221 
L 372.411376 279.313831 
L 372.754006 280.128478 
L 372.925321 279.307277 
L 373.096636 279.507269 
L 373.267951 278.484048 
L 373.610582 279.751334 
L 373.781897 279.230371 
L 373.953212 279.544174 
L 374.124527 279.249092 
L 374.467157 279.652444 
L 374.638472 279.519574 
L 374.809788 278.50854 
L 375.152418 279.118077 
L 375.495048 278.176357 
L 375.666363 277.924355 
L 375.837678 278.145919 
L 376.008993 277.451603 
L 376.180309 277.70525 
L 376.694254 277.719015 
L 376.865569 277.822914 
L 377.208199 279.796743 
L 377.379515 279.766389 
L 377.55083 279.545077 
L 377.722145 279.545251 
L 378.064775 278.85913 
L 378.23609 278.873163 
L 378.407405 278.738377 
L 378.57872 279.010008 
L 378.750036 278.940275 
L 378.921351 278.552375 
L 379.263981 279.590171 
L 379.435296 279.218737 
L 379.606611 279.798856 
L 379.949242 279.897298 
L 380.120557 279.903175 
L 380.291872 280.175532 
L 380.463187 280.061757 
L 380.634502 280.153512 
L 380.805817 279.859948 
L 381.148448 279.666015 
L 381.319763 280.071165 
L 381.833708 278.166808 
L 382.005023 278.53567 
L 382.176338 278.31708 
L 382.347653 278.752844 
L 382.518969 278.569077 
L 382.690284 278.88214 
L 382.861599 278.775376 
L 383.204229 277.586028 
L 384.060805 280.11697 
L 384.23212 279.29291 
L 384.403435 279.346706 
L 384.57475 279.156416 
L 384.746065 279.642466 
L 385.088696 279.683936 
L 385.260011 279.494634 
L 385.602641 281.059196 
L 385.773956 281.248288 
L 385.945271 281.027049 
L 386.287902 280.142507 
L 386.459217 280.718087 
L 386.630532 280.539058 
L 386.801847 280.625471 
L 386.973162 279.230251 
L 387.144477 280.980958 
L 387.315792 280.984129 
L 387.487107 281.609365 
L 387.658423 281.552772 
L 387.829738 281.946537 
L 388.001053 281.840921 
L 388.172368 281.48328 
L 388.343683 281.693419 
L 388.514998 282.268478 
L 388.857629 282.456854 
L 389.028944 282.241601 
L 389.200259 281.475675 
L 389.371574 281.434378 
L 389.542889 281.800528 
L 389.714204 281.535271 
L 389.885519 281.566955 
L 390.056834 281.955991 
L 390.22815 282.646868 
L 390.399465 282.243752 
L 390.57078 282.349112 
L 390.742095 282.226218 
L 391.427356 284.532212 
L 391.769986 283.422155 
L 391.941301 283.751558 
L 392.112616 283.362878 
L 392.283931 285.197525 
L 392.455246 285.146627 
L 392.626562 284.966267 
L 392.797877 285.046484 
L 393.140507 284.966668 
L 393.311822 285.012417 
L 393.483137 285.537678 
L 393.654452 285.564606 
L 393.825767 285.774116 
L 393.997083 285.256313 
L 394.168398 285.348195 
L 394.511028 286.157786 
L 394.682343 286.081874 
L 394.853658 286.204599 
L 395.196289 285.390002 
L 395.367604 284.933292 
L 395.881549 284.980841 
L 396.224179 285.342686 
L 396.395494 285.156564 
L 397.080755 285.092237 
L 397.25207 284.47713 
L 397.5947 284.417953 
L 397.937331 284.744392 
L 398.108646 284.714005 
L 398.279961 284.248358 
L 398.793906 284.888232 
L 399.136537 284.748398 
L 399.307852 284.782059 
L 399.650482 284.693328 
L 399.821797 284.761036 
L 399.993112 284.546556 
L 400.164427 284.949799 
L 400.507058 284.49155 
L 400.678373 284.561291 
L 400.849688 284.791965 
L 401.363633 284.58379 
L 401.534948 284.987771 
L 401.706264 284.74503 
L 402.048894 284.663919 
L 402.391524 284.025359 
L 402.562839 284.213282 
L 402.90547 284.023125 
L 403.076785 284.077503 
L 403.2481 284.392752 
L 403.762045 284.597492 
L 404.104676 284.101171 
L 404.275991 284.009927 
L 404.618621 283.435277 
L 404.961251 283.575677 
L 405.132566 283.249685 
L 405.475197 283.85115 
L 405.646512 284.697571 
L 405.989142 285.128351 
L 406.160457 286.051353 
L 406.503087 286.458614 
L 406.674403 286.158951 
L 406.845718 286.441503 
L 407.017033 286.477811 
L 407.359663 286.166799 
L 407.530978 286.722858 
L 407.702293 286.598499 
L 408.558869 287.099873 
L 408.730184 286.605185 
L 409.072814 286.834041 
L 409.415445 286.094801 
L 409.58676 286.351268 
L 409.758075 286.19856 
L 409.92939 285.540896 
L 410.27202 285.340494 
L 410.443335 285.342713 
L 410.957281 286.029713 
L 411.471226 285.773449 
L 411.642541 285.850477 
L 411.813857 285.534859 
L 411.985172 285.490441 
L 412.156487 286.023375 
L 412.327802 286.167976 
L 412.499117 286.073619 
L 412.841747 285.310303 
L 413.013062 285.341734 
L 413.184378 284.811134 
L 413.355693 284.791745 
L 413.527008 285.035935 
L 413.869638 283.79238 
L 414.212268 283.17122 
L 414.383584 282.84085 
L 414.726214 283.875292 
L 414.897529 283.343568 
L 415.068844 283.457267 
L 415.240159 283.317346 
L 415.58279 283.304548 
L 416.439365 284.414365 
L 416.781995 284.271669 
L 416.953311 284.514613 
L 417.124626 284.096832 
L 417.638571 285.223404 
L 417.981201 286.490319 
L 418.666462 287.149528 
L 419.180407 287.230586 
L 419.351722 287.148277 
L 419.523038 287.417363 
L 419.694353 287.218156 
L 420.036983 287.239009 
L 420.379613 287.632786 
L 420.550928 287.242416 
L 421.064874 287.955684 
L 421.236189 287.880602 
L 421.407504 288.076745 
L 421.578819 287.519991 
L 421.750134 287.745846 
L 421.921449 287.630171 
L 422.092765 287.9462 
L 422.26408 287.91142 
L 422.435395 287.468268 
L 422.60671 287.937616 
L 423.120655 286.733091 
L 423.291971 287.286299 
L 423.463286 287.204837 
L 423.805916 287.415963 
L 423.977231 287.741212 
L 424.491176 287.304989 
L 424.662492 287.287264 
L 425.005122 286.783622 
L 425.176437 286.997114 
L 425.519067 286.573585 
L 425.690382 285.736207 
L 425.861698 286.113587 
L 426.033013 285.859047 
L 426.204328 286.292112 
L 426.375643 287.062811 
L 426.546958 287.100046 
L 426.718273 287.293838 
L 426.889588 287.307591 
L 427.060904 286.956724 
L 427.574849 287.99383 
L 427.746164 288.048492 
L 427.917479 288.276945 
L 428.088794 288.29243 
L 428.260109 288.192582 
L 428.431425 288.27204 
L 428.60274 288.796131 
L 428.94537 288.796553 
L 429.459315 289.220277 
L 429.630631 289.288028 
L 429.801946 289.007497 
L 430.144576 288.942 
L 430.829836 289.957233 
L 431.001152 289.844822 
L 431.857727 290.329091 
L 431.857727 290.329091 
" clip-path="url(#p5f2fbf9c97)" style="fill: none; stroke: #1f77b4; stroke-width: 1.5; stroke-linecap: square"/>
   </g>
   <g id="patch_3">
    <path d="M 50.87 303.64 
L 50.87 10.8 
" style="fill: none; stroke: #000000; stroke-width: 0.8; stroke-linejoin: miter; stroke-linecap: square"/>
   </g>
   <g id="patch_4">
    <path d="M 450 303.64 
L 450 10.8 
" style="fill: none; stroke: #000000; stroke-width: 0.8; stroke-linejoin: miter; stroke-linecap: square"/>
   </g>
   <g id="patch_5">
    <path d="M 50.87 303.64 
L 450 303.64 
" style="fill: none; stroke: #000000; stroke-width: 0.8; stroke-linejoin: miter; stroke-linecap: square"/>
   </g>
   <g id="patch_6">
    <path d="M 50.87 10.8 
L 450 10.8 
" style="fill: none; stroke: #000000; stroke-width: 0.8; stroke-linejoin: miter; stroke-linecap: square"/>
   </g>
  </g>
 </g>
 <defs>
  <clipPath id="p5f2fbf9c97">
   <rect x="50.87" y="10.8" width="399.13" height="292.84"/>
  </clipPath>
 </defs>
</svg>
